<svg width="80" height="80" viewBox="0 0 80 80" fill="none" xmlns="http://www.w3.org/2000/svg">
<g clip-path="url(#clip0_953:625)">
<path d="M80 40C80 43.1134 79.6441 46.1437 78.9714 49.0514C77.5233 55.3094 74.6089 61.0041 70.6073 65.7534C68.5013 68.2547 66.0931 70.4947 63.44 72.4147C56.8539 77.1869 48.7542 80 40 80C27.7192 80 16.7298 74.4653 9.39266 65.7534C3.53141 58.7952 0 49.8089 0 40C0 17.9086 17.9086 0 40 0C62.0914 0 80 17.9086 80 40Z" fill="#0078E7"/>
<path d="M78.9708 49.0497C77.5227 55.3077 74.6083 61.0023 70.6068 65.7517C68.5007 68.253 66.0926 70.493 63.4394 72.413L30.2754 39.2489L49.7219 19.8008L78.9708 49.0497Z" fill="#046AC9"/>
<path d="M70.6073 65.7534C63.2701 74.4653 52.2807 80 39.9999 80C27.7191 80 16.7298 74.4653 9.39258 65.7534C12.8341 58.6858 25.2341 53.4531 39.9999 53.4531C52.1012 53.4531 62.6154 56.9683 67.9101 62.1274C69.0759 63.2636 69.9885 64.4784 70.6073 65.7534Z" fill="#F7F7F7"/>
<path d="M49.7233 19.8016C55.0942 25.1726 55.0942 33.8777 49.7233 39.2487C44.3523 44.6196 35.6472 44.6196 30.2763 39.2487C24.9053 33.8777 24.9053 25.1726 30.2763 19.8016C35.6472 14.4307 44.3525 14.4307 49.7233 19.8016Z" fill="#F7F7F7"/>
</g>
<defs>
<clipPath id="clip0_953:625">
<rect width="80" height="80" fill="white"/>
</clipPath>
</defs>
</svg>
