<svg width="80" height="80" viewBox="0 0 80 80" fill="none" xmlns="http://www.w3.org/2000/svg">
<g clip-path="url(#clip0_953:840)">
<path d="M7.4574 17.6271L39.9998 0L72.5421 17.6271H79.3218V23.0508H76.6099V28.4746H3.3896V23.0508H0.677734V17.6271H7.4574Z" fill="#EBE5DD"/>
<path d="M79.3218 17.6289H0.677734V20.3408H79.3218V17.6289Z" fill="#D4C8B8"/>
<path d="M59.4352 17.6253H63.0509L40.0001 5.42188L16.9492 17.6253H28.7006L44.0679 9.48967L59.4352 17.6253Z" fill="#E7B900"/>
<path d="M44.0685 9.49219L28.7012 17.6278H59.4357L44.0685 9.49219Z" fill="#FFD422"/>
<path d="M76.611 69.1523H3.39062V74.5761H76.611V69.1523Z" fill="#EBE5DD"/>
<path d="M76.611 23.0508H3.39062V25.7626H76.611V23.0508Z" fill="#D4C8B8"/>
<path d="M76.611 71.8633H3.39062V74.5752H76.611V71.8633Z" fill="#D4C8B8"/>
<path d="M79.3218 74.5781H0.677734V80.0018H79.3218V74.5781Z" fill="#EBE5DD"/>
<path d="M79.3218 77.2891H0.677734V80.0009H79.3218V77.2891Z" fill="#D4C8B8"/>
<path d="M71.1869 33.8984H67.1191V63.7289H71.1869V33.8984Z" fill="#5EAC24"/>
<path d="M73.8974 33.8984H71.1855V63.7289H73.8974V33.8984Z" fill="#69C229"/>
<path d="M52.2031 33.8984V37.9662V59.6611V63.7289H56.2709V33.8984H52.2031Z" fill="#47821B"/>
<path d="M58.9834 33.8984H56.2715V63.7289H58.9834V33.8984Z" fill="#5EAC24"/>
<path d="M12.8822 33.8984H8.81445V63.7289H12.8822V33.8984Z" fill="#5EAC24"/>
<path d="M8.81343 33.8984H6.10156V63.7289H8.81343V33.8984Z" fill="#69C229"/>
<path d="M27.7963 33.8984V37.9662V59.6611V63.7289H23.7285V33.8984H27.7963Z" fill="#47821B"/>
<path d="M23.7294 33.8984H21.0176V63.7289H23.7294V33.8984Z" fill="#5EAC24"/>
<path d="M39.9998 59.6598C45.9907 59.6598 50.8473 54.8032 50.8473 48.8123C50.8473 42.8214 45.9907 37.9648 39.9998 37.9648C34.0089 37.9648 29.1523 42.8214 29.1523 48.8123C29.1523 54.8032 34.0089 59.6598 39.9998 59.6598Z" fill="#FFD422"/>
<path d="M34.1886 43.883L32.25 41.9867C34.3097 39.882 37.062 38.7227 39.9997 38.7227V41.4345C37.7976 41.4347 35.7339 42.304 34.1886 43.883Z" fill="white"/>
<path d="M44.2371 59.5519L43.1777 57.0558C45.2044 56.1951 46.7649 54.5882 47.57 52.5312L50.095 53.5204C49.0218 56.2621 46.941 58.404 44.2371 59.5519Z" fill="white"/>
<path d="M40.0007 35.2539C32.5239 35.2539 26.4414 41.3364 26.4414 48.8132C26.4414 56.29 32.5239 62.3725 40.0007 62.3725C47.4775 62.3725 53.5601 56.29 53.5601 48.8132C53.5601 41.3364 47.4775 35.2539 40.0007 35.2539ZM40.0007 59.6607C34.0195 59.6607 29.1533 54.7944 29.1533 48.8132C29.1533 42.832 34.0195 37.9658 40.0007 37.9658C45.9819 37.9658 50.8482 42.832 50.8482 48.8132C50.8482 54.7944 45.9819 59.6607 40.0007 59.6607Z" fill="#E7B900"/>
<path d="M44.0692 51.5232C44.0692 49.2802 42.2444 47.4554 40.0014 47.4554C39.2539 47.4554 38.6455 46.847 38.6455 46.0995C38.6455 45.3521 39.2539 44.7436 40.0014 44.7436H42.7133V42.0317H41.3573V40.6758H38.6455V42.2815C37.0705 42.8431 35.9336 44.3341 35.9336 46.0995C35.9336 48.3426 37.7583 50.1673 40.0014 50.1673C40.7489 50.1673 41.3573 50.7758 41.3573 51.5232C41.3573 52.2707 40.7489 52.8792 40.0014 52.8792H37.2895V55.591H38.6455V56.947H41.3573V55.3412C42.9322 54.7797 44.0692 53.2887 44.0692 51.5232Z" fill="#E7B900"/>
</g>
<defs>
<clipPath id="clip0_953:840">
<rect width="80" height="80" fill="white"/>
</clipPath>
</defs>
</svg>
