<svg width="233" height="73" viewBox="0 0 233 73" fill="none" xmlns="http://www.w3.org/2000/svg">
<path d="M13.7535 34.8195L9.99048 45.1403H24.857L28.62 34.8195H13.7535Z" fill="white"/>
<path d="M37.3915 13.4065H0L4.7435 27.4247H37.3915C42.2675 27.4247 46.216 31.3881 46.216 36.2825C46.216 41.1769 42.2675 45.1403 37.3915 45.1403H24.8305L19.928 59.1585H37.3915C49.9525 59.1585 60.1815 48.8909 60.1815 36.2825C60.1815 23.6741 49.9525 13.4065 37.3915 13.4065Z" fill="white"/>
<path d="M69.8541 0H69.5891V72.5382H69.8541V0Z" fill="#C1C1C1"/>
<path d="M81.2227 24.4986H89.7027C91.6637 24.4986 93.4392 24.7646 94.9762 25.2966C96.5132 25.8286 97.8117 26.5734 98.8717 27.5576C99.9317 28.5152 100.727 29.6856 101.283 31.0156C101.84 32.3456 102.105 33.8086 102.105 35.4312V35.4844C102.105 37.0804 101.813 38.57 101.257 39.9266C100.7 41.2832 99.8787 42.4536 98.7922 43.4378C97.7322 44.422 96.4072 45.1933 94.8437 45.7519C93.2802 46.3105 91.5047 46.5766 89.5437 46.5766H81.1697V24.4986H81.2227ZM89.8087 41.1768C91.6372 41.1768 93.1212 40.698 94.2342 39.7138C95.3472 38.7562 95.9037 37.373 95.9037 35.5908V35.5376C95.9037 33.782 95.3472 32.3988 94.2342 31.4146C93.1212 30.4304 91.6372 29.9516 89.8087 29.9516H87.3177V41.1768H89.8087Z" fill="white"/>
<path d="M116.335 47.0288C114.639 47.0288 113.076 46.7362 111.618 46.1244C110.161 45.5126 108.915 44.7146 107.882 43.6772C106.822 42.6398 106 41.4428 105.417 40.0596C104.808 38.6764 104.516 37.1868 104.516 35.6174V35.5642C104.516 33.9948 104.808 32.5052 105.417 31.0954C106.027 29.6856 106.848 28.462 107.908 27.4246C108.968 26.3872 110.24 25.5626 111.671 24.9508C113.129 24.339 114.692 24.0464 116.388 24.0464C118.084 24.0464 119.648 24.339 121.105 24.9508C122.563 25.5626 123.808 26.3606 124.842 27.398C125.902 28.4354 126.723 29.6324 127.306 31.0156C127.916 32.3988 128.207 33.8884 128.207 35.4578V35.511C128.207 37.0804 127.916 38.57 127.306 39.9798C126.697 41.3896 125.875 42.5866 124.815 43.6506C123.755 44.688 122.483 45.5126 121.052 46.1244C119.621 46.7362 118.031 47.0288 116.335 47.0288ZM116.388 41.5226C117.236 41.5226 118.005 41.363 118.694 41.0438C119.383 40.7246 119.966 40.299 120.469 39.767C120.946 39.235 121.344 38.5966 121.609 37.8784C121.874 37.1602 122.006 36.4154 122.006 35.6174V35.5642C122.006 34.7662 121.874 33.9948 121.609 33.3032C121.344 32.585 120.946 31.9466 120.443 31.4146C119.939 30.856 119.33 30.4304 118.641 30.1112C117.952 29.792 117.183 29.6324 116.335 29.6324C115.487 29.6324 114.719 29.792 114.056 30.1112C113.367 30.4304 112.784 30.856 112.281 31.388C111.777 31.92 111.406 32.5584 111.141 33.2766C110.876 33.9948 110.744 34.7396 110.744 35.5376V35.5908C110.744 36.3888 110.876 37.1602 111.141 37.8518C111.406 38.57 111.804 39.2084 112.281 39.7404C112.784 40.299 113.367 40.7246 114.056 41.0438C114.772 41.363 115.54 41.5226 116.388 41.5226Z" fill="white"/>
<path d="M131.414 24.4986H140.848C142.226 24.4986 143.498 24.6848 144.611 25.0306C145.75 25.3764 146.704 25.8818 147.499 26.5468C148.294 27.2118 148.904 28.0364 149.328 28.994C149.752 29.9516 149.964 31.0688 149.964 32.2658V32.319C149.964 33.6224 149.725 34.7662 149.248 35.7504C148.771 36.7346 148.109 37.5592 147.287 38.2508C146.439 38.9158 145.459 39.4212 144.293 39.767C143.127 40.1128 141.855 40.2724 140.503 40.2724H137.482V46.5766H131.387V24.4986H131.414ZM140.397 35.4844C141.484 35.4844 142.332 35.2184 142.968 34.713C143.577 34.2076 143.895 33.4894 143.895 32.6116V32.5584C143.895 31.6008 143.577 30.8826 142.968 30.3772C142.358 29.8718 141.484 29.6324 140.371 29.6324H137.509V35.4844H140.397Z" fill="white"/>
<path d="M163.161 47.0288C161.597 47.0288 160.113 46.7362 158.735 46.1776C157.357 45.619 156.138 44.821 155.131 43.7836C154.124 42.7728 153.303 41.5492 152.72 40.166C152.11 38.7562 151.819 37.24 151.819 35.6174V35.5642C151.819 33.9682 152.11 32.4786 152.693 31.0688C153.276 29.659 154.098 28.462 155.105 27.398C156.138 26.3606 157.357 25.536 158.762 24.9508C160.166 24.3656 161.73 24.073 163.399 24.073C164.539 24.073 165.546 24.1794 166.473 24.3922C167.401 24.605 168.249 24.9242 169.017 25.3498C169.786 25.7488 170.475 26.2542 171.084 26.8128C171.694 27.3714 172.25 28.0098 172.727 28.6748L168.143 32.2392C167.507 31.4412 166.818 30.8028 166.076 30.3506C165.334 29.8984 164.406 29.659 163.346 29.659C162.578 29.659 161.862 29.8186 161.226 30.1112C160.59 30.4038 160.034 30.8294 159.583 31.3614C159.133 31.8934 158.762 32.5052 158.497 33.2234C158.232 33.9416 158.099 34.6864 158.099 35.4844V35.5376C158.099 36.3622 158.232 37.1336 158.497 37.8518C158.762 38.57 159.133 39.2084 159.583 39.7404C160.034 40.2724 160.59 40.6714 161.226 40.9906C161.862 41.2832 162.578 41.4428 163.346 41.4428C163.903 41.4428 164.433 41.3896 164.91 41.2566C165.387 41.1236 165.811 40.9374 166.208 40.698C166.606 40.4586 166.95 40.166 167.321 39.8468C167.666 39.5276 168.01 39.1552 168.355 38.7562L172.939 42.028C172.409 42.7462 171.853 43.4112 171.217 44.023C170.607 44.6348 169.892 45.1668 169.097 45.5924C168.302 46.0446 167.427 46.3904 166.447 46.6298C165.466 46.9224 164.38 47.0288 163.161 47.0288Z" fill="white"/>
<path d="M186.587 47.0288C184.891 47.0288 183.327 46.7362 181.87 46.1244C180.412 45.5126 179.167 44.7146 178.133 43.6772C177.073 42.6398 176.252 41.4428 175.669 40.0596C175.059 38.6764 174.768 37.1868 174.768 35.6174V35.5642C174.768 33.9948 175.059 32.5052 175.669 31.0954C176.278 29.6856 177.1 28.462 178.16 27.4246C179.22 26.3872 180.492 25.5626 181.923 24.9508C183.38 24.339 184.944 24.0464 186.64 24.0464C188.336 24.0464 189.899 24.339 191.357 24.9508C192.814 25.5626 194.06 26.3606 195.093 27.398C196.153 28.4354 196.975 29.6324 197.558 31.0156C198.167 32.3988 198.459 33.8884 198.459 35.4578V35.511C198.459 37.0804 198.167 38.57 197.558 39.9798C196.948 41.3896 196.127 42.5866 195.067 43.6506C194.007 44.688 192.735 45.5126 191.304 46.1244C189.873 46.7362 188.283 47.0288 186.587 47.0288ZM186.64 41.5226C187.488 41.5226 188.256 41.363 188.945 41.0438C189.634 40.7246 190.217 40.299 190.721 39.767C191.198 39.235 191.595 38.5966 191.86 37.8784C192.125 37.1602 192.258 36.4154 192.258 35.6174V35.5642C192.258 34.7662 192.125 33.9948 191.86 33.3032C191.595 32.585 191.198 31.9466 190.694 31.4146C190.191 30.856 189.581 30.4304 188.892 30.1112C188.203 29.792 187.435 29.6324 186.587 29.6324C185.739 29.6324 184.97 29.792 184.308 30.1112C183.619 30.4304 183.036 30.856 182.532 31.388C182.029 31.92 181.658 32.5584 181.393 33.2766C181.128 33.9948 180.995 34.7396 180.995 35.5376V35.5908C180.995 36.3888 181.128 37.1602 181.393 37.8518C181.658 38.57 182.055 39.2084 182.532 39.7404C183.036 40.299 183.619 40.7246 184.308 41.0438C185.023 41.363 185.792 41.5226 186.64 41.5226Z" fill="white"/>
<path d="M201.771 24.4986H207.893V46.6032H201.771V24.4986Z" fill="white"/>
<path d="M211.947 24.4986H217.645L226.734 36.176V24.4986H232.75V46.6032H227.397L217.963 34.4736V46.6032H211.947V24.4986V24.4986Z" fill="white"/>
</svg>
