<svg width="233" height="74" viewBox="0 0 233 74" fill="none" xmlns="http://www.w3.org/2000/svg">
<path d="M13.8919 35.537L10.1289 45.8578H24.9954L28.7584 35.537H13.8919Z" fill="url(#paint0_linear)"/>
<path d="M37.5299 14.124H0.138428L4.88193 28.1422H37.5299C42.4059 28.1422 46.3544 32.1056 46.3544 37C46.3544 41.8944 42.4059 45.8578 37.5299 45.8578H24.9689L20.0664 59.876H37.5299C50.0909 59.876 60.3199 49.6084 60.3199 37C60.3199 24.3916 50.0909 14.124 37.5299 14.124Z" fill="url(#paint1_linear)"/>
<path d="M69.9925 0.71759H69.7275V73.2558H69.9925V0.71759Z" fill="#C1C1C1"/>
<path d="M81.3611 25.2162H89.8411C91.8021 25.2162 93.5776 25.4822 95.1146 26.0142C96.6516 26.5462 97.9501 27.291 99.0101 28.2752C100.07 29.2328 100.865 30.4032 101.422 31.7332C101.978 33.0632 102.243 34.5262 102.243 36.1488V36.202C102.243 37.798 101.952 39.2876 101.395 40.6442C100.839 42.0008 100.017 43.1712 98.9306 44.1554C97.8706 45.1396 96.5456 45.9109 94.9821 46.4695C93.4186 47.0281 91.6431 47.2941 89.6821 47.2941H81.3081V25.2162H81.3611ZM89.9471 41.8944C91.7756 41.8944 93.2596 41.4156 94.3726 40.4314C95.4856 39.4738 96.0421 38.0906 96.0421 36.3084V36.2552C96.0421 34.4996 95.4856 33.1164 94.3726 32.1322C93.2596 31.148 91.7756 30.6692 89.9471 30.6692H87.4561V41.8944H89.9471Z" fill="#0078E7"/>
<path d="M116.474 47.7464C114.778 47.7464 113.214 47.4538 111.757 46.842C110.299 46.2302 109.054 45.4322 108.02 44.3948C106.96 43.3574 106.139 42.1604 105.556 40.7772C104.946 39.394 104.655 37.9044 104.655 36.335V36.2818C104.655 34.7124 104.946 33.2228 105.556 31.813C106.165 30.4032 106.987 29.1796 108.047 28.1422C109.107 27.1048 110.379 26.2802 111.81 25.6684C113.267 25.0566 114.831 24.764 116.527 24.764C118.223 24.764 119.786 25.0566 121.244 25.6684C122.701 26.2802 123.947 27.0782 124.98 28.1156C126.04 29.153 126.862 30.35 127.445 31.7332C128.054 33.1164 128.346 34.606 128.346 36.1754V36.2286C128.346 37.798 128.054 39.2876 127.445 40.6974C126.835 42.1072 126.014 43.3042 124.954 44.3682C123.894 45.4056 122.622 46.2302 121.191 46.842C119.76 47.4538 118.17 47.7464 116.474 47.7464ZM116.527 42.2402C117.375 42.2402 118.143 42.0806 118.832 41.7614C119.521 41.4422 120.104 41.0166 120.608 40.4846C121.085 39.9526 121.482 39.3142 121.747 38.596C122.012 37.8778 122.145 37.133 122.145 36.335V36.2818C122.145 35.4838 122.012 34.7124 121.747 34.0208C121.482 33.3026 121.085 32.6642 120.581 32.1322C120.078 31.5736 119.468 31.148 118.779 30.8288C118.09 30.5096 117.322 30.35 116.474 30.35C115.626 30.35 114.857 30.5096 114.195 30.8288C113.506 31.148 112.923 31.5736 112.419 32.1056C111.916 32.6376 111.545 33.276 111.28 33.9942C111.015 34.7124 110.882 35.4572 110.882 36.2552V36.3084C110.882 37.1064 111.015 37.8778 111.28 38.5694C111.545 39.2876 111.942 39.926 112.419 40.458C112.923 41.0166 113.506 41.4422 114.195 41.7614C114.91 42.0806 115.679 42.2402 116.527 42.2402Z" fill="#0078E7"/>
<path d="M131.552 25.2162H140.986C142.364 25.2162 143.636 25.4024 144.749 25.7482C145.889 26.094 146.843 26.5994 147.638 27.2644C148.433 27.9294 149.042 28.754 149.466 29.7116C149.89 30.6692 150.102 31.7864 150.102 32.9834V33.0366C150.102 34.34 149.864 35.4838 149.387 36.468C148.91 37.4522 148.247 38.2768 147.426 38.9684C146.578 39.6334 145.597 40.1387 144.431 40.4845C143.265 40.8303 141.993 40.99 140.642 40.99H137.621V47.2941H131.526V25.2162H131.552ZM140.536 36.202C141.622 36.202 142.47 35.936 143.106 35.4306C143.716 34.9252 144.034 34.207 144.034 33.3292V33.276C144.034 32.3184 143.716 31.6002 143.106 31.0948C142.497 30.5894 141.622 30.35 140.509 30.35H137.647V36.202H140.536Z" fill="#0078E7"/>
<path d="M163.299 47.7464C161.736 47.7464 160.252 47.4538 158.874 46.8952C157.496 46.3366 156.277 45.5386 155.27 44.5012C154.263 43.4904 153.441 42.2668 152.858 40.8836C152.249 39.4738 151.957 37.9576 151.957 36.335V36.2818C151.957 34.6858 152.249 33.1962 152.832 31.7864C153.415 30.3766 154.236 29.1796 155.243 28.1156C156.277 27.0782 157.496 26.2536 158.9 25.6684C160.305 25.0832 161.868 24.7906 163.538 24.7906C164.677 24.7906 165.684 24.897 166.612 25.1098C167.539 25.3226 168.387 25.6418 169.156 26.0674C169.924 26.4664 170.613 26.9718 171.223 27.5304C171.832 28.089 172.389 28.7274 172.866 29.3924L168.281 32.9568C167.645 32.1588 166.956 31.5204 166.214 31.0682C165.472 30.616 164.545 30.3766 163.485 30.3766C162.716 30.3766 162.001 30.5362 161.365 30.8288C160.729 31.1214 160.172 31.547 159.722 32.079C159.271 32.611 158.9 33.2228 158.635 33.941C158.37 34.6592 158.238 35.404 158.238 36.202V36.2552C158.238 37.0798 158.37 37.8512 158.635 38.5694C158.9 39.2876 159.271 39.926 159.722 40.458C160.172 40.99 160.729 41.389 161.365 41.7082C162.001 42.0008 162.716 42.1604 163.485 42.1604C164.041 42.1604 164.571 42.1072 165.048 41.9742C165.525 41.8412 165.949 41.655 166.347 41.4156C166.744 41.1762 167.089 40.8836 167.46 40.5644C167.804 40.2452 168.149 39.8728 168.493 39.4738L173.078 42.7456C172.548 43.4638 171.991 44.1288 171.355 44.7406C170.746 45.3524 170.03 45.8844 169.235 46.31C168.44 46.7622 167.566 47.108 166.585 47.3474C165.605 47.64 164.518 47.7464 163.299 47.7464Z" fill="#0078E7"/>
<path d="M186.725 47.7464C185.029 47.7464 183.466 47.4538 182.008 46.842C180.551 46.2302 179.305 45.4322 178.272 44.3948C177.212 43.3574 176.39 42.1604 175.807 40.7772C175.198 39.394 174.906 37.9044 174.906 36.335V36.2818C174.906 34.7124 175.198 33.2228 175.807 31.813C176.417 30.4032 177.238 29.1796 178.298 28.1422C179.358 27.1048 180.63 26.2802 182.061 25.6684C183.519 25.0566 185.082 24.764 186.778 24.764C188.474 24.764 190.038 25.0566 191.495 25.6684C192.953 26.2802 194.198 27.0782 195.232 28.1156C196.292 29.153 197.113 30.35 197.696 31.7332C198.306 33.1164 198.597 34.606 198.597 36.1754V36.2286C198.597 37.798 198.306 39.2876 197.696 40.6974C197.087 42.1072 196.265 43.3042 195.205 44.3682C194.145 45.4056 192.873 46.2302 191.442 46.842C190.011 47.4538 188.421 47.7464 186.725 47.7464ZM186.778 42.2402C187.626 42.2402 188.395 42.0806 189.084 41.7614C189.773 41.4422 190.356 41.0166 190.859 40.4846C191.336 39.9526 191.734 39.3142 191.999 38.596C192.264 37.8778 192.396 37.133 192.396 36.335V36.2818C192.396 35.4838 192.264 34.7124 191.999 34.0208C191.734 33.3026 191.336 32.6642 190.833 32.1322C190.329 31.5736 189.72 31.148 189.031 30.8288C188.342 30.5096 187.573 30.35 186.725 30.35C185.877 30.35 185.109 30.5096 184.446 30.8288C183.757 31.148 183.174 31.5736 182.671 32.1056C182.167 32.6376 181.796 33.276 181.531 33.9942C181.266 34.7124 181.134 35.4572 181.134 36.2552V36.3084C181.134 37.1064 181.266 37.8778 181.531 38.5694C181.796 39.2876 182.194 39.926 182.671 40.458C183.174 41.0166 183.757 41.4422 184.446 41.7614C185.162 42.0806 185.93 42.2402 186.778 42.2402Z" fill="#0078E7"/>
<path d="M201.91 25.2162H208.031V47.3208H201.91V25.2162Z" fill="#0078E7"/>
<path d="M212.086 25.2162H217.783L226.873 36.8936V25.2162H232.888V47.3208H227.535L218.101 35.1912V47.3208H212.086V25.2162V25.2162Z" fill="#0078E7"/>
<defs>
<linearGradient id="paint0_linear" x1="10.1347" y1="40.7008" x2="28.7514" y2="40.7008" gradientUnits="userSpaceOnUse">
<stop stop-color="#A3E8ED"/>
<stop offset="0.0001" stop-color="#8FC0ED"/>
<stop offset="1" stop-color="#0078E7"/>
</linearGradient>
<linearGradient id="paint1_linear" x1="0.136175" y1="37" x2="60.311" y2="37" gradientUnits="userSpaceOnUse">
<stop stop-color="#0071D9"/>
<stop offset="0.0001" stop-color="#8DBCE9"/>
<stop offset="1" stop-color="#0078E7"/>
<stop offset="1" stop-color="#4CC7D9"/>
</linearGradient>
</defs>
</svg>
