<svg width="80" height="80" viewBox="0 0 80 80" fill="none" xmlns="http://www.w3.org/2000/svg">
<path d="M58.7507 77.5H8.63887C7.15293 77.5 5.94824 76.2953 5.94824 74.8094V5.19063C5.94824 3.70469 7.15293 2.5 8.63887 2.5H58.7511C60.237 2.5 61.4417 3.70469 61.4417 5.19063V74.8094C61.4414 76.2953 60.2367 77.5 58.7507 77.5Z" fill="#E0EBFC"/>
<path d="M58.7509 78.125H8.63904C6.81092 78.125 5.32373 76.6375 5.32373 74.8094V5.19063C5.32342 3.3625 6.81092 1.875 8.63904 1.875H58.7509C60.5794 1.875 62.0665 3.3625 62.0665 5.19063V74.8094C62.0665 76.6375 60.5794 78.125 58.7509 78.125ZM8.63904 3.125C7.49998 3.125 6.57373 4.05188 6.57373 5.19063V74.8094C6.57373 75.9484 7.50029 76.875 8.63904 76.875H58.7509C59.89 76.875 60.8165 75.9481 60.8165 74.8094V5.19063C60.8165 4.05156 59.8897 3.125 58.7509 3.125H8.63904Z" fill="#3762CC"/>
<path d="M52.6294 54.4609H14.7606C13.9263 54.4609 13.25 53.7847 13.25 52.9503V52.8466C13.25 52.0122 13.9263 51.3359 14.7606 51.3359H52.6294C53.4637 51.3359 54.14 52.0122 54.14 52.8466V52.9503C54.14 53.7847 53.4634 54.4609 52.6294 54.4609Z" fill="#A4C9FF"/>
<path d="M52.6294 61.9609H14.7606C13.9263 61.9609 13.25 61.2847 13.25 60.4503V60.3466C13.25 59.5122 13.9263 58.8359 14.7606 58.8359H52.6294C53.4637 58.8359 54.14 59.5122 54.14 60.3466V60.4503C54.14 61.2847 53.4634 61.9609 52.6294 61.9609Z" fill="#A4C9FF"/>
<path d="M52.6294 69.4609H14.7606C13.9263 69.4609 13.25 68.7847 13.25 67.9503V67.8466C13.25 67.0122 13.9263 66.3359 14.7606 66.3359H52.6294C53.4637 66.3359 54.14 67.0122 54.14 67.8466V67.9503C54.14 68.7847 53.4634 69.4609 52.6294 69.4609Z" fill="#A4C9FF"/>
<path d="M44.6349 33.7235V26.2995C44.6349 26.2835 44.6371 26.2679 44.6374 26.252H43.3602C42.3571 26.252 41.5439 27.0651 41.5439 28.0682V32.0035C41.5439 33.0066 42.3571 33.8198 43.3602 33.8198H44.6399C44.6383 33.7879 44.6349 33.756 44.6349 33.7235Z" fill="#A4C9FF"/>
<path d="M44.6394 34.4454H43.36C42.0138 34.4454 40.9185 33.3501 40.9185 32.0038V28.0685C40.9185 26.7223 42.0138 25.627 43.36 25.627H44.6369C44.8047 25.627 44.9656 25.6945 45.0831 25.8145C45.2006 25.9341 45.265 26.096 45.2619 26.2638C45.2616 26.2751 45.2597 26.3082 45.2591 26.3191L45.2641 33.7963C45.2706 33.966 45.2075 34.131 45.0894 34.2535C44.9716 34.376 44.8094 34.4454 44.6394 34.4454ZM45.2594 33.7238H45.2625H45.2594ZM43.36 26.8773C42.7028 26.8773 42.1685 27.4116 42.1685 28.0688V32.0041C42.1685 32.6613 42.7028 33.1957 43.36 33.1957H44.0094V26.8773H43.36Z" fill="#3762CC"/>
<path d="M56.5879 24.0753V30.0109V35.9469L63.4579 40.8503V30.0109V19.1719L56.5879 24.0753Z" fill="#E0EBFC"/>
<path d="M64.6436 42.2168C63.9886 42.2168 63.458 41.6858 63.458 41.0312V19.043C63.458 18.388 63.9889 17.8574 64.6436 17.8574C65.2986 17.8574 65.8293 18.3884 65.8293 19.043V41.0312C65.8296 41.6858 65.2986 42.2168 64.6436 42.2168Z" fill="#A4C9FF"/>
<path d="M63.4576 41.4752C63.3298 41.4752 63.2026 41.4361 63.0945 41.3589L56.2248 36.4558C56.0607 36.3386 55.9629 36.1492 55.9629 35.947V24.0752C55.9629 23.8733 56.0607 23.6836 56.2248 23.5664L63.0945 18.663C63.2854 18.527 63.536 18.5092 63.7435 18.6161C63.9516 18.7233 64.0826 18.9377 64.0826 19.1717V40.8502C64.0826 41.0842 63.9516 41.2989 63.7435 41.4058C63.6535 41.452 63.5554 41.4752 63.4576 41.4752ZM57.2129 35.6252L62.8326 39.6361V20.3855L57.2129 24.3967V35.6252Z" fill="#3762CC"/>
<path d="M64.6435 42.8418C63.645 42.8418 62.8325 42.0293 62.8325 41.0312V19.043C62.8325 18.0449 63.645 17.2324 64.6435 17.2324C65.6416 17.2324 66.4541 18.0449 66.4541 19.043V41.0312C66.4541 42.0293 65.6419 42.8418 64.6435 42.8418ZM64.6435 18.4824C64.3344 18.4824 64.0825 18.734 64.0825 19.043V41.0312C64.0825 41.3402 64.3344 41.5918 64.6435 41.5918C64.9525 41.5918 65.2041 41.3402 65.2041 41.0312V19.043C65.2041 18.7337 64.9528 18.4824 64.6435 18.4824Z" fill="#3762CC"/>
<path d="M56.5877 35.9477V30.0118V24.0762H46.858C45.6299 24.0762 44.6343 25.0718 44.6343 26.2999V33.724C44.6343 34.9521 45.6299 35.9477 46.858 35.9477H56.5877Z" fill="#4671C6"/>
<path d="M56.5879 36.5727H46.8585C45.2879 36.5727 44.0098 35.2946 44.0098 33.724V26.2999C44.0098 24.7293 45.2879 23.4512 46.8585 23.4512H56.5882C56.7538 23.4512 56.9129 23.5171 57.0301 23.6343C57.1473 23.7515 57.2132 23.9105 57.2132 24.0762L57.2129 35.9477C57.2129 36.293 56.9332 36.5727 56.5879 36.5727ZM46.8585 24.7012C45.977 24.7012 45.2598 25.4184 45.2598 26.2999V33.724C45.2598 34.6055 45.977 35.3227 46.8585 35.3227H55.9629V24.7012H46.8585Z" fill="#3762CC"/>
<path d="M48.2246 35.9473V44.8773C48.2246 46.3279 49.4006 47.5041 50.8512 47.5041H51.6768C53.1274 47.5041 54.3034 46.3282 54.3034 44.8773V35.9473H48.2246Z" fill="#A4C9FF"/>
<path d="M51.6768 48.1288H50.8512C49.0584 48.1288 47.5996 46.6701 47.5996 44.8773V35.9473C47.5996 35.6023 47.8796 35.3223 48.2246 35.3223H54.3034C54.6484 35.3223 54.9284 35.6023 54.9284 35.9473V44.877C54.9287 46.6701 53.4699 48.1288 51.6768 48.1288ZM48.8496 36.5723V44.877C48.8496 45.9807 49.7474 46.8785 50.8512 46.8785H51.6768C52.7806 46.8785 53.6784 45.9807 53.6784 44.877V36.5723H48.8496Z" fill="#3762CC"/>
<path d="M35.0681 45.1852H15.2678C14.1534 45.1852 13.25 44.2818 13.25 43.1674V27.7112C13.25 26.5968 14.1534 25.6934 15.2678 25.6934H35.0681C36.1825 25.6934 37.0859 26.5968 37.0859 27.7112V43.1674C37.0859 44.2818 36.1825 45.1852 35.0681 45.1852Z" fill="#6BDDDD"/>
<path d="M15.8809 10.0978L19.8031 16.0325V10.0428C19.8031 9.65375 19.8866 9.36156 20.0538 9.16687C20.2206 8.9725 20.4463 8.875 20.7303 8.875C21.0234 8.875 21.2547 8.97219 21.4241 9.16687C21.5934 9.36156 21.6781 9.65375 21.6781 10.0428V17.9625C21.6781 18.8462 21.3119 19.2878 20.5791 19.2878C20.3959 19.2878 20.2309 19.2616 20.0847 19.2091C19.9381 19.1562 19.8006 19.0728 19.6725 18.9581C19.5444 18.8437 19.4253 18.7097 19.3153 18.5562C19.2056 18.4028 19.0956 18.2459 18.9856 18.0856L15.1597 12.22V18.1203C15.1597 18.5053 15.0703 18.7959 14.8916 18.9928C14.7131 19.1897 14.4841 19.2878 14.2047 19.2878C13.9159 19.2878 13.6847 19.1884 13.5109 18.9891C13.3369 18.79 13.25 18.5003 13.25 18.12V10.3519C13.25 10.0219 13.2866 9.76344 13.3597 9.57563C13.4469 9.36938 13.5909 9.20125 13.7925 9.07063C13.9941 8.94031 14.2113 8.875 14.445 8.875C14.6281 8.875 14.785 8.90469 14.9156 8.96438C15.0459 9.02406 15.1603 9.10406 15.2591 9.20469C15.3575 9.30563 15.4581 9.43594 15.5613 9.59625C15.6644 9.75656 15.7709 9.92375 15.8809 10.0978Z" fill="#4671C6"/>
<path d="M30.5456 10.62H25.9503V13.0928H30.1816C30.4928 13.0928 30.7253 13.1625 30.8788 13.3022C31.0322 13.4419 31.1091 13.6259 31.1091 13.855C31.1091 14.0841 31.0335 14.2706 30.8825 14.4147C30.7316 14.5588 30.4978 14.6309 30.1819 14.6309H25.9503V17.495H30.7035C31.0241 17.495 31.2656 17.5697 31.4281 17.7181C31.5906 17.8672 31.6719 18.0653 31.6719 18.3122C31.6719 18.5503 31.5906 18.7441 31.4281 18.8928C31.2656 19.0419 31.0238 19.1159 30.7035 19.1159H25.1606C24.7163 19.1159 24.3969 19.0175 24.2025 18.8206C24.0078 18.6238 23.9106 18.3056 23.9106 17.8659V10.2972C23.9106 10.0041 23.9541 9.76469 24.0413 9.57938C24.1281 9.39406 24.2644 9.25875 24.45 9.17406C24.6353 9.08938 24.8725 9.04688 25.161 9.04688H30.546C30.871 9.04688 31.1125 9.11906 31.2706 9.26344C31.4288 9.40781 31.5075 9.59625 31.5075 9.83C31.5075 10.0681 31.4288 10.2594 31.2706 10.4037C31.1125 10.5478 30.8706 10.62 30.5456 10.62Z" fill="#4671C6"/>
<path d="M40.4228 17.5303L38.7947 11.4925L37.1463 17.5303C37.0181 17.9881 36.916 18.3166 36.8406 18.5159C36.7653 18.715 36.6335 18.8937 36.4456 19.0516C36.2578 19.2097 36.0081 19.2884 35.6969 19.2884C35.445 19.2884 35.2378 19.2416 35.0753 19.1478C34.9128 19.0538 34.781 18.9213 34.6803 18.7494C34.5797 18.5778 34.4972 18.3737 34.4331 18.1381C34.3691 17.9022 34.3119 17.6838 34.2613 17.4822L32.5853 10.7028C32.4844 10.3087 32.4341 10.0091 32.4341 9.80281C32.4341 9.54156 32.5256 9.32219 32.7088 9.14312C32.8919 8.96469 33.1185 8.87531 33.3888 8.87531C33.7597 8.87531 34.0091 8.99437 34.1375 9.2325C34.2656 9.47062 34.3778 9.81625 34.4741 10.2694L35.7928 16.1491L37.2697 10.6472C37.3794 10.2259 37.4781 9.90531 37.565 9.68531C37.6519 9.46563 37.7941 9.27562 37.991 9.11531C38.1878 8.955 38.4556 8.875 38.7947 8.875C39.1381 8.875 39.405 8.95875 39.595 9.12563C39.785 9.29313 39.9166 9.475 39.9897 9.67187C40.0628 9.86875 40.1616 10.1938 40.285 10.6472L41.7756 16.1491L43.0944 10.2694C43.1585 9.96281 43.2191 9.72219 43.2766 9.54812C43.3338 9.37437 43.4322 9.21844 43.5719 9.08125C43.7116 8.94406 43.9144 8.875 44.18 8.875C44.4453 8.875 44.671 8.96312 44.8566 9.13937C45.0419 9.31562 45.1347 9.53656 45.1347 9.80219C45.1347 9.99 45.0844 10.29 44.9838 10.7022L43.3078 17.4816C43.1931 17.9394 43.0985 18.2747 43.0228 18.4875C42.9472 18.7006 42.8191 18.8872 42.6381 19.0472C42.4572 19.2075 42.2019 19.2875 41.8722 19.2875C41.561 19.2875 41.3113 19.2097 41.1235 19.0541C40.9356 18.8984 40.805 18.7234 40.7319 18.5287C40.6585 18.335 40.5553 18.0022 40.4228 17.5303Z" fill="#4671C6"/>
<path d="M54.1397 16.0944C54.1397 16.7034 53.9828 17.2506 53.6691 17.7359C53.3553 18.2216 52.8963 18.6016 52.2919 18.8763C51.6875 19.1509 50.9706 19.2881 50.1419 19.2881C49.1481 19.2881 48.3285 19.1006 47.6828 18.725C47.2247 18.4547 46.8528 18.0941 46.5666 17.6431C46.2803 17.1922 46.1372 16.7534 46.1372 16.3275C46.1372 16.0803 46.2231 15.8684 46.3947 15.6922C46.5666 15.5159 46.785 15.4278 47.0506 15.4278C47.2656 15.4278 47.4478 15.4962 47.5966 15.6337C47.7453 15.7712 47.8725 15.975 47.9778 16.2453C48.106 16.5659 48.2444 16.8337 48.3935 17.0487C48.5422 17.2644 48.7516 17.4416 49.0219 17.5813C49.2919 17.7209 49.6469 17.7906 50.0866 17.7906C50.6913 17.7906 51.1822 17.65 51.56 17.3681C51.9378 17.0866 52.1266 16.735 52.1266 16.3138C52.1266 15.9797 52.0247 15.7084 51.821 15.5C51.6172 15.2916 51.3538 15.1325 51.0313 15.0225C50.7085 14.9125 50.2766 14.7959 49.7366 14.6722C49.0128 14.5028 48.4075 14.3047 47.9197 14.0781C47.4319 13.8513 47.045 13.5425 46.7591 13.1509C46.4728 12.7594 46.3297 12.2728 46.3297 11.6913C46.3297 11.1372 46.481 10.645 46.7831 10.2147C47.0853 9.78406 47.5225 9.45313 48.095 9.22188C48.6675 8.99094 49.3403 8.875 50.1144 8.875C50.7325 8.875 51.2672 8.95187 51.7181 9.10531C52.1691 9.25875 52.5435 9.46219 52.8413 9.71656C53.1391 9.97063 53.3566 10.2378 53.4938 10.5169C53.631 10.7963 53.6997 11.0691 53.6997 11.3344C53.6997 11.5769 53.6138 11.7956 53.4422 11.9903C53.2703 12.1847 53.0563 12.2822 52.8 12.2822C52.5666 12.2822 52.3891 12.2237 52.2678 12.1069C52.1463 11.9903 52.0147 11.7991 51.8728 11.5331C51.6897 11.1531 51.4697 10.8569 51.2135 10.6437C50.9569 10.4309 50.5447 10.3244 49.9772 10.3244C49.4506 10.3244 49.026 10.44 48.7031 10.6716C48.3803 10.9031 48.2188 11.1809 48.2188 11.5059C48.2188 11.7075 48.2738 11.8816 48.3835 12.0278C48.4935 12.1747 48.6444 12.3006 48.8369 12.4059C49.0291 12.5113 49.2238 12.5934 49.4206 12.6531C49.6175 12.7125 49.9425 12.7997 50.396 12.9141C50.9638 13.0469 51.4778 13.1934 51.9378 13.3538C52.3981 13.5141 52.7897 13.7088 53.1125 13.9375C53.4353 14.1666 53.6872 14.4562 53.8681 14.8066C54.0491 15.1569 54.1397 15.5859 54.1397 16.0944Z" fill="#4671C6"/>
<path d="M74.186 31.3291H69.7969C69.191 31.3291 68.6997 30.8379 68.6997 30.232C68.6997 29.626 69.191 29.1348 69.7969 29.1348H74.186C74.7919 29.1348 75.2831 29.626 75.2831 30.232C75.2835 30.8379 74.7922 31.3291 74.186 31.3291Z" fill="#F9A7A7"/>
<path d="M74.3188 20.0334L71.215 23.1371C70.7866 23.5655 70.0919 23.5655 69.6631 23.1371C69.2347 22.7087 69.2347 22.014 69.6631 21.5852L72.7669 18.4815C73.1953 18.053 73.89 18.053 74.3188 18.4815C74.7475 18.9102 74.7475 19.6049 74.3188 20.0334Z" fill="#F9A7A7"/>
<path d="M69.6636 38.4377L72.7674 41.5414C73.1958 41.9698 73.8905 41.9698 74.3192 41.5414C74.7477 41.113 74.7477 40.4183 74.3192 39.9895L71.2155 36.8858C70.787 36.4573 70.0924 36.4573 69.6636 36.8858C69.2352 37.3142 69.2352 38.0092 69.6636 38.4377Z" fill="#F9A7A7"/>
</svg>
