<svg width="80" height="80" viewBox="0 0 80 80" fill="none" xmlns="http://www.w3.org/2000/svg">
<path d="M0.78125 10.3633L0 12.3395V54.2255C0 55.9514 1.39906 57.3505 3.125 57.3505H76.875C78.6009 57.3505 80 55.9514 80 54.2255V12.3395L79.2188 10.3633H0.78125Z" fill="#E4F6FF"/>
<path d="M75.1547 10.3633V51.2372C75.1547 51.9375 74.587 52.5052 73.8867 52.5052H0V54.1945C0 55.9375 1.41297 57.3505 3.15594 57.3505H76.8441C78.587 57.3505 80 55.9375 80 54.1945V12.3395L79.2188 10.3633H75.1547Z" fill="#CBE2FF"/>
<path d="M67.0901 32.9509C66.1551 32.6205 65.1222 32.2222 64.5515 31.7745C64.409 31.6628 64.3482 31.3792 64.4035 31.0852C64.4326 30.9309 64.5707 30.4248 65.0868 30.2589C66.0401 29.9523 66.6688 30.3919 66.8202 30.487C66.941 30.5631 67.1388 30.6639 67.1501 30.6756C68.3646 31.3241 69.4974 29.6944 68.4665 28.7819C68.139 28.4797 67.5416 28.1111 66.7655 27.9212V27.6053C66.7655 26.9517 66.2357 26.4219 65.5821 26.4219C64.9285 26.4219 64.3987 26.9517 64.3987 27.6053V27.9944C63.2071 28.3556 62.3179 29.3714 62.0776 30.6467C61.8552 31.8266 62.2435 32.9723 63.0907 33.6369C63.9287 34.2941 65.129 34.7681 66.3013 35.1825C67.2252 35.5091 67.2526 36.2166 67.1865 36.6092C67.0763 37.2648 66.5248 37.9733 65.5743 37.9797C64.5816 37.9875 64.2987 37.9414 63.5493 37.4512C62.9604 37.0659 62.1555 37.2731 61.8358 37.9259C61.5683 38.472 61.7854 39.1292 62.296 39.4595C63.0901 39.9733 63.6923 40.1997 64.3987 40.2913V40.6448C64.3987 41.2984 64.9285 41.8283 65.5821 41.8283C66.2357 41.8283 66.7655 41.2984 66.7655 40.6448V40.1691C68.3088 39.6942 69.2958 38.3387 69.5207 37.0016C69.8237 35.1998 68.8468 33.572 67.0901 32.9509Z" fill="#A1C3E8"/>
<path d="M9.93031 46.5633C9.03203 45.5764 8.48438 44.2647 8.48438 42.8251V22.6292C8.48438 19.5612 10.9714 17.0742 14.0394 17.0742H34.2353C37.3033 17.0742 39.7903 19.5612 39.7903 22.6292V42.8251C39.7903 44.2645 39.243 45.5759 38.345 46.5626C38.3406 46.5675 9.93453 46.5679 9.93031 46.5633Z" fill="#80B4FB"/>
<path d="M76.8441 1.28906H3.15594C1.41297 1.28906 0 2.70203 0 4.445V12.3398H80V4.445C80 2.70203 78.587 1.28906 76.8441 1.28906Z" fill="#407093"/>
<path d="M60.9334 8.35109C61.7822 8.35109 62.4702 7.66301 62.4702 6.81422C62.4702 5.96543 61.7822 5.27734 60.9334 5.27734C60.0846 5.27734 59.3965 5.96543 59.3965 6.81422C59.3965 7.66301 60.0846 8.35109 60.9334 8.35109Z" fill="#9DC6FB"/>
<path d="M66.658 8.35109C67.5068 8.35109 68.1949 7.66301 68.1949 6.81422C68.1949 5.96543 67.5068 5.27734 66.658 5.27734C65.8092 5.27734 65.1211 5.96543 65.1211 6.81422C65.1211 7.66301 65.8092 8.35109 66.658 8.35109Z" fill="#9DC6FB"/>
<path d="M72.3826 8.35109C73.2314 8.35109 73.9195 7.66301 73.9195 6.81422C73.9195 5.96543 73.2314 5.27734 72.3826 5.27734C71.5338 5.27734 70.8457 5.96543 70.8457 6.81422C70.8457 7.66301 71.5338 8.35109 72.3826 8.35109Z" fill="#9DC6FB"/>
<path d="M76.8437 1.28906H75.1543V12.3398H79.9996V4.445C79.9996 2.70203 78.5866 1.28906 76.8437 1.28906Z" fill="#365E7D"/>
<path d="M59.4055 22.4177H45.5291C44.8755 22.4177 44.3457 21.8878 44.3457 21.2342C44.3457 20.5806 44.8755 20.0508 45.5291 20.0508H59.4055C60.0591 20.0508 60.589 20.5806 60.589 21.2342C60.589 21.8878 60.0591 22.4177 59.4055 22.4177Z" fill="#A1C3E8"/>
<path d="M69.4969 22.4177H63.8788C63.2252 22.4177 62.6953 21.8878 62.6953 21.2342C62.6953 20.5806 63.2252 20.0508 63.8788 20.0508H69.4969C70.1505 20.0508 70.6803 20.5806 70.6803 21.2342C70.6803 21.8878 70.1505 22.4177 69.4969 22.4177Z" fill="#A1C3E8"/>
<path d="M56.4346 27.5231H45.5291C44.8755 27.5231 44.3457 26.9933 44.3457 26.3397C44.3457 25.6861 44.8755 25.1562 45.5291 25.1562H56.4346C57.0882 25.1562 57.618 25.6861 57.618 26.3397C57.618 26.9933 57.0882 27.5231 56.4346 27.5231Z" fill="#A1C3E8"/>
<path d="M56.4346 32.6247H45.5291C44.8755 32.6247 44.3457 32.0948 44.3457 31.4413C44.3457 30.7877 44.8755 30.2578 45.5291 30.2578H56.4346C57.0882 30.2578 57.618 30.7877 57.618 31.4413C57.618 32.0948 57.0882 32.6247 56.4346 32.6247Z" fill="#A1C3E8"/>
<path d="M69.5537 57.0528L48.9005 77.7061C47.558 79.0486 45.3816 79.0486 44.0391 77.7061L31.2412 64.9083C29.8988 63.5658 29.8988 61.3894 31.2412 60.0469L51.8945 39.3936C53.237 38.0511 55.4134 38.0511 56.7559 39.3936L69.5537 52.1914C70.8961 53.5339 70.8961 55.7105 69.5537 57.0528Z" fill="#DD636E"/>
<path d="M69.5534 52.1914L56.7556 39.3936C55.4133 38.0511 53.2367 38.0511 51.8942 39.3936L50.5116 40.7763L63.1062 53.3709C63.7973 54.062 63.7973 55.1823 63.1062 55.8734L42.6562 76.3234L44.0389 77.7061C45.3814 79.0486 47.5578 79.0486 48.9003 77.7061L69.5536 57.0528C70.8958 55.7103 70.8958 53.5337 69.5534 52.1914Z" fill="#DA4A54"/>
<path d="M46.2072 62.5482L42.0578 66.6976C41.4477 67.3078 40.4583 67.3078 39.8482 66.6976L36.6979 63.5471C36.0877 62.937 36.0877 61.9476 36.6979 61.3375L40.8472 57.1881C41.4574 56.5779 42.4467 56.5779 43.0569 57.1881L46.2072 60.3385C46.8174 60.9487 46.8174 61.9379 46.2072 62.5482Z" fill="#FFE07D"/>
<path d="M46.2075 60.3385L43.057 57.1881C42.4469 56.5779 41.4575 56.5779 40.8473 57.1881L39.9481 58.0873L42.1994 60.3385C42.8095 60.9487 42.8095 61.9381 42.1994 62.5482L38.9492 65.7984L39.8484 66.6976C40.4586 67.3078 41.448 67.3078 42.0581 66.6976L46.2075 62.5482C46.8177 61.9381 46.8177 60.9489 46.2075 60.3385Z" fill="#FFD064"/>
<path d="M44.9042 72.3355C44.6014 72.3355 44.2984 72.22 44.0673 71.9887C43.6052 71.5266 43.6052 70.7773 44.0673 70.315L46.3012 68.0811C46.7634 67.6189 47.5128 67.6187 47.9748 68.0811C48.437 68.5433 48.437 69.2925 47.9748 69.7547L45.7409 71.9886C45.51 72.22 45.2072 72.3355 44.9042 72.3355Z" fill="#F9EAD2"/>
<path d="M50.207 67.0307C49.9041 67.0307 49.6012 66.9152 49.3701 66.684C48.9079 66.2218 48.9079 65.4724 49.3701 65.0102L51.604 62.7763C52.0662 62.3141 52.8155 62.3141 53.2777 62.7763C53.7399 63.2385 53.7399 63.9879 53.2777 64.4501L51.0438 66.684C50.8127 66.9151 50.5098 67.0307 50.207 67.0307Z" fill="#F9EAD2"/>
<path d="M55.5116 61.7299C55.2088 61.7299 54.9059 61.6143 54.6748 61.3832C54.2126 60.921 54.2126 60.1716 54.6748 59.7095L56.9087 57.4755C57.3709 57.0134 58.1202 57.0134 58.5824 57.4755C59.0446 57.9377 59.0446 58.6871 58.5824 59.1493L56.3485 61.3832C56.1174 61.6145 55.8144 61.7299 55.5116 61.7299Z" fill="#F9EAD2"/>
<path d="M60.8144 56.4253C60.5116 56.4253 60.2086 56.3098 59.9775 56.0786C59.5153 55.6164 59.5153 54.8672 59.9775 54.4048L62.2114 52.1709C62.6736 51.7087 63.423 51.7086 63.885 52.1709C64.3472 52.6331 64.3472 53.3823 63.885 53.8445L61.6511 56.0784C61.4202 56.3097 61.1172 56.4253 60.8144 56.4253Z" fill="#F9EAD2"/>
<path d="M62.2111 52.1708L62.0586 52.3233L63.1073 53.372C63.3353 53.6 63.4864 53.8748 63.5639 54.1653L63.8847 53.8445C64.3469 53.3823 64.3469 52.633 63.8847 52.1708C63.4227 51.7086 62.6733 51.7088 62.2111 52.1708Z" fill="#FFD064"/>
<path d="M52.8144 48.4253C52.5116 48.4253 52.2086 48.3098 51.9775 48.0786C51.5153 47.6164 51.5153 46.867 51.9775 46.4048L54.2114 44.1709C54.6736 43.7087 55.423 43.7086 55.8851 44.1709C56.3473 44.6331 56.3473 45.3825 55.8851 45.8447L53.6512 48.0786C53.4202 48.3097 53.1172 48.4253 52.8144 48.4253Z" fill="#F9EAD2"/>
<path d="M54.0605 44.3233L55.7341 45.997L55.8866 45.8445C56.3488 45.3823 56.3488 44.6331 55.8866 44.1709C55.4244 43.7086 54.6751 43.7087 54.213 44.1709L54.0605 44.3233Z" fill="#FFD064"/>
<path d="M38.1094 59.9141L39.7664 58.257L45.1235 63.6141L43.4664 65.2711L38.1094 59.9141Z" fill="#EBB044"/>
<path d="M35.7497 17.2852C35.8856 17.7664 35.96 18.2734 35.96 18.7983V41.7081C35.96 43.2772 34.688 44.5492 33.1189 44.5492H10.2091C9.68422 44.5492 9.17672 44.4753 8.69531 44.3392C8.93234 45.1781 9.36078 45.9367 9.93156 46.5639C9.93578 46.5686 38.3419 46.568 38.3463 46.5633C39.2442 45.5766 39.7916 44.265 39.7916 42.8258V22.6298C39.7916 20.0867 38.0819 17.9442 35.7497 17.2852Z" fill="#7398D3"/>
<path d="M29.6596 40.1602C28.8796 40.052 28.306 39.3722 28.306 38.5849V38.1405C28.306 38.0524 28.3774 37.9809 28.4654 37.9809H34.6857C34.9677 37.9809 35.1279 37.658 34.9571 37.4336L34.1727 36.4027C32.9012 34.7313 32.2126 32.6891 32.2126 30.5889V29.9016C32.2126 25.4536 28.6066 21.8477 24.1587 21.8477C19.7105 21.8477 16.1048 25.4536 16.1048 29.9016V30.2667C16.1048 32.3669 15.4162 34.4089 14.1446 36.0803L13.1151 37.4336C12.9443 37.6581 13.1045 37.9809 13.3865 37.9809H19.6068C19.6948 37.9809 19.7662 38.0524 19.7662 38.1405V38.6147C19.7662 39.3927 19.206 40.0669 18.4373 40.1861C14.6613 40.7716 11.5038 43.2216 9.93164 46.565C9.93586 46.5697 9.93992 46.5747 9.9443 46.5794C10.9598 47.6874 12.419 48.3822 14.0405 48.3822H34.2363C35.858 48.3822 37.3176 47.6872 38.333 46.5788C38.3373 46.5741 38.3413 46.5691 38.3455 46.5644C36.7484 43.1683 33.5148 40.6944 29.6596 40.1602Z" fill="#E4F6FF"/>
<path d="M35.667 42.957C35.2041 43.8984 34.2385 44.5478 33.1187 44.5478H11.1504C10.678 45.1722 10.2682 45.8466 9.93164 46.5622C9.93586 46.5669 9.93992 46.5719 9.9443 46.5766C10.9598 47.6845 12.419 48.3794 14.0405 48.3794H34.2363C35.858 48.3794 37.3176 47.6844 38.333 46.5759C38.3373 46.5713 38.3413 46.5663 38.3455 46.5616C37.6988 45.1863 36.7834 43.9623 35.667 42.957Z" fill="#CBE2FF"/>
</svg>
