<svg width="80" height="80" viewBox="0 0 80 80" fill="none" xmlns="http://www.w3.org/2000/svg">
<g clip-path="url(#clip0_953:700)">
<path d="M53.6845 4.83798C50.8256 1.71813 46.8473 0 42.4827 0L14.5889 0.00015625C13.3738 0.00015625 12.36 0.928908 12.2543 2.13954L7.12955 60.7159C7.07221 61.3704 7.29237 62.0192 7.73643 62.5036C8.18034 62.9879 8.80737 63.2639 9.4644 63.2639H26.2005C27.4158 63.2639 28.4296 62.3351 28.5354 61.1245L30.5444 38.1598H39.5541C48.4289 38.1598 56.2801 30.9433 57.0561 22.0735L57.5443 16.4947C57.9275 12.1122 56.5568 7.9722 53.6845 4.83798Z" fill="#0065A3"/>
<path d="M68.9571 21.5748C66.098 18.4546 62.1197 16.7363 57.7549 16.7363L29.8611 16.7365C28.6459 16.7365 27.6322 17.6652 27.5264 18.8759L22.4015 77.4524C22.3442 78.1069 22.5643 78.7557 23.0084 79.24C23.4523 79.7246 24.0793 80.0004 24.7364 80.0004H41.4727C42.688 80.0004 43.7016 79.0716 43.8074 77.861L45.8166 54.8962H54.8263C63.7008 54.8962 71.5521 47.6798 72.3282 38.81L72.8162 33.231C73.1999 28.8489 71.8293 24.7092 68.9571 21.5748Z" fill="#00AADF"/>
<path d="M28.5357 61.1249L30.5448 38.1601H39.5545C48.4292 38.1601 56.2805 30.9437 57.0564 22.0738L57.5234 16.7363L29.8612 16.7365C28.646 16.7365 27.6323 17.6652 27.5265 18.8759L23.6431 63.2642H26.2009C27.4162 63.2644 28.4298 62.3355 28.5357 61.1249Z" fill="#003E67"/>
</g>
<defs>
<clipPath id="clip0_953:700">
<rect width="80" height="80" fill="white"/>
</clipPath>
</defs>
</svg>
