<svg width="80" height="80" viewBox="0 0 80 80" fill="none" xmlns="http://www.w3.org/2000/svg">
<path d="M57.4219 72.1875H10.8594C9.47875 72.1875 8.35938 71.0681 8.35938 69.6875V5C8.35938 3.61937 9.47875 2.5 10.8594 2.5H57.4219C58.8025 2.5 59.9219 3.61937 59.9219 5V69.6875C59.9219 71.0681 58.8025 72.1875 57.4219 72.1875Z" fill="#E0EBFC"/>
<path d="M30.144 43.8281H17.019C15.9834 43.8281 15.144 42.9887 15.144 41.9531V28.8281C15.144 27.7925 15.9834 26.9531 17.019 26.9531H30.144C31.1797 26.9531 32.019 27.7925 32.019 28.8281V41.9531C32.019 42.9884 31.1794 43.8281 30.144 43.8281Z" fill="#4671C6"/>
<path d="M51.2622 18.4341H17.019C15.9834 18.4341 15.144 17.5947 15.144 16.5591V10.75C15.144 9.71438 15.9834 8.875 17.019 8.875H51.2625C52.2981 8.875 53.1375 9.71438 53.1375 10.75V16.5591C53.1372 17.5947 52.2978 18.4341 51.2622 18.4341Z" fill="#A4C9FF"/>
<path d="M51.6856 29.8745H35.5925C34.7906 29.8745 34.1406 29.2245 34.1406 28.4226C34.1406 27.6207 34.7906 26.9707 35.5925 26.9707H51.6856C52.4875 26.9707 53.1375 27.6207 53.1375 28.4226C53.1372 29.2245 52.4872 29.8745 51.6856 29.8745Z" fill="#A4C9FF"/>
<path d="M57.4219 72.8125H10.8594C9.13625 72.8125 7.73438 71.4106 7.73438 69.6875V5C7.73438 3.27688 9.13625 1.875 10.8594 1.875H57.4219C59.145 1.875 60.5469 3.27688 60.5469 5V69.6875C60.5469 71.4106 59.145 72.8125 57.4219 72.8125ZM10.8594 3.125C9.82531 3.125 8.98438 3.96594 8.98438 5V69.6875C8.98438 70.7216 9.82531 71.5625 10.8594 71.5625H57.4219C58.4559 71.5625 59.2969 70.7216 59.2969 69.6875V5C59.2969 3.96594 58.4559 3.125 57.4219 3.125H10.8594Z" fill="#3762CC"/>
<path d="M51.6856 36.8432H35.5925C34.7906 36.8432 34.1406 36.1932 34.1406 35.3913C34.1406 34.5895 34.7906 33.9395 35.5925 33.9395H51.6856C52.4875 33.9395 53.1375 34.5895 53.1375 35.3913C53.1372 36.1932 52.4872 36.8432 51.6856 36.8432Z" fill="#A4C9FF"/>
<path d="M51.6856 43.812H35.5925C34.7906 43.812 34.1406 43.162 34.1406 42.3601C34.1406 41.5582 34.7906 40.9082 35.5925 40.9082H51.6856C52.4875 40.9082 53.1375 41.5582 53.1375 42.3601C53.1372 43.162 52.4872 43.812 51.6856 43.812Z" fill="#A4C9FF"/>
<path d="M51.7337 50.7823H16.5475C15.7722 50.7823 15.144 50.1539 15.144 49.3789V49.2823C15.144 48.507 15.7725 47.8789 16.5475 47.8789H51.7337C52.509 47.8789 53.1372 48.5073 53.1372 49.2823V49.3789C53.1372 50.1539 52.509 50.7823 51.7337 50.7823Z" fill="#A4C9FF"/>
<path d="M51.7337 57.7491H16.5475C15.7722 57.7491 15.144 57.1207 15.144 56.3457V56.2491C15.144 55.4738 15.7725 54.8457 16.5475 54.8457H51.7337C52.509 54.8457 53.1372 55.4741 53.1372 56.2491V56.3457C53.1372 57.1207 52.509 57.7491 51.7337 57.7491Z" fill="#A4C9FF"/>
<path d="M51.7337 64.7179H16.5475C15.7722 64.7179 15.144 64.0895 15.144 63.3145V63.2179C15.144 62.4426 15.7725 61.8145 16.5475 61.8145H51.7337C52.509 61.8145 53.1372 62.4429 53.1372 63.2179V63.3145C53.1372 64.0895 52.509 64.7179 51.7337 64.7179Z" fill="#A4C9FF"/>
<path d="M56.7374 77.5002C64.9684 77.5002 71.6409 70.8277 71.6409 62.5968C71.6409 54.3659 64.9684 47.6934 56.7374 47.6934C48.5065 47.6934 41.834 54.3659 41.834 62.5968C41.834 70.8277 48.5065 77.5002 56.7374 77.5002Z" fill="#6BDDDD"/>
<path d="M56.7375 73.5267C62.7736 73.5267 67.6669 68.6335 67.6669 62.5973C67.6669 56.5612 62.7736 51.668 56.7375 51.668C50.7014 51.668 45.8081 56.5612 45.8081 62.5973C45.8081 68.6335 50.7014 73.5267 56.7375 73.5267Z" fill="#4671C6"/>
<path d="M56.7374 78.1252C48.1749 78.1252 41.209 71.1593 41.209 62.5968C41.209 54.0343 48.1749 47.0684 56.7374 47.0684C65.2999 47.0684 72.2659 54.0343 72.2659 62.5968C72.2659 71.1593 65.2999 78.1252 56.7374 78.1252ZM56.7374 48.318C48.8643 48.318 42.459 54.7234 42.459 62.5965C42.459 70.4696 48.864 76.8752 56.7374 76.8752C64.6109 76.8752 71.0159 70.4699 71.0159 62.5968C71.0159 54.7237 64.6105 48.318 56.7374 48.318Z" fill="#3762CC"/>
<path d="M54.2648 69.3531C54.2373 69.3531 54.2101 69.3528 54.1826 69.3518C53.3761 69.3274 52.6292 68.9484 52.1336 68.3115L48.4754 63.6128C47.9136 62.8912 48.0429 61.8506 48.7648 61.289C49.4861 60.7268 50.5276 60.8568 51.0886 61.5784L54.292 65.6934L62.4483 56.4162C63.052 55.729 64.0979 55.6621 64.7854 56.2659C65.472 56.8696 65.5395 57.9159 64.9355 58.6028L56.2905 68.4362C55.7758 69.0215 55.0411 69.3531 54.2648 69.3531Z" fill="#FFEA92"/>
<path d="M22.9149 40.7996C21.4474 40.578 20.3843 39.6693 20.2637 38.1843C20.2512 38.0296 20.3765 37.8977 20.5318 37.8977H21.6931C21.8256 37.8977 21.9356 37.9952 21.9578 38.1262C22.0456 38.6427 22.3043 39.0468 22.7537 39.2599C22.9331 39.3449 23.1409 39.2171 23.1409 39.0187V36.2143C23.1409 36.094 23.0609 35.989 22.9453 35.9562C21.6259 35.583 20.2524 35.0959 20.2524 33.0349C20.2524 31.393 21.3328 30.2415 22.9168 29.9952C23.0462 29.9752 23.1412 29.8624 23.1412 29.7315V28.9771C23.1412 28.829 23.2612 28.709 23.4093 28.709H23.7671C23.9153 28.709 24.0353 28.829 24.0353 28.9771V29.7152C24.0353 29.8462 24.1299 29.9596 24.2593 29.9793C25.6259 30.1855 26.5706 31.0368 26.7815 32.5002C26.8046 32.6612 26.6774 32.8052 26.5149 32.8052H25.3649C25.2365 32.8052 25.1299 32.7134 25.1018 32.588C25.0159 32.2024 24.7956 31.8527 24.4549 31.6293C24.2746 31.5112 24.0349 31.6355 24.0349 31.8512V34.548C24.0349 34.6693 24.1165 34.7752 24.2334 34.8071C25.5509 35.1655 26.9103 35.6396 26.9103 37.6993C26.9103 39.1265 25.974 40.5112 24.2593 40.7846C24.1299 40.8052 24.0353 40.9174 24.0353 41.0484V41.8034C24.0353 41.9515 23.9153 42.0715 23.7671 42.0715H23.4093C23.2612 42.0715 23.1412 41.9515 23.1412 41.8034V41.0646C23.1409 40.9318 23.0453 40.8193 22.9149 40.7996ZM23.1409 34.0915V31.733C23.1409 31.5515 22.9624 31.4171 22.7915 31.4771C22.2246 31.6762 21.8481 32.1587 21.8481 32.9427C21.8481 33.6684 22.214 34.0677 22.7521 34.3318C22.9312 34.4193 23.1409 34.2909 23.1409 34.0915ZM24.0353 36.6709V39.0262C24.0353 39.2209 24.2359 39.349 24.4143 39.2712C25.0021 39.0155 25.3284 38.4565 25.3284 37.7902C25.3284 37.0762 24.9615 36.6896 24.4224 36.4296C24.2434 36.3437 24.0353 36.4721 24.0353 36.6709Z" fill="#6BDDDD"/>
</svg>
