<svg width="80" height="80" viewBox="0 0 80 80" fill="none" xmlns="http://www.w3.org/2000/svg">
<path d="M57.8343 0H22.1647C19.1936 0 16.7617 2.42694 16.7617 5.40386V74.5991C16.7617 77.5701 19.1936 79.9971 22.1647 79.999H57.8333C60.8044 79.9971 63.2372 77.5711 63.2372 74.5991V5.40386C63.2382 2.42694 60.8054 0 57.8343 0ZM34.2936 3.89485H45.7082C46.0674 3.89485 46.3571 4.18745 46.3571 4.54856C46.3571 4.90868 46.0674 5.20324 45.7053 5.20324H34.2936C33.9335 5.20324 33.638 4.90868 33.638 4.54856C33.638 4.18745 33.9384 3.89485 34.2936 3.89485ZM40 77.3079C38.5105 77.3079 37.298 76.0963 37.298 74.6001C37.298 73.1116 38.5076 71.8942 40 71.8942C41.4924 71.8942 42.7058 73.1057 42.7058 74.6001C42.7058 76.0954 41.4894 77.3079 40 77.3079ZM59.4744 70.0045H20.5225V8.56965H59.4793L59.4744 70.0045Z" fill="#0065A3"/>
<path d="M40 55C35.9934 55 32.2265 53.4398 29.3934 50.6066C26.5602 47.7735 25 44.0066 25 40C25 35.9934 26.5603 32.2265 29.3934 29.3934C32.2264 26.5602 35.9934 25 40 25C44.0066 25 47.7735 26.5602 50.6066 29.3934C53.4398 32.2265 55 35.9934 55 40C55 44.0066 53.4397 47.7735 50.6066 50.6066C47.7736 53.4398 44.0066 55 40 55ZM40 26.875C32.7629 26.875 26.875 32.7629 26.875 40C26.875 47.2371 32.7629 53.125 40 53.125C47.2371 53.125 53.125 47.2371 53.125 40C53.125 32.7629 47.2371 26.875 40 26.875Z" fill="#0065A3"/>
<path d="M40 39.0625C38.7077 39.0625 37.6562 38.0111 37.6562 36.7188C37.6562 35.4264 38.7077 34.375 40 34.375C41.2923 34.375 42.3438 35.4264 42.3438 36.7188C42.3438 37.2365 42.7635 37.6562 43.2812 37.6562C43.799 37.6562 44.2188 37.2365 44.2188 36.7188C44.2188 34.7148 42.8138 33.0339 40.9375 32.6063V31.5625C40.9375 31.0448 40.5178 30.625 40 30.625C39.4822 30.625 39.0625 31.0448 39.0625 31.5625V32.6063C37.1862 33.0339 35.7812 34.7148 35.7812 36.7188C35.7812 39.045 37.6738 40.9375 40 40.9375C41.2923 40.9375 42.3438 41.9889 42.3438 43.2812C42.3438 44.5736 41.2923 45.625 40 45.625C38.7077 45.625 37.6562 44.5736 37.6562 43.2812C37.6562 42.7635 37.2365 42.3438 36.7188 42.3438C36.201 42.3438 35.7812 42.7635 35.7812 43.2812C35.7812 45.2852 37.1862 46.9661 39.0625 47.3937V48.4375C39.0625 48.9552 39.4822 49.375 40 49.375C40.5178 49.375 40.9375 48.9552 40.9375 48.4375V47.3937C42.8138 46.9661 44.2188 45.2852 44.2188 43.2812C44.2188 40.955 42.3262 39.0625 40 39.0625Z" fill="#0065A3"/>
</svg>
