<svg width="80" height="80" viewBox="0 0 80 80" fill="none" xmlns="http://www.w3.org/2000/svg">
<path fill-rule="evenodd" clip-rule="evenodd" d="M0 75.1849C0 77.8337 2.16578 79.9995 4.81437 79.9995H69.6886C74.0472 79.9995 75.5928 77.8779 75.5928 74.0952C75.5928 60.3426 75.5928 46.5945 75.5928 32.8418H0V75.1849Z" fill="#ECBD83"/>
<path fill-rule="evenodd" clip-rule="evenodd" d="M64.998 79.9995H69.6885C74.0471 79.9995 75.5927 77.8779 75.5927 74.0952C75.5927 60.3426 75.5927 46.5945 75.5927 32.8418H70.9066V74.0952C70.9066 77.8779 69.3607 79.9995 64.998 79.9995Z" fill="#E2A975"/>
<path fill-rule="evenodd" clip-rule="evenodd" d="M4.81437 28.0273H74.4192C75.2519 28.0273 75.593 28.4525 75.593 29.2011V37.6564H4.81437C2.16578 37.6566 0 35.4906 0 32.842C0 30.1978 2.16578 28.0273 4.81437 28.0273Z" fill="#C38C66"/>
<path fill-rule="evenodd" clip-rule="evenodd" d="M69.7344 28.0273H74.4205C75.2531 28.0273 75.5942 28.4525 75.5942 29.2011V37.6564H70.9081V29.2011C70.9081 28.4527 70.567 28.0273 69.7344 28.0273Z" fill="#9F6E50"/>
<path fill-rule="evenodd" clip-rule="evenodd" d="M56.893 49.7695H76.8775C78.596 49.7695 80 51.1736 80 52.892V63.2031C80 64.9217 78.596 66.3256 76.8775 66.3256H56.893C55.1746 66.3256 53.7705 64.9216 53.7705 63.2031V52.892C53.7705 51.1736 55.1746 49.7695 56.893 49.7695Z" fill="#C38C66"/>
<path fill-rule="evenodd" clip-rule="evenodd" d="M72.1855 49.7695H76.8762C78.5946 49.7695 79.9987 51.1736 79.9987 52.892V63.2031C79.9987 64.9217 78.5946 66.3256 76.8762 66.3256H72.1855C73.9041 66.3256 75.3126 64.9216 75.3126 63.2031V52.892C75.3126 51.1736 73.9041 49.7695 72.1855 49.7695Z" fill="#9F6E50"/>
<path fill-rule="evenodd" clip-rule="evenodd" d="M62.8325 61.2601C64.5998 61.2601 66.0438 59.8162 66.0438 58.049C66.0438 56.2816 64.5998 54.8379 62.8325 54.8379C61.0608 54.8379 59.6211 56.2818 59.6211 58.049C59.6211 59.8162 61.0608 61.2601 62.8325 61.2601Z" fill="#9F6E50"/>
<path fill-rule="evenodd" clip-rule="evenodd" d="M37.7993 0C48.1946 0 56.6276 8.42875 56.6276 18.8284C56.6276 24.3959 54.2093 29.3964 50.3693 32.8423H25.2249C21.3847 29.3964 18.9663 24.3959 18.9663 18.8284C18.9663 8.42875 27.3996 0 37.7993 0V0Z" fill="#FFEDB5"/>
<path fill-rule="evenodd" clip-rule="evenodd" d="M37.799 0C48.1943 0 56.6273 8.42875 56.6273 18.8284C56.6273 24.3959 54.209 29.3964 50.369 32.8423H46.4623C50.3024 29.3964 52.7209 24.3959 52.7209 18.8284C52.7209 9.08859 45.324 1.07625 35.8457 0.101875C36.4879 0.0354687 37.1391 0 37.799 0V0Z" fill="#FFE18C"/>
<path fill-rule="evenodd" clip-rule="evenodd" d="M37.7993 0C38.189 0 38.5833 0.0132812 38.9685 0.0398437V2.61313C38.9685 3.25984 38.4458 3.78688 37.7993 3.78688C37.1482 3.78688 36.6255 3.25984 36.6255 2.61313V0.0398437C37.0154 0.0132812 37.4051 0 37.7993 0V0ZM50.2585 4.71281C50.8432 5.23094 51.3968 5.78453 51.9151 6.36938L50.0902 8.19422C49.634 8.65031 48.8944 8.65031 48.4337 8.19422C47.9774 7.73359 47.9774 6.99391 48.4337 6.53328L50.2585 4.71281ZM56.5877 17.6592C56.6144 18.0445 56.6276 18.4344 56.6276 18.8284C56.6276 19.2227 56.6144 19.6125 56.5921 20.0022H54.0146C53.3679 20.0022 52.8407 19.4752 52.8407 18.8284C52.8407 18.1817 53.3679 17.6592 54.0146 17.6592H56.5877ZM51.9151 31.2878C51.4279 31.837 50.9141 32.3553 50.3694 32.8425H50.1568L48.434 31.1239C47.9777 30.6678 47.9777 29.9236 48.434 29.4673C48.8946 29.0113 49.6343 29.0113 50.0905 29.4673L51.9151 31.2878ZM25.4418 32.8425H25.2247C24.6799 32.3553 24.1662 31.837 23.679 31.2878L25.504 29.4673C25.9601 29.0113 26.7043 29.0113 27.1605 29.4673C27.6166 29.9236 27.6166 30.6678 27.1605 31.1239L25.4418 32.8425ZM19.0062 20.0022C18.9796 19.6125 18.9663 19.2227 18.9663 18.8284C18.9663 18.4342 18.9796 18.0444 19.0062 17.6592H21.5841C22.2307 17.6592 22.7533 18.1819 22.7533 18.8284C22.7533 19.4752 22.2305 20.0022 21.5841 20.0022H19.0062ZM23.679 6.36922C24.1971 5.78453 24.7508 5.23094 25.3401 4.71266L27.1604 6.53297C27.6165 6.99359 27.6165 7.73328 27.1604 8.19391C26.7041 8.65 25.9599 8.65 25.5038 8.19391L23.679 6.36922Z" fill="#F2D068"/>
<path d="M4.81473 34.017C4.16816 34.017 3.64551 33.4943 3.64551 32.8432C3.64551 32.1965 4.16832 31.6738 4.81473 31.6738H70.7786C71.4254 31.6738 71.9524 32.1965 71.9524 32.8432C71.9524 33.4943 71.4254 34.017 70.7786 34.017H4.81473Z" fill="#9F6E50"/>
<path fill-rule="evenodd" clip-rule="evenodd" d="M41.7328 9.86375V8.48625C41.7328 7.83953 41.2056 7.3125 40.559 7.3125C39.9123 7.3125 39.3897 7.83953 39.3897 8.48625V9.70875H37.0245V8.48625C37.0245 7.83953 36.4975 7.3125 35.8507 7.3125C35.204 7.3125 34.6815 7.83953 34.6815 8.48625V9.70875H31.6962C31.0495 9.70875 30.5225 10.2314 30.5225 10.8781C30.5225 11.5248 31.0495 12.0519 31.6962 12.0519H32.6439V22.983H31.6962C31.0495 22.983 30.5225 23.5056 30.5225 24.1523C30.5225 24.7991 31.0495 25.3261 31.6962 25.3261H34.6817V26.5486C34.6817 27.1952 35.2043 27.7178 35.8509 27.7178C36.4976 27.7178 37.0247 27.1952 37.0247 26.5486V25.3261H39.3898V26.5486C39.3898 27.1952 39.9126 27.7178 40.5592 27.7178C41.2057 27.7178 41.7329 27.1952 41.7329 26.5486V25.1711C42.5036 24.963 43.1943 24.5555 43.7437 24.0062C44.5631 23.1912 45.0725 22.0706 45.0725 20.835C45.0725 19.5639 44.5278 18.368 43.5887 17.5175C44.5278 16.6627 45.0725 15.4712 45.0725 14.1956C45.0725 12.9644 44.5631 11.8394 43.7437 11.0244C43.1943 10.4795 42.5034 10.072 41.7328 9.86375ZM34.9872 12.0519H40.559C41.1612 12.0519 41.7015 12.2911 42.0959 12.6808C42.4856 13.0705 42.7292 13.6064 42.7292 14.1955C42.7292 14.7889 42.4856 15.325 42.0959 15.7147C41.7017 16.1045 41.1614 16.3436 40.559 16.3436H34.9872V12.0519ZM34.9872 18.6867H40.559C41.1612 18.6867 41.7015 18.9303 42.0959 19.3202C42.4856 19.7098 42.7292 20.2458 42.7292 20.8348C42.7292 21.4239 42.4856 21.9598 42.0959 22.3495C41.7017 22.7394 41.1614 22.983 40.559 22.983H34.9872V18.6867Z" fill="#FBC848"/>
</svg>
