<svg width="74" height="74" viewBox="0 0 74 74" fill="none" xmlns="http://www.w3.org/2000/svg">
<g clip-path="url(#clip0)">
<path d="M74 37C74 39.8799 73.6708 42.683 73.0486 45.3725C71.709 51.1612 69.0132 56.4288 65.3118 60.8219C63.3637 63.1356 61.1361 65.2076 58.682 66.9836C52.5899 71.3979 45.0977 74 37 74C25.6403 74 15.4751 68.8804 8.68821 60.8219C3.26655 54.3855 0 46.0732 0 37C0 16.5655 16.5655 0 37 0C57.4346 0 74 16.5655 74 37Z" fill="#0078E7"/>
<path d="M73.0487 45.3726C71.7092 51.1612 69.0134 56.4288 65.3119 60.822C63.3638 63.1357 61.1363 65.2077 58.6821 66.9837L28.0054 36.3069L45.9934 18.3174L73.0487 45.3726Z" fill="#046AC9"/>
<path d="M65.3118 60.8221C58.5249 68.8806 48.3597 74.0002 37 74.0002C25.6403 74.0002 15.4751 68.8806 8.68823 60.8221C11.8717 54.2845 23.3417 49.4443 37 49.4443C48.1937 49.4443 57.9193 52.6959 62.8169 57.468C63.8953 58.519 64.7395 59.6428 65.3118 60.8221Z" fill="#F7F7F7"/>
<path d="M45.9936 18.3181C50.9618 23.2862 50.9618 31.3385 45.9936 36.3066C41.0255 41.2747 32.9733 41.2747 28.0051 36.3066C23.037 31.3385 23.037 23.2862 28.0051 18.3181C32.9733 13.35 41.0257 13.35 45.9936 18.3181Z" fill="#F7F7F7"/>
</g>
<defs>
<clipPath id="clip0">
<rect width="74" height="74" fill="white"/>
</clipPath>
</defs>
</svg>
