<svg width="80" height="69" viewBox="0 0 80 69" fill="none" xmlns="http://www.w3.org/2000/svg">
<path d="M60.1666 56.2322H21.5243C18.1889 56.2322 16.875 54.9016 16.3592 53.7855C15.7331 52.4321 16.0153 50.7295 17.0933 49.3441C18.2595 47.8491 20.4794 47.5136 20.7307 47.4817C21.5111 47.3767 22.2275 47.9496 22.3289 48.7598C22.4281 49.5677 21.8792 50.3072 21.101 50.4122C20.5697 50.4875 19.6373 50.7888 19.3176 51.1996C18.9583 51.6607 18.7973 52.2107 18.9362 52.5097C19.0994 52.8635 19.8753 53.2743 21.5265 53.2743H60.1688C60.958 53.2743 61.5973 53.9362 61.5973 54.751C61.5973 55.5658 60.9536 56.2322 60.1666 56.2322Z" fill="#121331"/>
<path d="M24.3791 68.8992C20.2192 68.8992 16.8331 65.3958 16.8331 61.089C16.8331 56.7822 20.217 53.2788 24.3791 53.2788C28.5411 53.2788 31.925 56.7822 31.925 61.089C31.925 65.3958 28.5389 68.8992 24.3791 68.8992ZM24.3791 56.2322C21.7932 56.2322 19.6901 58.4096 19.6901 61.089C19.6901 63.7685 21.7932 65.9459 24.3791 65.9459C26.9649 65.9459 29.068 63.7685 29.068 61.089C29.068 58.4096 26.9649 56.2322 24.3791 56.2322Z" fill="#333439"/>
<path d="M60.5745 68.8992C56.4146 68.8992 53.0285 65.3958 53.0285 61.089C53.0285 56.7822 56.4124 53.2788 60.5745 53.2788C64.7365 53.2788 68.1204 56.7822 68.1204 61.089C68.1204 65.3958 64.7343 68.8992 60.5745 68.8992ZM60.5745 56.2322C57.9886 56.2322 55.8855 58.4096 55.8855 61.089C55.8855 63.7685 57.9886 65.9459 60.5745 65.9459C63.1603 65.9459 65.2634 63.7685 65.2634 61.089C65.2634 58.4096 63.1603 56.2322 60.5745 56.2322Z" fill="#333439"/>
<path d="M18.2043 51.752C17.889 51.752 17.5738 51.6447 17.3092 51.4233C16.6964 50.9121 16.5994 49.9809 17.0932 49.3464C17.7612 48.4882 18.4446 48.1458 19.0332 48.0751L13.1273 11.7058C12.9576 11.4639 12.8584 11.1649 12.8584 10.8431C12.8584 10.7062 12.876 10.5738 12.9091 10.4483C12.1508 6.8353 9.73024 3.87737 7.45302 3.87737H1.84702C1.05782 3.87737 0.418518 3.21549 0.418518 2.40069C0.418518 1.58589 1.05782 0.924011 1.84702 0.924011H7.45522C11.0066 0.924011 14.4324 4.55295 15.5986 9.36871H77.8068C78.3645 9.36871 78.8738 9.63118 79.2067 10.0899C79.577 10.6012 79.6806 11.2836 79.4888 11.966L72.882 35.5496C71.4601 40.6278 66.3722 45.0738 61.2975 45.6741L29.1782 49.4628C24.4518 50.0197 20.7372 50.7089 20.153 50.9554C19.9149 51.0718 19.6592 51.1152 19.4123 51.0878C19.3837 51.1198 19.3528 51.1586 19.3153 51.2042C19.0354 51.5648 18.6209 51.752 18.2043 51.752ZM18.6826 50.7797L18.6848 50.782C18.6848 50.782 18.6848 50.7797 18.6826 50.7797ZM16.121 12.3198L21.8439 47.5479C24.0968 47.1325 27.0464 46.7376 28.8541 46.5231L60.9734 42.7344C64.8533 42.2756 69.0528 38.6079 70.1396 34.7256L76.4136 12.3198H16.121Z" fill="#121331"/>
<path d="M45.1143 38.4139C44.4838 38.4139 43.9724 37.8844 43.9724 37.2316V22.5698L38.2495 28.4925C37.8042 28.9536 37.0812 28.9536 36.6337 28.4925C36.1884 28.0315 36.1884 27.2829 36.6337 26.8196L44.3008 18.8838C44.7462 18.4228 45.4692 18.4228 45.9145 18.8838L53.5994 26.831C54.0447 27.292 54.0469 28.0406 53.5994 28.5039C53.1541 28.965 52.431 28.9673 51.9835 28.5039L46.254 22.5767V37.2294C46.2562 37.8867 45.7448 38.4139 45.1143 38.4139Z" fill="#0078E7"/>
</svg>
