<svg width="542" height="450" viewBox="0 0 542 450" fill="none" xmlns="http://www.w3.org/2000/svg">
<path d="M3.78668 295.465L269.762 448.889C270.903 449.543 272.195 449.887 273.51 449.887C274.825 449.887 276.118 449.543 277.259 448.889L537.425 301.031C538.581 300.371 539.541 299.416 540.21 298.264C540.878 297.112 541.23 295.803 541.23 294.471C541.23 293.139 540.878 291.83 540.21 290.678C539.541 289.526 538.581 288.571 537.425 287.911L266.965 133.012C265.818 132.349 264.516 132 263.191 132C261.867 132 260.565 132.349 259.418 133.012L3.73702 282.394C2.59543 283.062 1.64932 284.019 0.993462 285.169C0.337603 286.318 -0.00497381 287.62 5.45674e-05 288.944C0.00508294 290.268 0.357539 291.567 1.02211 292.711C1.68669 293.856 2.64004 294.805 3.78668 295.465V295.465Z" fill="#FEE9D4"/>
<path style="mix-blend-mode:multiply" d="M142.294 288.474L66.9911 329.808C66.9911 329.808 180.061 399.288 193.599 404.987L269.216 359.28" fill="url(#paint0_linear)"/>
<path d="M429.535 226.133V73.7367L356.12 30.7959V184.319" fill="#FC8F00"/>
<path d="M142.476 288.159L265.757 359.28C266.286 359.584 266.885 359.743 267.494 359.743C268.104 359.743 268.703 359.584 269.232 359.28L389.832 290.743C390.369 290.438 390.815 289.996 391.126 289.462C391.437 288.928 391.6 288.321 391.6 287.703C391.6 287.086 391.437 286.479 391.126 285.945C390.815 285.411 390.369 284.969 389.832 284.664L264.466 212.847C263.933 212.537 263.328 212.374 262.711 212.374C262.095 212.374 261.49 212.537 260.957 212.847L142.459 282.079C141.923 282.386 141.478 282.829 141.169 283.364C140.859 283.899 140.697 284.506 140.699 285.124C140.701 285.742 140.866 286.348 141.178 286.882C141.49 287.415 141.938 287.855 142.476 288.159V288.159Z" fill="#269B9E"/>
<path opacity="0.56" d="M142.476 288.159L265.757 359.28C266.286 359.584 266.885 359.743 267.494 359.743C268.104 359.743 268.703 359.584 269.232 359.28L389.832 290.743C390.369 290.438 390.815 289.996 391.126 289.462C391.437 288.928 391.6 288.321 391.6 287.703C391.6 287.086 391.437 286.479 391.126 285.945C390.815 285.411 390.369 284.969 389.832 284.663L264.466 212.847C263.933 212.537 263.328 212.374 262.711 212.374C262.095 212.374 261.49 212.537 260.957 212.847L142.459 282.079C141.923 282.386 141.478 282.829 141.169 283.364C140.859 283.899 140.697 284.506 140.699 285.124C140.701 285.742 140.866 286.348 141.178 286.882C141.49 287.415 141.938 287.855 142.476 288.159Z" fill="#0078E7"/>
<path d="M143.419 270.068L266.7 341.189C267.229 341.493 267.828 341.653 268.438 341.653C269.047 341.653 269.647 341.493 270.175 341.189L390.775 272.653C391.312 272.348 391.759 271.906 392.069 271.372C392.38 270.838 392.544 270.231 392.544 269.613C392.544 268.995 392.38 268.388 392.069 267.854C391.759 267.32 391.312 266.878 390.775 266.573L265.409 194.756C264.876 194.446 264.271 194.283 263.655 194.283C263.038 194.283 262.433 194.446 261.9 194.756L143.402 263.988C142.866 264.295 142.421 264.738 142.112 265.273C141.803 265.808 141.641 266.415 141.642 267.033C141.644 267.651 141.809 268.258 142.121 268.791C142.434 269.324 142.881 269.765 143.419 270.068V270.068Z" fill="#0078E7"/>
<path opacity="0.33" d="M388.078 263.475L385.033 70.8873L262.91 23.7385L140.705 93.9646L140.721 260.89L267.478 332.011L388.078 263.475Z" fill="url(#paint1_linear)"/>
<path d="M376.658 133.675L376.724 143.615L375.549 143.002L368.002 139.026L369.459 129.881L375.467 133.045L376.658 133.675Z" fill="#FFD64C"/>
<path d="M389.882 142.787L389.948 150.606L390.014 158.972L381.971 154.731L381.905 146.365L381.855 138.546L389.882 142.787Z" fill="#FFD64C"/>
<path d="M403.999 150.225L404.065 157.813L404.131 166.411L396.088 162.17L396.022 153.803L395.955 145.984L403.999 150.225Z" fill="#FFD64C"/>
<path d="M376.244 83.7761V83.8093L376.327 93.7161L375.136 93.0866L369.078 89.8892L367.523 79.1706L376.244 83.7761Z" fill="#FFD64C"/>
<path d="M389.385 79.6179L389.468 90.7838L389.517 96.2508L381.474 92.0097L381.425 86.5427L381.342 75.3934L389.385 79.6179Z" fill="#FFD64C"/>
<path d="M414.988 138.695C416.75 142.166 417.68 146 417.702 149.894C417.828 151.961 417.388 154.023 416.428 155.858C415.629 157.241 414.333 158.266 412.803 158.724C411.052 159.203 409.209 159.237 407.441 158.823C406.313 158.583 405.206 158.25 404.131 157.829V150.242L396.088 146.001V153.82L390.014 150.623V142.803L381.971 138.562V146.382L375.599 143.068L376.791 143.681V133.741L375.599 133.112L375.285 93.1528L376.476 93.7824V83.8424L381.441 86.5427V92.0097L389.484 96.2508V90.7838L395.558 93.9812V99.4482L403.602 103.689V98.2222C405.308 99.2065 406.84 100.466 408.136 101.95C409.612 103.621 410.884 105.462 411.926 107.433C412.968 109.391 413.789 111.458 414.376 113.596C414.93 115.537 415.23 117.542 415.269 119.56C415.393 122.092 414.741 124.6 413.399 126.75C412.803 127.667 411.969 128.404 410.987 128.882C410.004 129.361 408.91 129.563 407.822 129.467C410.804 132.031 413.241 135.169 414.988 138.695V138.695ZM406.912 145.04C407.271 144.169 407.44 143.231 407.408 142.29C407.391 141.168 407.224 140.054 406.912 138.976C406.591 137.827 406.148 136.716 405.588 135.663C405.058 134.675 404.407 133.757 403.651 132.929C402.952 132.151 402.124 131.501 401.202 131.008L385.529 122.724L385.661 138.479L400.821 146.481C401.623 146.934 402.517 147.2 403.436 147.26C404.175 147.314 404.913 147.128 405.538 146.729C406.158 146.291 406.635 145.681 406.912 144.973V145.04ZM385.397 98.4542L385.512 113.53L399.117 120.703C399.755 121.14 400.498 121.397 401.269 121.45C402.04 121.502 402.811 121.347 403.502 121.001C404.694 120.272 405.29 118.748 405.273 116.396C405.29 114.172 404.719 111.983 403.618 110.051C402.674 108.287 401.244 106.832 399.497 105.859L385.446 98.4542" fill="#FFD64C"/>
<path d="M403.486 87.0729L403.585 98.2388L403.618 103.689L395.591 99.4648L395.542 93.9812L395.459 82.8318L403.486 87.0729Z" fill="#FFD64C"/>
<path d="M107.34 157.432L167.566 124.298C168.723 123.663 169.688 122.728 170.36 121.591C171.033 120.455 171.388 119.158 171.389 117.837V7.38722C171.391 6.09104 171.052 4.81709 170.406 3.69379C169.76 2.57048 168.83 1.63755 167.709 0.98905C166.587 0.340547 165.315 -0.000601832 164.02 7.97009e-07C162.726 0.000603426 161.454 0.342935 160.333 0.992482L100.091 35.799C98.9685 36.4459 98.0362 37.3777 97.3882 38.5005C96.7402 39.6232 96.3995 40.8971 96.4005 42.1938V150.971C96.3978 152.255 96.7306 153.519 97.366 154.635C98.0014 155.752 98.9172 156.683 100.023 157.335C101.128 157.988 102.385 158.341 103.669 158.358C104.952 158.374 106.218 158.055 107.34 157.432Z" fill="#0078E7"/>
<path d="M110.998 80.4628V106.969C110.998 114.656 122.93 114.673 122.93 106.969V80.4628C122.93 72.7758 110.998 72.7758 110.998 80.4628Z" fill="#56403D"/>
<path d="M127.217 53.3266V96.0023C127.217 103.689 139.149 103.706 139.149 96.0023V53.3266C139.149 45.6397 127.217 45.6231 127.217 53.3266Z" fill="#FFA197"/>
<path d="M146.431 22.3966V87.9178C146.431 95.6047 158.364 95.6213 158.364 87.9178V22.3966C158.364 14.7097 146.431 14.6931 146.431 22.3966Z" fill="#F2F2F2"/>
<path d="M131.536 114.325L116.79 122.078C114.705 123.172 116.558 126.352 118.644 125.259L133.39 117.506C135.541 116.412 133.688 113.232 131.536 114.325Z" fill="#F2F2F2"/>
<path d="M157.453 112.403C143.739 119.77 129.881 126.861 115.88 133.675C113.761 134.702 115.615 137.883 117.733 136.856C131.724 130.03 145.582 122.951 159.307 115.617C161.326 114.458 159.539 111.277 157.453 112.403Z" fill="#F2F2F2"/>
<path d="M19.2443 236.554L79.8669 203.238C81.0341 202.599 82.008 201.658 82.6864 200.512C83.3649 199.367 83.723 198.059 83.7231 196.728V85.4659C83.7231 84.1631 83.3806 82.8832 82.7299 81.7549C82.0791 80.6265 81.1432 79.6896 80.016 79.0381C78.8889 78.3867 77.6103 78.0437 76.3088 78.0437C75.0072 78.0437 73.7286 78.3866 72.6015 79.038L11.9623 114.06C10.8351 114.711 9.89912 115.648 9.24837 116.777C8.59761 117.905 8.25505 119.185 8.25511 120.488V229.927C8.23323 231.228 8.55312 232.511 9.18273 233.649C9.81235 234.786 10.7296 235.739 11.8425 236.41C12.9555 237.081 14.2251 237.447 15.5242 237.473C16.8232 237.498 18.1061 237.181 19.2443 236.554Z" fill="#0078E7"/>
<path d="M41.7689 129.815C45.3768 126.12 49.2495 124.166 52.8905 124.166C53.5747 124.166 54.257 124.238 54.9262 124.381C57.726 125.067 60.1763 126.759 61.811 129.136C63.4069 126.901 65.1368 124.766 66.9911 122.741C64.2935 119.576 60.639 117.378 56.5812 116.479C49.5805 115.004 42.2654 117.738 35.9764 124.182C34.1165 126.116 32.4533 128.231 31.0114 130.494C33.3119 131.886 35.5461 133.377 37.7969 134.868C38.9509 133.056 40.2814 131.364 41.7689 129.815V129.815Z" fill="#56403D"/>
<path d="M41.8186 186.755C37.9624 185.595 34.7683 182.05 32.7657 176.649C30.3435 169.385 29.9882 161.589 31.7396 154.135C32.7186 149.334 34.4561 144.72 36.8867 140.467C34.6359 138.976 32.4016 137.502 30.1012 136.094C27.1445 141.163 25.0316 146.68 23.8453 152.428C21.7802 161.381 22.2502 170.732 25.2024 179.432C28.0821 187.169 32.9974 192.404 39.1871 194.342C39.9815 191.824 40.8256 189.256 41.8186 186.755Z" fill="#FFA197"/>
<path d="M72.3368 136.011C71.3273 133.222 69.9107 130.598 68.1331 128.224C66.2368 130.321 64.4735 132.534 62.8536 134.851C63.614 136.109 64.2566 137.434 64.7734 138.811C67.1957 146.075 67.551 153.87 65.7995 161.325C64.3839 168.848 60.9056 175.829 55.7536 181.486C51.7816 185.562 47.4786 187.517 43.5397 187.069C42.5302 189.604 41.6696 192.205 40.8586 194.806C42.0938 195.068 43.3528 195.202 44.6155 195.203C50.4245 195.203 56.2998 192.404 61.4634 187.102C67.5371 180.249 71.7268 171.934 73.6214 162.971C75.516 154.008 75.0505 144.706 72.2706 135.978L72.3368 136.011Z" fill="#F2F2F2"/>
<path d="M56.7717 156.819C57.3297 151.8 55.5434 147.481 52.7818 147.173C50.0202 146.866 47.3291 150.686 46.771 155.705C46.213 160.725 47.9993 165.043 50.761 165.351C53.5226 165.658 56.2137 161.839 56.7717 156.819Z" fill="#F2F2F2"/>
<path d="M72.7837 196.794L35.0332 215.796C34.7303 215.947 34.5 216.213 34.3929 216.535C34.2858 216.856 34.3107 217.207 34.4622 217.511C34.6136 217.814 34.8792 218.044 35.2004 218.151C35.5216 218.259 35.8722 218.234 36.1751 218.082L73.9257 199.097C74.0767 199.022 74.2115 198.917 74.3224 198.79C74.4332 198.663 74.518 198.515 74.5718 198.355C74.6256 198.195 74.6473 198.026 74.6359 197.858C74.6244 197.689 74.5799 197.525 74.5049 197.374C74.4299 197.223 74.3259 197.088 74.1989 196.977C74.0718 196.866 73.9241 196.781 73.7643 196.727C73.6045 196.673 73.4356 196.651 73.2674 196.663C73.0991 196.674 72.9348 196.719 72.7837 196.794V196.794Z" fill="#F2F2F2"/>
<path d="M72.7837 190.979L35.0332 209.948C34.7303 210.099 34.5 210.365 34.3929 210.687C34.2858 211.008 34.3107 211.359 34.4622 211.663C34.6136 211.966 34.8792 212.196 35.2004 212.303C35.5216 212.411 35.8722 212.386 36.1751 212.234L73.9257 193.249C74.1963 193.081 74.3942 192.817 74.4805 192.51C74.5669 192.204 74.5353 191.876 74.3921 191.591C74.2488 191.306 74.0043 191.085 73.7066 190.972C73.4089 190.859 73.0797 190.861 72.7837 190.979V190.979Z" fill="#F2F2F2"/>
<path style="mix-blend-mode:multiply" d="M470 294.67L411.661 323.032C420.245 328.776 429.31 333.765 438.754 337.942L498.201 298.265" fill="url(#paint2_linear)"/>
<path d="M464.456 240.679C464.307 240.533 464.189 240.358 464.108 240.165C461.609 238.906 459.143 237.714 456.512 236.604C455.718 236.007 454.857 235.461 454.096 234.947C453.957 235.097 453.788 235.215 453.599 235.292C453.41 235.37 453.207 235.404 453.003 235.394C449.262 235.293 445.535 234.872 441.865 234.135C441.7 234.45 441.572 234.784 441.485 235.129C444.807 238.994 447.05 243.669 447.989 248.681C448.7 249.492 449.462 250.337 450.289 251.232C453.98 252.69 458.994 252.375 463.198 252.889C463.396 252.463 463.551 252.019 463.662 251.563H463.844C465.258 252.081 466.635 252.696 467.965 253.402C470.727 253.792 473.345 254.875 475.578 256.55C476.189 256.315 476.751 255.966 477.233 255.523C472.896 250.702 469.156 245.301 464.456 240.679Z" fill="#1B896C"/>
<path d="M485.822 244.688L496.182 236.521C496.182 236.521 510.167 232.081 509.968 217.055C509.77 202.029 505.285 198.003 505.285 198.003C505.285 198.003 487.858 224.295 485.822 244.688Z" fill="#1B896C"/>
<path d="M463.943 273.216L469.239 297.95C469.415 298.772 469.774 299.543 470.29 300.205C470.806 300.868 471.465 301.405 472.218 301.777C475.296 303.284 481.651 304.858 493.733 302.671C494.819 302.475 495.823 301.961 496.618 301.195C497.413 300.428 497.964 299.443 498.201 298.364L503.63 273.216" fill="#0078E7"/>
<path d="M483.786 281.35C494.746 281.35 503.63 277.708 503.63 273.216C503.63 268.724 494.746 265.082 483.786 265.082C472.827 265.082 463.943 268.724 463.943 273.216C463.943 277.708 472.827 281.35 483.786 281.35Z" fill="#56403D"/>
<path d="M511.061 211.986C510.597 206.005 506.658 200.654 507.254 194.624C507.37 193.497 505.831 193.315 505.301 194.094C495.008 209.236 488.337 226.549 485.805 244.688C485.681 244.909 485.64 245.168 485.69 245.417C484.606 253.51 484.357 261.693 484.945 269.836C485.641 269.774 486.333 269.663 487.014 269.505C486.459 261.514 486.719 253.487 487.791 245.55C491.317 241.358 496.315 239.37 500.568 236.04C504.183 233.227 507.029 229.546 508.843 225.338C510.65 221.132 511.411 216.55 511.061 211.986V211.986ZM506.84 224.51C504.61 229.523 500.88 233.72 496.166 236.521C494.196 237.763 492.243 238.939 490.423 240.281C494.197 232.856 497.454 225.178 500.171 217.303C500.618 216.028 498.516 215.481 498.152 216.74C495.591 224.175 492.539 231.43 489.016 238.459C491.868 224.07 497.386 210.343 505.285 197.987C505.798 201.383 507.403 204.448 508.297 207.927C509.66 213.456 509.153 219.282 506.857 224.493L506.84 224.51Z" fill="#37B596"/>
<path d="M483.952 269.886C482.297 265.612 480.642 261.288 478.722 257.163C478.748 256.971 478.721 256.776 478.645 256.599C478.57 256.421 478.448 256.267 478.292 256.152C475.855 251.058 472.551 246.428 468.527 242.468C460.616 234.964 450.322 233.141 439.83 231.932C438.77 231.816 438.572 233.091 439.184 233.704C439.214 233.831 439.269 233.951 439.346 234.056C439.422 234.161 439.519 234.25 439.631 234.317C445.854 238.177 444.033 248.001 450.62 251.63C453.715 253.286 457.472 252.822 460.848 252.955C465.329 253.011 469.747 254.022 473.807 255.92C477.351 259.83 479.816 264.598 480.956 269.754C481.949 269.883 482.951 269.927 483.952 269.886V269.886ZM455.254 241.342C453.98 240.878 453.434 242.899 454.691 243.363C460.244 245.343 465.396 248.306 469.901 252.11C468.812 251.8 467.707 251.551 466.591 251.365C462.205 250.652 455.469 252.027 451.597 249.708C446.185 246.56 446.632 238.873 442.775 234.284C452.192 235.543 461.146 237.796 468.08 244.937C470.578 247.556 472.746 250.471 474.535 253.618C469.154 248.075 462.55 243.871 455.254 241.342Z" fill="#37B596"/>
<path d="M256.009 165.814L251.457 175.688L187.955 151.981L184.761 143.201L188.518 135.149L188.534 141.097" fill="#E27801"/>
<path d="M208.659 178.007C190.454 168.747 179.697 152.826 185.125 142.439C190.553 132.051 210.711 130.461 228.701 139.854C246.691 149.248 256.836 165.284 251.474 175.671C246.112 186.059 225.524 186.539 208.659 178.007Z" fill="#E27801"/>
<path d="M234.146 175.605L230.472 183.888C230.472 183.888 218.887 183.325 212.267 179.614L215.858 171.182" fill="#E5913E"/>
<path d="M212.532 169.707C194.327 160.447 183.569 144.526 188.998 134.139C194.426 123.751 214.584 122.161 232.574 131.554C250.564 140.948 260.709 156.984 255.347 167.371C249.984 177.759 229.396 178.239 212.532 169.707Z" fill="#FFD64C"/>
<path d="M248.844 163.998C253.271 155.506 244.938 142.393 230.231 134.709C215.524 127.026 200.012 127.682 195.584 136.174C191.156 144.667 199.49 157.78 214.197 165.463C228.904 173.147 244.416 172.491 248.844 163.998Z" fill="#FE9B00"/>
<path d="M201.294 133.062C211.622 129.749 222.478 133.841 231.482 138.877C240.485 143.913 250.498 152.296 249.074 163.478C252.93 154.98 244.639 142.223 230.224 134.702C215.511 127.015 200.004 127.678 195.585 136.16L195.386 136.591C197.045 134.958 199.071 133.748 201.294 133.062V133.062Z" fill="#E88400"/>
<path d="M224.564 143.681L223.372 146.713L221.237 143.979L222.429 140.931L224.564 143.681Z" fill="#ED6128"/>
<path d="M222.892 140.848L221.684 143.897L221.237 143.979L222.429 140.931L222.892 140.848Z" fill="#ED6128"/>
<path d="M227.377 143.184L226.169 146.232L223.836 146.647L225.027 143.598L227.377 143.184Z" fill="#ED6128"/>
<path d="M225.027 143.598L223.835 146.647L223.372 146.713L224.564 143.681L225.027 143.598Z" fill="#ED6128"/>
<path d="M222.098 143.433L220.89 146.481L219.218 144.327L220.41 141.279L222.098 143.433Z" fill="#ED6128"/>
<path d="M217.282 141.809L216.09 144.857L214.286 142.555L215.478 139.506L217.282 141.809Z" fill="#ED6128"/>
<path d="M222.098 143.433L220.89 146.481L217.762 147.011L218.97 143.963L222.098 143.433Z" fill="#ED6128"/>
<path d="M218.97 143.963L217.762 147.011L216.09 144.857L217.282 141.809L218.97 143.963Z" fill="#ED6128"/>
<path d="M216.603 144.377L215.395 147.425L213.724 145.272L214.915 142.223L216.603 144.377Z" fill="#ED6128"/>
<path d="M211.837 142.82L210.629 145.868L208.792 143.499L210 140.451L211.837 142.82Z" fill="#ED6128"/>
<path d="M224.431 148.585L223.223 151.633L219.83 147.293L221.039 144.244L224.431 148.585Z" fill="#ED6128"/>
<path d="M216.603 144.377L215.395 147.425L212.267 147.955L213.475 144.907L216.603 144.377Z" fill="#ED6128"/>
<path d="M221.039 144.244L219.83 147.293L213.939 148.303L215.13 145.255L221.039 144.244Z" fill="#ED6128"/>
<path d="M213.475 144.907L212.267 147.955L210.629 145.868L211.837 142.82L213.475 144.907Z" fill="#ED6128"/>
<path d="M212.631 149.214L213.839 146.166C213.932 145.935 214.094 145.738 214.303 145.603C214.572 145.426 214.877 145.313 215.196 145.272L213.988 148.32C213.669 148.362 213.364 148.475 213.095 148.651C212.886 148.787 212.724 148.983 212.631 149.214V149.214Z" fill="#ED6128"/>
<path d="M235.288 157.415L234.08 160.463L231.945 157.73L233.153 154.681L235.288 157.415Z" fill="#ED6128"/>
<path d="M233.617 154.599L232.409 157.647L231.945 157.73L233.153 154.681L233.617 154.599Z" fill="#ED6128"/>
<path d="M238.681 156.835L237.489 159.883L234.08 160.463L235.288 157.415L238.681 156.835Z" fill="#ED6128"/>
<path d="M235.288 157.415L234.08 160.463L235.288 157.415Z" fill="#ED6128"/>
<path d="M229.645 155.278L228.436 158.326L225.193 154.168L226.401 151.12L229.645 155.278Z" fill="#ED6128"/>
<path d="M226.401 151.12L225.193 154.168L219.897 155.079L221.105 152.031L226.401 151.12Z" fill="#ED6128"/>
<path d="M233.269 157.763L232.061 160.811L230.886 159.304L232.094 156.255L233.269 157.763Z" fill="#ED6128"/>
<path d="M235.288 157.415L234.08 160.463L232.061 160.811L233.269 157.763L235.288 157.415Z" fill="#ED6128"/>
<path d="M221.105 152.064L219.897 155.112C219.629 155.128 219.37 155.215 219.146 155.363C218.922 155.511 218.741 155.716 218.622 155.957L219.83 152.909C219.95 152.668 220.13 152.463 220.354 152.315C220.578 152.166 220.837 152.08 221.105 152.064Z" fill="#ED6128"/>
<path d="M232.094 156.255L230.886 159.304L227.758 159.834L228.966 156.785L232.094 156.255Z" fill="#ED6128"/>
<path d="M207.765 147.955L208.974 144.907C208.839 145.255 208.794 145.631 208.841 146.001C208.965 146.712 209.279 147.376 209.751 147.922C210.583 148.999 211.654 149.867 212.879 150.457L211.671 153.505C210.446 152.915 209.375 152.048 208.543 150.971C208.071 150.425 207.757 149.76 207.633 149.049C207.585 148.679 207.631 148.303 207.765 147.955Z" fill="#ED6128"/>
<path d="M216.818 151.468L215.61 154.516C214.242 154.441 212.902 154.091 211.671 153.489L212.879 150.44C214.111 151.043 215.45 151.392 216.818 151.468V151.468Z" fill="#ED6128"/>
<path d="M230.141 158.293L228.933 161.341L227.758 159.834L228.966 156.785L230.141 158.293Z" fill="#ED6128"/>
<path d="M230.141 158.293L228.933 161.341L226.566 161.755L227.775 158.707L230.141 158.293Z" fill="#ED6128"/>
<path d="M227.774 158.707L226.566 161.755L225.391 160.248L226.599 157.2L227.774 158.707Z" fill="#ED6128"/>
<path d="M226.599 157.2L225.391 160.248L222.263 160.778L223.471 157.73L226.599 157.2Z" fill="#ED6128"/>
<path d="M232.541 161.374L231.333 164.423L228.933 161.341L230.141 158.293L232.541 161.374Z" fill="#ED6128"/>
<path d="M235.669 160.828L234.461 163.876L231.333 164.423L232.541 161.374L235.669 160.828Z" fill="#ED6128"/>
<path d="M224.63 159.237L223.438 162.286L222.263 160.778L223.471 157.73L224.63 159.237Z" fill="#ED6128"/>
<path d="M214.783 155.543L215.991 152.495C215.878 152.79 215.832 153.107 215.858 153.422C215.945 154.302 216.297 155.134 216.868 155.808C217.31 156.358 217.822 156.848 218.391 157.266C219.007 157.736 219.673 158.136 220.377 158.459C221.085 158.783 221.829 159.023 222.594 159.171C223.274 159.284 223.967 159.284 224.647 159.171L223.438 162.219C222.759 162.332 222.066 162.332 221.386 162.219C220.621 162.071 219.877 161.832 219.168 161.507C218.465 161.184 217.798 160.784 217.182 160.314C216.614 159.896 216.102 159.406 215.66 158.856C215.089 158.182 214.736 157.35 214.65 156.471C214.624 156.155 214.669 155.838 214.783 155.543V155.543Z" fill="#ED6128"/>
<path d="M230.174 161.772L228.966 164.82L225.838 165.367L227.046 162.319L230.174 161.772Z" fill="#ED6128"/>
<path d="M224.564 143.681L222.429 140.931L222.892 140.848L225.822 140.351L227.377 143.184L225.027 143.598L224.564 143.681Z" fill="#FFD64C"/>
<path d="M218.97 143.963L217.282 141.809L215.478 139.506L218.622 138.976L220.41 141.279L222.098 143.433L218.97 143.963Z" fill="#FFD64C"/>
<path d="M213.475 144.907L211.837 142.82L210 140.451L213.128 139.921L214.915 142.223L216.603 144.377L213.475 144.907Z" fill="#FFD64C"/>
<path d="M235.288 157.415L233.153 154.681L233.617 154.599L235.983 154.201L238.681 156.835L235.288 157.415Z" fill="#FFD64C"/>
<path d="M232.541 161.374L230.141 158.293L228.966 156.785L232.094 156.255L233.269 157.763L235.669 160.828L232.541 161.374Z" fill="#FFD64C"/>
<path d="M212.879 150.407C211.654 149.817 210.583 148.95 209.752 147.873C209.279 147.327 208.965 146.662 208.841 145.951C208.767 145.395 208.909 144.831 209.238 144.377C209.623 143.868 210.13 143.463 210.711 143.201C211.079 143.02 211.461 142.871 211.853 142.753L213.508 144.841L216.636 144.311L214.981 142.157L217.348 141.759L219.003 143.913L222.131 143.383L220.476 141.229L222.958 140.799H222.495L224.63 143.532H225.093L233.683 154.549H233.219L235.354 157.282L233.335 157.63L232.16 156.123L229.032 156.653L230.207 158.16L227.841 158.558L226.666 157.05L223.538 157.581L224.713 159.088C224.033 159.201 223.34 159.201 222.66 159.088C221.896 158.94 221.151 158.701 220.443 158.376C219.739 158.053 219.073 157.653 218.457 157.183C217.888 156.765 217.377 156.275 216.934 155.725C216.363 155.051 216.011 154.219 215.925 153.34C215.894 152.96 215.968 152.579 216.137 152.237C216.306 151.896 216.564 151.607 216.885 151.401C215.496 151.345 214.133 151.007 212.879 150.407ZM213.773 146.928C213.858 147.25 214.01 147.549 214.22 147.806C214.464 148.113 214.748 148.386 215.064 148.618C215.394 148.865 215.749 149.076 216.123 149.248C216.482 149.41 216.861 149.527 217.249 149.595C217.61 149.659 217.98 149.659 218.341 149.595L224.448 148.552L221.138 144.211L215.23 145.222C214.911 145.264 214.605 145.377 214.336 145.553C214.122 145.697 213.959 145.906 213.872 146.15C213.797 146.404 213.797 146.674 213.872 146.928H213.773ZM229.744 155.212L226.434 151.053L221.138 151.965C220.87 151.98 220.611 152.067 220.387 152.215C220.163 152.364 219.983 152.569 219.864 152.809C219.786 153.105 219.791 153.415 219.879 153.708C219.966 154 220.133 154.263 220.36 154.466C220.834 155.083 221.462 155.563 222.181 155.858C222.818 156.145 223.525 156.243 224.216 156.139L229.678 155.195" fill="#FFD64C"/>
<path d="M227.046 162.319L224.63 159.237L223.471 157.73L226.599 157.2L227.774 158.707L230.174 161.772L227.046 162.319Z" fill="#FFD64C"/>
<path d="M227.046 162.319L225.838 165.367L223.438 162.286L224.63 159.237L227.046 162.319Z" fill="#ED6128"/>
<path d="M313.636 197.357L324.84 207.446L267.461 281.996L254.519 282.626L245.384 274.342L253.261 276.761" fill="#E27801"/>
<path d="M310.392 265.181C290.648 285.658 265.194 293.344 253.659 281.847C242.123 270.35 248.28 242.998 268.09 222.986C287.901 202.973 313.305 196.015 324.84 207.446C336.375 218.877 328.597 246.295 310.392 265.181Z" fill="#E27801"/>
<path d="M317.624 230.424L327.141 238.708C327.141 238.708 321.629 253.899 314.033 261.122L304.351 252.839" fill="#E5913E"/>
<path d="M300.975 256.633C281.231 277.109 255.777 284.796 244.242 273.299C232.706 261.801 238.863 234.45 258.673 214.437C278.484 194.425 303.888 187.467 315.423 198.898C326.959 210.329 319.18 237.763 300.975 256.633Z" fill="#FFD64C"/>
<path d="M296.021 252.689C312.218 236.322 317.705 215.474 308.277 206.125C298.848 196.775 278.074 202.464 261.877 218.831C245.679 235.199 240.192 256.046 249.621 265.396C259.049 274.746 279.823 269.057 296.021 252.689Z" fill="#FE9B00"/>
<path d="M247.866 256.533C247.734 241.474 257.581 228.734 267.925 218.861C278.268 208.987 293.494 199.13 307.645 205.607C297.963 197.009 277.706 202.791 261.818 218.861C245.615 235.229 240.137 256.069 249.571 265.43L250.051 265.86C248.586 262.972 247.837 259.773 247.866 256.533V256.533Z" fill="#E88400"/>
<path d="M271.45 230.01L274.992 232.843L270.49 234.566L266.948 231.716L271.45 230.01Z" fill="#ED6128"/>
<path d="M267.014 231.07L270.556 233.92L270.49 234.566L266.948 231.716L267.014 231.07Z" fill="#ED6128"/>
<path d="M271.963 226.084L275.505 228.933L275.074 232.197L271.533 229.364L271.963 226.084Z" fill="#ED6128"/>
<path d="M271.533 229.364L275.074 232.197L274.992 232.843L271.45 230.01L271.533 229.364Z" fill="#ED6128"/>
<path d="M270.109 233.191L273.651 236.04L270.109 237.382L266.568 234.533L270.109 233.191Z" fill="#ED6128"/>
<path d="M266.005 238.906L269.53 241.756L265.757 243.197L262.215 240.348L266.005 238.906Z" fill="#ED6128"/>
<path d="M270.109 233.191L273.651 236.04L273.072 240.397L269.53 237.564L270.109 233.191Z" fill="#ED6128"/>
<path d="M269.53 237.564L273.072 240.397L269.53 241.756L266.005 238.906L269.53 237.564Z" fill="#ED6128"/>
<path d="M269.1 240.861L272.641 243.711L269.116 245.053L265.575 242.22L269.1 240.861Z" fill="#ED6128"/>
<path d="M265.095 246.544L268.636 249.393L264.747 250.867L261.205 248.018L265.095 246.544Z" fill="#ED6128"/>
<path d="M277.904 232.213L281.43 235.046L274.297 237.763L270.755 234.914L277.904 232.213Z" fill="#ED6128"/>
<path d="M269.1 240.861L272.641 243.711L272.079 248.084L268.537 245.235L269.1 240.861Z" fill="#ED6128"/>
<path d="M270.755 234.914L274.297 237.763L273.221 246.013L269.679 243.164L270.755 234.914Z" fill="#ED6128"/>
<path d="M268.537 245.235L272.079 248.084L268.636 249.393L265.095 246.544L268.537 245.235Z" fill="#ED6128"/>
<path d="M273.866 248.151L270.325 245.301C270.053 245.085 269.856 244.79 269.762 244.456C269.635 244.026 269.606 243.573 269.679 243.131L273.221 245.98C273.148 246.423 273.176 246.876 273.304 247.306C273.398 247.639 273.595 247.935 273.866 248.151V248.151Z" fill="#ED6128"/>
<path d="M294.024 221.429L297.566 224.261L293.081 225.968L289.539 223.135L294.024 221.429Z" fill="#ED6128"/>
<path d="M289.622 222.472L293.164 225.322L293.081 225.968L289.539 223.135L289.622 222.472Z" fill="#ED6128"/>
<path d="M294.653 216.674L298.195 219.507L297.582 224.261L294.041 221.412L294.653 216.674Z" fill="#ED6128"/>
<path d="M294.041 221.412L297.582 224.261H297.566L294.024 221.429L294.041 221.412Z" fill="#ED6128"/>
<path d="M288.877 228.039L292.419 230.872L285.6 233.473L282.059 230.623L288.877 228.039Z" fill="#ED6128"/>
<path d="M282.058 230.623L285.6 233.472L284.624 240.878L281.082 238.028L282.058 230.623Z" fill="#ED6128"/>
<path d="M293.66 224.245L297.202 227.078L294.719 228.022L291.178 225.173L293.66 224.245Z" fill="#ED6128"/>
<path d="M294.024 221.429L297.566 224.261L297.202 227.078L293.66 224.245L294.024 221.429Z" fill="#ED6128"/>
<path d="M281.082 238.028L284.624 240.878C284.534 241.24 284.541 241.619 284.646 241.977C284.751 242.336 284.949 242.659 285.22 242.916L281.678 240.066C281.407 239.81 281.209 239.486 281.104 239.128C281 238.77 280.992 238.39 281.082 238.028V238.028Z" fill="#ED6128"/>
<path d="M291.178 225.173L294.719 228.022L294.157 232.396L290.615 229.546L291.178 225.173Z" fill="#ED6128"/>
<path d="M270.242 254.065L266.7 251.215C267.104 251.538 267.582 251.754 268.09 251.845C269.088 251.972 270.101 251.823 271.02 251.414C272.785 250.751 274.372 249.684 275.654 248.3L279.195 251.149C277.914 252.534 276.327 253.6 274.561 254.264C273.642 254.672 272.629 254.821 271.632 254.694C271.124 254.603 270.646 254.387 270.242 254.065V254.065Z" fill="#ED6128"/>
<path d="M278.599 243.479L282.141 246.328C281.481 248.119 280.468 249.758 279.162 251.149L275.62 248.3C276.926 246.909 277.94 245.269 278.599 243.479V243.479Z" fill="#ED6128"/>
<path d="M293.081 228.618L296.622 231.451L294.157 232.396L290.615 229.546L293.081 228.618Z" fill="#ED6128"/>
<path d="M293.081 228.618L296.622 231.451L296.192 234.748L292.65 231.915L293.081 228.618Z" fill="#ED6128"/>
<path d="M292.65 231.915L296.192 234.748L293.726 235.692L290.168 232.86L292.65 231.915Z" fill="#ED6128"/>
<path d="M290.168 232.86L293.726 235.692L293.147 240.066L289.605 237.233L290.168 232.86Z" fill="#ED6128"/>
<path d="M298.145 226.68L301.687 229.53L296.622 231.451L293.081 228.618L298.145 226.68Z" fill="#ED6128"/>
<path d="M298.708 222.323L302.249 225.156L301.687 229.53L298.145 226.68L298.708 222.323Z" fill="#ED6128"/>
<path d="M292.071 236.289L295.613 239.138L293.147 240.066L289.605 237.233L292.071 236.289Z" fill="#ED6128"/>
<path d="M283.151 247.852L279.609 245.003C279.955 245.271 280.356 245.458 280.784 245.55C281.985 245.795 283.232 245.668 284.359 245.185C285.271 244.829 286.134 244.355 286.924 243.777C287.796 243.149 288.595 242.427 289.307 241.623C290.028 240.817 290.651 239.927 291.161 238.973C291.617 238.13 291.93 237.217 292.088 236.272L295.63 239.122C295.472 240.067 295.158 240.979 294.703 241.822C294.192 242.776 293.57 243.666 292.849 244.473C292.137 245.276 291.337 245.999 290.466 246.626C289.675 247.205 288.813 247.678 287.901 248.035C286.774 248.517 285.527 248.644 284.326 248.399C283.898 248.307 283.497 248.121 283.151 247.852Z" fill="#ED6128"/>
<path d="M297.715 229.993L301.24 232.826L300.677 237.2L297.135 234.367L297.715 229.993Z" fill="#ED6128"/>
<path d="M271.45 230.01L266.948 231.716L267.031 231.07L267.561 226.978L271.963 226.084L271.533 229.364L271.45 230.01Z" fill="#FFD64C"/>
<path d="M269.53 237.564L266.005 238.906L262.215 240.348L262.778 235.974L266.568 234.533L270.109 233.191L269.53 237.564Z" fill="#FFD64C"/>
<path d="M268.537 245.235L265.095 246.544L261.205 248.018L261.785 243.644L265.575 242.22L269.1 240.861L268.537 245.235Z" fill="#FFD64C"/>
<path d="M294.041 221.412L294.024 221.429L289.539 223.135L289.622 222.472L290.052 219.175L294.653 216.674L294.041 221.412Z" fill="#FFD64C"/>
<path d="M298.145 226.68L293.081 228.618L290.615 229.546L291.178 225.173L293.66 224.245L298.708 222.323L298.145 226.68Z" fill="#FFD64C"/>
<path d="M275.637 248.3C274.355 249.684 272.769 250.751 271.003 251.414C270.084 251.823 269.071 251.972 268.074 251.845C267.309 251.718 266.622 251.303 266.154 250.685C265.644 249.97 265.32 249.139 265.211 248.267C265.127 247.718 265.089 247.164 265.095 246.61L268.537 245.301L269.1 240.927L265.558 242.269L265.988 238.956L269.53 237.614L270.093 233.241L266.551 234.582L266.998 231.12V231.766L271.5 230.109L271.582 229.463L289.671 222.588L289.589 223.234L294.074 221.578L293.71 224.394L291.227 225.338L290.664 229.712L293.147 228.768L292.717 232.081L290.234 233.025L289.671 237.399L292.137 236.455C291.979 237.4 291.666 238.312 291.211 239.155C290.7 240.109 290.078 240.999 289.357 241.806C288.644 242.609 287.845 243.332 286.974 243.959C286.183 244.538 285.321 245.011 284.409 245.367C283.282 245.85 282.035 245.977 280.834 245.732C280.32 245.614 279.847 245.359 279.465 244.995C279.084 244.63 278.807 244.17 278.666 243.661C277.97 245.391 276.941 246.967 275.637 248.3ZM271.4 245.699C271.859 245.718 272.316 245.639 272.741 245.467C273.249 245.267 273.727 244.999 274.164 244.672C274.623 244.336 275.044 243.953 275.422 243.528C275.785 243.121 276.096 242.67 276.349 242.187C276.586 241.737 276.743 241.249 276.812 240.745L277.921 232.213L270.755 234.897L269.679 243.181C269.606 243.623 269.635 244.076 269.762 244.506C269.862 244.85 270.071 245.152 270.358 245.367C270.66 245.576 271.017 245.691 271.384 245.699H271.4ZM288.877 228.039L282.058 230.64L281.099 238.045C281.008 238.407 281.016 238.786 281.121 239.144C281.226 239.503 281.423 239.826 281.694 240.083C282.059 240.293 282.473 240.404 282.894 240.404C283.315 240.404 283.729 240.293 284.094 240.083C285.109 239.706 286.006 239.065 286.692 238.227C287.335 237.5 287.754 236.602 287.901 235.643L288.894 228.005" fill="#FFD64C"/>
<path d="M297.135 234.367L292.071 236.289L289.605 237.233L290.168 232.86L292.65 231.915L297.715 229.993L297.135 234.367Z" fill="#FFD64C"/>
<path d="M297.135 234.367L300.677 237.2L295.613 239.138L292.071 236.289L297.135 234.367Z" fill="#ED6128"/>
<path opacity="0.24" d="M272.079 310.441C288.029 310.441 300.958 306.08 300.958 300.7C300.958 295.32 288.029 290.959 272.079 290.959C256.129 290.959 243.199 295.32 243.199 300.7C243.199 306.08 256.129 310.441 272.079 310.441Z" fill="#56403D"/>
<path opacity="0.24" d="M216.504 245.583C226.229 245.583 234.113 242.927 234.113 239.652C234.113 236.376 226.229 233.721 216.504 233.721C206.778 233.721 198.895 236.376 198.895 239.652C198.895 242.927 206.778 245.583 216.504 245.583Z" fill="#56403D"/>
<defs>
<linearGradient id="paint0_linear" x1="199.259" y1="293.212" x2="160.757" y2="356.562" gradientUnits="userSpaceOnUse">
<stop stop-color="#D4A397"/>
<stop offset="1" stop-color="white"/>
</linearGradient>
<linearGradient id="paint1_linear" x1="265.128" y1="139.092" x2="261.38" y2="340.145" gradientUnits="userSpaceOnUse">
<stop stop-color="white" stop-opacity="0"/>
<stop offset="1" stop-color="#00FFFF"/>
</linearGradient>
<linearGradient id="paint2_linear" x1="29758.2" y1="8073.27" x2="28048.5" y2="10856.2" gradientUnits="userSpaceOnUse">
<stop stop-color="#D4A397"/>
<stop offset="1" stop-color="white"/>
</linearGradient>
</defs>
</svg>
