<svg width="330" height="313" viewBox="0 0 330 313" fill="none" xmlns="http://www.w3.org/2000/svg">
<path d="M45.784 224.591C45.784 224.591 3.95473 257.591 0.869822 260.671C-2.21508 263.751 45.9016 314.946 52.6727 312.214C59.4438 309.482 76.986 287.95 76.986 287.95L45.784 224.591Z" fill="#231F20"/>
<path d="M52.15 312.987C44.0063 312.987 10.2161 277.384 2.17706 265.516C0.150958 262.527 -0.43726 260.993 0.386254 260.233C3.47116 257.153 43.6534 225.441 45.3658 224.088C45.443 224.03 45.5318 223.989 45.6264 223.966C45.721 223.944 45.8192 223.942 45.9148 223.96C46.0089 223.985 46.0969 224.029 46.1733 224.089C46.2497 224.148 46.313 224.223 46.3592 224.308L77.4959 287.679C77.5484 287.787 77.5689 287.907 77.555 288.026C77.5412 288.144 77.4935 288.257 77.4175 288.35C76.6985 289.239 59.7446 310.126 52.895 312.832C52.6602 312.934 52.4065 312.987 52.15 312.987V312.987ZM45.6141 225.596C40.3855 229.771 4.21624 258.313 1.39277 261.135C0.752255 263.88 23.8237 290.025 40.2417 304.006C49.5487 311.93 52.0062 311.879 52.4898 311.66C58.5812 309.237 74.0319 290.54 76.2149 287.873L45.6141 225.596Z" fill="#231F20"/>
<path d="M291.518 81.3915C292.132 81.1209 316.354 56.4834 316.916 49.9761C317.478 43.4688 263.506 -1.9791 256.944 0.791334C250.382 3.56176 227.702 38.6109 227.702 38.6109L290.446 79.4329" fill="#231F20"/>
<path d="M291.518 82.0363C291.377 82.0359 291.24 81.9907 291.127 81.9073C291.014 81.8239 290.932 81.7068 290.892 81.5735C290.853 81.4401 290.858 81.2978 290.907 81.1675C290.956 81.0373 291.047 80.9262 291.165 80.8508C292.472 79.8071 315.713 56.0329 316.262 49.9251C316.615 46.1367 293.008 24.1537 273.466 10.1727C260.734 1.02382 257.78 1.15268 257.205 1.38462C252.251 3.44634 236.539 26.2025 228.604 38.4182L290.838 78.8922C290.982 78.989 291.082 79.1377 291.116 79.3064C291.151 79.475 291.116 79.6501 291.021 79.7942C290.925 79.9354 290.777 80.0336 290.608 80.0674C290.439 80.1012 290.263 80.0678 290.119 79.9746L227.31 39.1398C227.17 39.0455 227.073 38.9015 227.039 38.7381C227.005 38.5746 227.036 38.4045 227.127 38.2635C228.055 36.8203 250.002 2.96957 256.669 0.199138C257.466 -0.148776 259.885 -1.15386 274.211 9.12894C291.649 21.6667 318.001 44.977 317.544 50.0411C316.903 57.0509 291.988 81.8817 291.753 81.9848C291.679 82.0159 291.599 82.0334 291.518 82.0363V82.0363Z" fill="#231F20"/>
<path d="M164.2 307.42C246.276 307.42 312.812 241.831 312.812 160.923C312.812 80.0143 246.276 14.425 164.2 14.425C82.1242 14.425 15.5886 80.0143 15.5886 160.923C15.5886 241.831 82.1242 307.42 164.2 307.42Z" fill="white"/>
<path d="M164.2 308.065C134.678 308.065 105.819 299.435 81.2727 283.267C56.7262 267.099 37.5945 244.118 26.297 217.231C14.9995 190.345 12.0435 160.759 17.803 132.217C23.5624 103.674 37.7785 77.4558 58.6536 56.8776C79.5287 36.2994 106.125 22.2855 135.08 16.608C164.034 10.9305 194.047 13.8444 221.321 24.9812C248.596 36.118 271.908 54.9776 288.309 79.175C304.711 103.372 313.465 131.821 313.465 160.923C313.42 199.934 297.679 237.334 269.697 264.919C241.714 292.504 203.774 308.02 164.2 308.065V308.065ZM164.2 15.0693C134.937 15.0693 106.33 23.6234 81.9989 39.65C57.6674 55.6766 38.7032 78.4558 27.5047 105.107C16.3061 131.758 13.376 161.084 19.085 189.377C24.794 217.67 38.8856 243.659 59.5779 264.057C80.2702 284.455 106.634 298.346 135.335 303.974C164.036 309.601 193.785 306.713 220.821 295.674C247.857 284.634 270.965 265.94 287.222 241.954C303.48 217.969 312.158 189.77 312.158 160.923C312.113 122.254 296.51 85.1809 268.772 57.8377C241.035 30.4945 203.427 15.1136 164.2 15.0693V15.0693Z" fill="#231F20"/>
<path d="M146.21 83.965L108.157 61.2835L92.1565 87.37L130.209 110.051L146.21 83.965Z" fill="white"/>
<path d="M129.273 109.625C129.154 109.621 129.038 109.59 128.933 109.534L91.1427 86.9329C91.0685 86.8892 91.0039 86.8314 90.9526 86.763C90.9012 86.6945 90.8641 86.6167 90.8434 86.534C90.8228 86.4513 90.8189 86.3654 90.8322 86.2813C90.8454 86.1972 90.8754 86.1164 90.9205 86.0438L106.868 60.092C106.957 59.9479 107.101 59.8442 107.267 59.8032C107.433 59.7622 107.609 59.7873 107.757 59.8729L145.664 82.4744C145.813 82.5646 145.921 82.7076 145.965 82.8739C145.986 82.9566 145.989 83.0424 145.976 83.1265C145.962 83.2105 145.932 83.2911 145.887 83.3636L129.939 109.315C129.847 109.459 129.702 109.561 129.534 109.599L129.273 109.625ZM92.3714 86.1597L129.09 108.065L144.37 83.2218L107.639 61.3161L92.3714 86.1597Z" fill="#231F20"/>
<path d="M129.332 108.962L91.4885 86.3596L75.5439 112.303L113.388 134.905L129.332 108.962Z" fill="white"/>
<path d="M113.364 135.564C113.244 135.566 113.127 135.535 113.024 135.473L75.1819 112.872C75.0364 112.781 74.9331 112.638 74.8943 112.472C74.8553 112.309 74.8836 112.138 74.9728 111.996L90.9202 86.0437C91.0116 85.8973 91.1567 85.7912 91.3254 85.7473C91.4906 85.7089 91.6646 85.7367 91.809 85.8247L129.651 108.426C129.796 108.52 129.903 108.662 129.952 108.826C129.992 108.993 129.964 109.168 129.874 109.315L113.926 135.254C113.868 135.349 113.785 135.428 113.686 135.482C113.588 135.536 113.477 135.564 113.364 135.564V135.564ZM76.4237 112.112L113.142 134.017L128.41 109.174L91.6914 87.2679L76.4237 112.112Z" fill="#231F20"/>
<path d="M126.789 101.417C126.674 101.419 126.56 101.387 126.462 101.326C126.391 101.287 126.329 101.233 126.279 101.168C126.23 101.104 126.194 101.03 126.174 100.952C126.155 100.874 126.152 100.792 126.165 100.712C126.179 100.633 126.209 100.557 126.253 100.489L136.214 84.2784C136.257 84.209 136.313 84.1486 136.38 84.1007C136.446 84.0527 136.522 84.0182 136.602 83.9991C136.682 83.9799 136.765 83.9765 136.847 83.9891C136.928 84.0016 137.006 84.0299 137.076 84.0722C137.216 84.1599 137.316 84.2974 137.355 84.456C137.394 84.6145 137.369 84.7818 137.286 84.9227L127.325 101.107C127.271 101.2 127.193 101.278 127.099 101.332C127.005 101.386 126.898 101.415 126.789 101.417V101.417Z" fill="#D1D3D4"/>
<path d="M122.802 93.904C122.693 93.9046 122.585 93.878 122.489 93.8267C122.418 93.7844 122.357 93.7289 122.308 93.6633C122.26 93.5976 122.225 93.5232 122.205 93.4442C122.186 93.3652 122.182 93.2832 122.195 93.2029C122.208 93.1226 122.236 93.0456 122.279 92.9763L129.926 80.49C129.963 80.4118 130.017 80.3422 130.083 80.2856C130.149 80.229 130.227 80.1867 130.311 80.1614C130.395 80.1362 130.483 80.1285 130.57 80.139C130.657 80.1494 130.741 80.1777 130.816 80.222C130.891 80.2663 130.956 80.3257 131.007 80.3963C131.057 80.4669 131.092 80.5472 131.109 80.6319C131.127 80.7166 131.126 80.804 131.106 80.8883C131.087 80.9726 131.05 81.052 130.998 81.1214L123.338 93.569C123.287 93.6668 123.211 93.7493 123.116 93.8082C123.022 93.8671 122.914 93.9002 122.802 93.904V93.904Z" fill="#D1D3D4"/>
<path d="M114.214 93.9041C114.099 93.9063 113.985 93.875 113.887 93.8139C113.817 93.7728 113.756 93.7185 113.708 93.654C113.659 93.5895 113.624 93.5162 113.605 93.4382C113.586 93.3603 113.582 93.2793 113.595 93.2C113.607 93.1207 113.636 93.0447 113.678 92.9763L121.756 79.8328C121.843 79.6961 121.98 79.5981 122.139 79.5596C122.297 79.5211 122.465 79.5452 122.606 79.6266C122.748 79.7123 122.85 79.8488 122.892 80.0075C122.933 80.1663 122.91 80.3346 122.828 80.4771L114.75 93.6077C114.694 93.6983 114.615 93.7731 114.521 93.825C114.428 93.8769 114.322 93.9042 114.214 93.9041Z" fill="#D1D3D4"/>
<path d="M107.927 90.1543C107.811 90.1565 107.698 90.1251 107.6 90.0641C107.53 90.0218 107.468 89.9663 107.42 89.9006C107.371 89.835 107.336 89.7606 107.317 89.6816C107.297 89.6026 107.294 89.5206 107.307 89.4403C107.319 89.36 107.348 89.283 107.391 89.2136L111.43 82.6549C111.473 82.5855 111.529 82.5251 111.596 82.4772C111.662 82.4293 111.738 82.3947 111.818 82.3756C111.898 82.3564 111.981 82.3531 112.063 82.3656C112.144 82.3782 112.222 82.4064 112.293 82.4487C112.431 82.534 112.531 82.6692 112.57 82.8257C112.609 82.9821 112.585 83.1473 112.502 83.2863L108.463 89.8579C108.407 89.9485 108.328 90.0233 108.234 90.0752C108.14 90.1271 108.034 90.1543 107.927 90.1543V90.1543Z" fill="#D1D3D4"/>
<path d="M114.397 79.6267C114.282 79.6275 114.169 79.5962 114.07 79.5365C113.931 79.4488 113.831 79.3113 113.792 79.1528C113.753 78.9942 113.778 78.827 113.861 78.686L117.351 73.0163C117.444 72.8931 117.58 72.8083 117.733 72.7783C117.885 72.7482 118.044 72.7752 118.177 72.8539C118.311 72.9326 118.41 73.0574 118.455 73.2041C118.501 73.3508 118.489 73.5089 118.423 73.6478L114.894 79.3303C114.842 79.4155 114.769 79.487 114.682 79.5386C114.596 79.5902 114.498 79.6204 114.397 79.6267Z" fill="#D1D3D4"/>
<path d="M103.652 83.0672C103.542 83.0632 103.434 83.0322 103.338 82.977C103.268 82.9347 103.207 82.8792 103.158 82.8135C103.109 82.7479 103.074 82.6735 103.055 82.5945C103.036 82.5155 103.032 82.4335 103.045 82.3532C103.058 82.2729 103.086 82.1959 103.129 82.1265L111.064 69.2409C111.153 69.1033 111.292 69.005 111.453 68.9666C111.614 68.9281 111.783 68.9526 111.926 69.0347C111.997 69.077 112.058 69.1325 112.107 69.1982C112.155 69.2638 112.19 69.3382 112.21 69.4172C112.229 69.4962 112.233 69.5782 112.22 69.6585C112.207 69.7388 112.179 69.8158 112.136 69.8852L104.188 82.7708C104.133 82.8622 104.054 82.9378 103.96 82.9898C103.866 83.0418 103.76 83.0685 103.652 83.0672V83.0672Z" fill="#D1D3D4"/>
<path d="M110.829 127.368C110.717 127.37 110.608 127.339 110.515 127.278C110.443 127.238 110.381 127.185 110.332 127.12C110.282 127.056 110.246 126.982 110.227 126.904C110.207 126.825 110.204 126.744 110.218 126.664C110.231 126.584 110.261 126.508 110.306 126.44L120.266 110.23C120.303 110.15 120.356 110.078 120.423 110.02C120.49 109.962 120.569 109.919 120.655 109.893C120.74 109.867 120.83 109.859 120.918 109.871C121.007 109.882 121.092 109.912 121.168 109.958C121.244 110.004 121.309 110.066 121.359 110.139C121.409 110.212 121.442 110.294 121.457 110.381C121.472 110.468 121.468 110.557 121.445 110.642C121.422 110.727 121.381 110.806 121.325 110.875L111.364 127.072C111.309 127.163 111.231 127.239 111.137 127.291C111.043 127.343 110.936 127.37 110.829 127.368V127.368Z" fill="#D1D3D4"/>
<path d="M106.855 119.856C106.742 119.855 106.63 119.829 106.528 119.779C106.458 119.736 106.397 119.681 106.348 119.615C106.299 119.55 106.264 119.475 106.245 119.396C106.226 119.317 106.222 119.235 106.235 119.155C106.248 119.075 106.276 118.998 106.319 118.928L113.979 106.48C114.021 106.412 114.077 106.352 114.142 106.305C114.207 106.257 114.282 106.223 114.361 106.204C114.44 106.185 114.521 106.181 114.602 106.193C114.682 106.205 114.759 106.233 114.829 106.274C114.898 106.316 114.959 106.37 115.007 106.435C115.055 106.499 115.09 106.573 115.109 106.65C115.129 106.728 115.132 106.809 115.12 106.888C115.108 106.967 115.08 107.043 115.038 107.112L107.391 119.572C107.333 119.66 107.253 119.731 107.159 119.781C107.066 119.83 106.961 119.856 106.855 119.856V119.856Z" fill="#D1D3D4"/>
<path d="M98.2537 119.856C98.1442 119.856 98.0363 119.83 97.9399 119.779C97.8695 119.736 97.8083 119.681 97.7596 119.615C97.711 119.55 97.676 119.475 97.6566 119.396C97.6372 119.317 97.6337 119.235 97.6464 119.155C97.6592 119.075 97.6878 118.998 97.7308 118.928L105.796 105.785C105.887 105.65 106.026 105.553 106.186 105.515C106.346 105.477 106.515 105.5 106.659 105.579C106.729 105.621 106.79 105.676 106.839 105.742C106.888 105.808 106.923 105.882 106.942 105.961C106.961 106.04 106.965 106.122 106.952 106.202C106.939 106.283 106.911 106.36 106.868 106.429L98.7896 119.56C98.7345 119.651 98.656 119.727 98.5619 119.779C98.4678 119.831 98.3615 119.857 98.2537 119.856V119.856Z" fill="#D1D3D4"/>
<path d="M239.671 169.235L181.236 215.999L184.465 219.921L242.901 173.157L239.671 169.235Z" fill="white"/>
<path d="M184.461 220.596H184.396C184.223 220.578 184.064 220.495 183.951 220.365L180.722 216.499C180.615 216.363 180.565 216.191 180.585 216.02C180.605 215.849 180.691 215.693 180.827 215.584L239.257 168.822C239.395 168.716 239.569 168.667 239.743 168.686C239.916 168.706 240.075 168.791 240.185 168.925L243.414 172.791C243.518 172.928 243.569 173.097 243.558 173.267C243.539 173.438 243.455 173.594 243.323 173.705L184.879 220.468C184.758 220.555 184.611 220.6 184.461 220.596V220.596ZM182.147 216.112L184.565 219.037L241.989 173.1L239.571 170.162L182.147 216.112Z" fill="#231F20"/>
<path d="M242.024 173.856L185.345 219.214L209.138 248.106L265.817 202.748L242.024 173.856Z" fill="white"/>
<path d="M209.14 248.79H209.01C208.926 248.782 208.844 248.758 208.77 248.718C208.696 248.678 208.631 248.624 208.578 248.558L184.84 219.656C184.731 219.522 184.679 219.351 184.697 219.18C184.714 219.009 184.798 218.851 184.932 218.741L241.61 173.383C241.748 173.277 241.922 173.228 242.096 173.248C242.269 173.267 242.428 173.353 242.538 173.486L266.329 202.376C266.432 202.513 266.483 202.682 266.472 202.853C266.448 203.021 266.365 203.176 266.237 203.291L209.546 248.636C209.434 248.734 209.29 248.789 209.14 248.79V248.79ZM186.265 219.334L209.232 247.231L264.904 202.685L241.937 174.801L186.265 219.334Z" fill="#231F20"/>
<path d="M202.474 234.229C202.382 234.23 202.291 234.211 202.207 234.173C202.124 234.135 202.049 234.079 201.99 234.01L190.173 219.656C190.119 219.593 190.078 219.52 190.052 219.442C190.027 219.363 190.019 219.28 190.027 219.198C190.036 219.116 190.061 219.037 190.102 218.965C190.143 218.893 190.198 218.83 190.265 218.779L240.512 178.576C240.574 178.523 240.647 178.484 240.726 178.462C240.805 178.439 240.889 178.434 240.97 178.447C241.132 178.467 241.28 178.545 241.388 178.666L253.244 193.085C253.297 193.148 253.336 193.219 253.36 193.297C253.384 193.374 253.392 193.456 253.383 193.536C253.375 193.617 253.35 193.695 253.31 193.765C253.271 193.836 253.217 193.899 253.152 193.949L202.918 234.152C202.784 234.23 202.626 234.258 202.474 234.229V234.229ZM191.48 219.295L202.565 232.76L251.832 193.33L240.761 179.878L191.48 219.295Z" fill="#D1D3D4"/>
<path d="M228.983 228.328C228.888 228.328 228.794 228.307 228.708 228.267C228.622 228.227 228.546 228.168 228.486 228.096L222.695 221.06C222.642 220.999 222.603 220.927 222.58 220.849C222.558 220.771 222.553 220.689 222.565 220.609C222.571 220.529 222.595 220.452 222.633 220.381C222.671 220.31 222.723 220.247 222.787 220.197L235.27 210.21C235.333 210.159 235.406 210.12 235.485 210.096C235.563 210.073 235.646 210.065 235.727 210.073C235.809 210.082 235.888 210.106 235.96 210.145C236.032 210.184 236.095 210.237 236.146 210.301L241.937 217.336C241.989 217.398 242.029 217.47 242.053 217.548C242.077 217.625 242.084 217.707 242.076 217.787C242.067 217.867 242.043 217.945 242.003 218.016C241.963 218.087 241.91 218.15 241.845 218.2L229.375 228.186C229.263 228.274 229.126 228.324 228.983 228.328ZM224.055 220.764L229.074 226.846L240.577 217.633L235.571 211.551L224.055 220.764Z" fill="#D1D3D4"/>
<path d="M248.552 285.888C248.552 285.888 268.695 311.879 274.603 312.356C280.512 312.832 330.014 266.134 328.367 261.612C326.72 257.089 297.792 232.606 297.792 232.606L248.552 285.888Z" fill="#231F20"/>
<path d="M274.668 313H274.551C268.525 312.51 250.107 288.968 248.028 286.288C247.927 286.171 247.872 286.023 247.872 285.869C247.872 285.716 247.927 285.567 248.028 285.45L297.269 232.168C297.391 232.05 297.556 231.984 297.727 231.984C297.898 231.984 298.062 232.05 298.184 232.168C299.361 233.173 327.256 256.805 328.942 261.444C329.19 262.114 329.06 263.3 326.197 266.985C316.655 279.252 280.538 313 274.668 313ZM249.401 285.94C255.218 293.388 270.133 311.364 274.655 311.711H274.734C278.891 311.711 309.217 284.819 322.798 269.047C327.896 263.132 327.779 261.947 327.752 261.818C326.445 258.313 306.184 240.582 297.844 233.469L249.401 285.94Z" fill="#231F20"/>
<path d="M217.415 256.509C217.415 256.509 219.088 247.038 218.395 245.053C217.702 243.069 216.029 238.688 214.957 239.899C213.885 241.11 214.552 245.053 214.552 245.053C214.552 245.053 212.578 242.193 210.735 239.255C208.892 236.317 207.18 236.33 207.101 237.348C207.469 239.149 208.016 240.91 208.735 242.605C208.735 242.605 206.238 236.755 205.271 238.185C204.304 239.616 206.252 244.796 206.252 244.796C206.252 244.796 203.428 238.482 202.33 240.621C201.232 242.76 202.539 247.27 203.323 248.829C204.108 250.388 210.683 262.037 210.683 262.037L218.356 256.148" fill="white"/>
<path d="M210.735 262.604H210.605C210.513 262.584 210.427 262.547 210.35 262.494C210.274 262.441 210.209 262.373 210.16 262.295C209.899 261.818 203.624 250.607 202.788 249.048C201.951 247.489 200.579 242.708 201.794 240.273C201.89 240.043 202.05 239.846 202.257 239.704C202.463 239.563 202.706 239.483 202.958 239.474C203.249 239.519 203.529 239.621 203.78 239.773C204.032 239.926 204.25 240.126 204.422 240.363C204.247 239.494 204.352 238.593 204.722 237.786C204.829 237.617 204.98 237.479 205.16 237.389C205.339 237.298 205.541 237.257 205.742 237.27C206.013 237.313 206.266 237.429 206.474 237.605C206.462 237.485 206.462 237.365 206.474 237.245C206.489 236.974 206.591 236.714 206.765 236.504C206.939 236.293 207.175 236.142 207.441 236.072C208.592 235.789 210.056 236.845 211.363 238.868C212.199 240.157 213.075 241.523 213.768 242.566C213.671 241.474 213.947 240.381 214.552 239.461C214.686 239.305 214.859 239.187 215.054 239.119C215.25 239.051 215.46 239.036 215.663 239.074C216.108 239.165 217.167 239.371 219.088 244.873C219.689 246.587 218.774 252.772 218.33 255.478C218.452 255.446 218.581 255.451 218.7 255.493C218.818 255.534 218.922 255.61 218.997 255.71C219.103 255.843 219.152 256.013 219.133 256.182C219.113 256.351 219.027 256.506 218.892 256.612L211.219 262.501C211.078 262.596 210.904 262.633 210.735 262.604V262.604ZM202.997 240.775C202.121 242.541 203.141 246.729 203.977 248.417C204.644 249.705 209.559 258.455 210.958 260.942L216.787 256.47C216.781 256.432 216.781 256.393 216.787 256.354C217.415 252.746 218.251 246.548 217.781 245.221C216.474 241.355 215.663 240.518 215.415 240.311C214.879 241.072 214.971 243.365 215.206 244.821C215.231 244.964 215.206 245.111 215.135 245.238C215.064 245.365 214.95 245.463 214.814 245.517C214.676 245.573 214.523 245.58 214.38 245.537C214.237 245.495 214.114 245.406 214.029 245.285C214.029 245.285 212.016 242.386 210.186 239.474C208.879 237.374 207.873 237.219 207.742 237.258C208.117 238.966 208.656 240.636 209.35 242.244C209.381 242.322 209.397 242.405 209.396 242.489C209.394 242.573 209.376 242.656 209.342 242.732C209.308 242.809 209.259 242.878 209.197 242.936C209.136 242.994 209.063 243.039 208.984 243.069C208.906 243.102 208.822 243.12 208.737 243.12C208.652 243.121 208.568 243.104 208.49 243.072C208.412 243.039 208.341 242.991 208.282 242.931C208.223 242.871 208.177 242.799 208.147 242.721C207.569 241.226 206.763 239.826 205.755 238.572C205.428 239.513 206.056 242.257 206.879 244.448C206.935 244.607 206.927 244.781 206.857 244.935C206.786 245.088 206.658 245.209 206.5 245.272C206.344 245.333 206.169 245.333 206.014 245.27C205.858 245.208 205.732 245.089 205.663 244.937C205.064 243.389 204.158 241.974 202.997 240.775V240.775Z" fill="#231F20"/>
<path d="M243.675 209.656C243.675 209.656 234.277 212.234 232.212 211.77C230.146 211.306 225.545 210.095 226.617 208.922C227.689 207.749 231.741 208.007 231.741 208.007C231.741 208.007 228.656 206.358 225.506 204.837C222.356 203.317 222.199 201.641 223.218 201.474C225.071 201.65 226.902 202.008 228.682 202.543C228.682 202.543 222.539 200.675 223.885 199.593C225.231 198.51 230.656 199.889 230.656 199.889C230.656 199.889 224.003 197.75 226.003 196.461C228.003 195.173 232.748 195.998 234.395 196.616C236.042 197.235 248.46 202.518 248.46 202.518L243.231 210.623" fill="white"/>
<path d="M232.852 212.466C232.585 212.471 232.317 212.445 232.055 212.388C226.317 211.1 225.99 210.043 225.859 209.605C225.798 209.411 225.791 209.204 225.839 209.007C225.887 208.81 225.989 208.629 226.134 208.484C227.004 207.8 228.079 207.419 229.192 207.401C228.068 206.822 226.656 206.113 225.271 205.417C223.101 204.373 221.898 203.059 222.068 201.899C222.115 201.632 222.246 201.385 222.444 201.195C222.641 201.006 222.894 200.882 223.166 200.843C223.228 200.874 223.297 200.89 223.367 200.888C223.436 200.885 223.504 200.865 223.564 200.83C223.623 200.794 223.672 200.744 223.707 200.684C223.741 200.624 223.759 200.557 223.759 200.488C223.759 200.42 223.741 200.352 223.707 200.292C223.672 200.233 223.623 200.182 223.564 200.147C223.504 200.111 223.436 200.091 223.367 200.089C223.297 200.087 223.228 200.102 223.166 200.134C223.128 199.94 223.146 199.739 223.218 199.555C223.289 199.37 223.412 199.209 223.572 199.09C224.361 198.635 225.277 198.441 226.186 198.536C225.671 198.238 225.295 197.752 225.14 197.183C225.123 196.935 225.18 196.687 225.303 196.47C225.426 196.253 225.61 196.075 225.833 195.959C228.173 194.541 233.127 195.444 234.787 196.062C236.447 196.681 248.382 201.758 248.891 201.977C248.977 202.014 249.055 202.069 249.118 202.138C249.181 202.207 249.228 202.288 249.257 202.376C249.283 202.464 249.29 202.556 249.279 202.647C249.268 202.737 249.238 202.825 249.192 202.904L243.963 211.022C243.869 211.165 243.723 211.267 243.555 211.305C243.386 211.343 243.21 211.316 243.061 211.229C242.954 211.164 242.868 211.07 242.815 210.958C242.761 210.845 242.742 210.72 242.761 210.597C239.524 211.524 236.207 212.149 232.852 212.466V212.466ZM227.166 209.347C227.389 209.566 228.369 210.262 232.395 211.19C233.781 211.512 239.963 210.069 243.532 209.09H243.65L247.571 202.93C244.957 201.796 235.624 197.84 234.225 197.325C232.434 196.668 228.121 196.036 226.382 197.119C226.29 197.119 226.277 197.209 226.277 197.209C227.658 198.179 229.203 198.899 230.839 199.335C231.003 199.386 231.141 199.498 231.221 199.647C231.302 199.797 231.32 199.972 231.271 200.134C231.222 200.295 231.112 200.431 230.963 200.513C230.814 200.595 230.638 200.616 230.473 200.572C228.173 199.979 225.336 199.657 224.434 200.057C225.8 200.926 227.295 201.578 228.866 201.989C229.039 202.037 229.186 202.151 229.274 202.306C229.362 202.46 229.385 202.643 229.336 202.814C229.288 202.985 229.172 203.13 229.015 203.217C228.858 203.304 228.673 203.326 228.5 203.278C226.798 202.749 225.046 202.395 223.271 202.221C223.271 202.337 223.519 203.304 225.741 204.373C228.866 205.881 231.964 207.543 232.003 207.556C232.137 207.626 232.242 207.739 232.3 207.876C232.359 208.014 232.367 208.167 232.324 208.31C232.281 208.453 232.189 208.576 232.063 208.66C231.938 208.743 231.787 208.781 231.637 208.767C230.186 208.561 227.846 208.703 227.166 209.347Z" fill="#231F20"/>
<path d="M262.603 268.622C260.295 273.08 258.337 277.707 256.747 282.461C256.747 282.461 237.649 277.307 236.368 276.662C235.087 276.018 219.258 252.643 219.258 252.643L208.565 260.22C208.565 260.22 222.8 284.394 226.186 287.28C229.571 290.166 250.721 299.998 258.407 300.939C266.093 301.88 282.014 292.602 292.498 282.164C302.981 271.727 315.282 250.324 313.295 242.451C311.308 234.577 304.981 230.261 302.563 228.663C300.145 227.065 287.308 215.275 285.217 213.973C283.126 212.672 247.152 199.412 247.152 199.412L243.322 210.636C243.322 210.636 275.779 224.411 277.701 225.622C279.622 226.833 294.014 246.239 294.014 246.239C294.014 246.239 282.733 249.641 277.243 253.481C271.753 257.321 262.603 268.622 262.603 268.622Z" fill="#18A0FB"/>
<path d="M297.583 267.024C297.25 262.968 295.94 259.05 293.762 255.594C291.584 252.138 288.601 249.245 285.06 247.154C281.915 245.176 278.183 244.308 274.472 244.693C272.629 244.916 270.889 245.653 269.456 246.817C268.023 247.981 266.956 249.524 266.381 251.264C265.394 250.981 264.352 250.931 263.341 251.119C262.33 251.307 261.379 251.728 260.564 252.347C256.133 255.542 256.355 261.934 257.322 266.663C257.934 270.021 259.104 273.256 260.786 276.237C263.009 279.707 266.197 282.473 269.97 284.207C273.743 285.941 277.942 286.57 282.067 286.017C286.563 285.272 290.626 282.927 293.485 279.426C296.345 275.926 297.803 271.513 297.583 267.024V267.024Z" fill="white"/>
<path d="M279.178 286.855C275.389 286.872 271.659 285.934 268.342 284.129C265.024 282.325 262.23 279.715 260.224 276.546C258.501 273.503 257.304 270.197 256.682 266.766C255.662 261.818 255.375 255.169 260.185 251.806C261 251.201 261.932 250.769 262.924 250.537C263.916 250.304 264.946 250.275 265.95 250.453C266.639 248.732 267.786 247.225 269.269 246.092C270.753 244.958 272.518 244.239 274.381 244.01C278.243 243.627 282.124 244.535 285.4 246.587C289.036 248.724 292.098 251.689 294.332 255.234C296.565 258.779 297.904 262.799 298.237 266.959C298.479 271.609 296.981 276.184 294.026 279.816C291.072 283.448 286.867 285.884 282.211 286.661C281.206 286.799 280.192 286.863 279.178 286.855V286.855ZM264.642 251.625C263.307 251.662 262.017 252.113 260.956 252.914C256.773 255.916 257.035 261.998 257.963 266.573C258.552 269.864 259.697 273.035 261.348 275.953C263.507 279.309 266.6 281.981 270.258 283.651C273.915 285.321 277.983 285.919 281.975 285.373C286.311 284.658 290.23 282.398 292.987 279.022C295.744 275.647 297.147 271.391 296.929 267.062C296.612 263.114 295.34 259.298 293.217 255.935C291.095 252.572 288.186 249.759 284.733 247.734C281.712 245.835 278.13 244.991 274.564 245.337C272.85 245.55 271.232 246.236 269.897 247.317C268.563 248.398 267.566 249.829 267.021 251.445C266.967 251.614 266.85 251.756 266.695 251.844C266.612 251.879 266.523 251.897 266.433 251.897C266.343 251.897 266.254 251.879 266.172 251.844C265.677 251.692 265.161 251.619 264.642 251.625V251.625Z" fill="#231F20"/>
<path d="M284.224 280.219C283.995 281.361 284.166 282.547 284.708 283.582C285.094 284.072 285.415 284.609 285.662 285.18C285.767 285.711 285.74 286.259 285.583 286.778C285.258 288.186 284.852 289.576 284.368 290.94C284.271 291.122 284.243 291.332 284.289 291.532C284.42 291.919 284.969 291.932 285.387 291.867C288.119 291.468 290.956 291.017 293.23 289.406C294.584 288.289 295.672 286.891 296.415 285.311C297.158 283.732 297.539 282.011 297.531 280.27C297.531 277.526 296.877 272.771 293.413 272.449C289.204 272.088 284.825 276.43 284.224 280.219Z" fill="white"/>
<path d="M285.034 292.576C284.757 292.595 284.481 292.527 284.246 292.381C284.011 292.235 283.829 292.019 283.727 291.764C283.629 291.428 283.652 291.068 283.792 290.746C284.277 289.414 284.678 288.055 284.995 286.675C285.124 286.257 285.155 285.817 285.087 285.386C284.966 285.068 284.794 284.772 284.577 284.51C284.446 284.329 284.315 284.136 284.198 283.943C283.568 282.783 283.369 281.443 283.636 280.154C284.263 276.057 288.943 271.431 293.479 271.843C297.034 272.178 298.25 276.443 298.184 280.322C298.188 282.16 297.781 283.976 296.993 285.642C296.204 287.308 295.054 288.782 293.622 289.96C291.217 291.713 288.067 292.177 285.544 292.538L285.034 292.576ZM284.943 291.288C285.06 291.306 285.179 291.306 285.296 291.288C287.805 290.914 290.655 290.502 292.786 288.942C294.062 287.885 295.086 286.563 295.785 285.071C296.483 283.578 296.838 281.952 296.825 280.309C296.825 279.613 296.825 273.467 293.296 273.144C289.466 272.771 285.453 276.881 284.877 280.36C284.671 281.36 284.809 282.398 285.27 283.311L285.596 283.775C285.975 284.208 286.232 284.73 286.342 285.291C286.452 285.851 286.411 286.431 286.224 286.971C285.896 288.403 285.481 289.814 284.982 291.197L284.943 291.288Z" fill="#231F20"/>
<path d="M160.148 250.466C163.523 250.137 166.898 251.082 169.594 253.11C172.29 255.138 174.105 258.099 174.674 261.394C175.242 264.69 174.522 268.075 172.659 270.868C170.795 273.661 167.927 275.653 164.631 276.443L165.128 281.237C165.169 281.477 165.16 281.722 165.1 281.958C165.041 282.194 164.933 282.416 164.784 282.609C164.634 282.802 164.446 282.964 164.231 283.082C164.016 283.201 163.778 283.275 163.533 283.3C163.287 283.325 163.039 283.3 162.804 283.226C162.569 283.153 162.352 283.032 162.165 282.873C161.979 282.713 161.828 282.518 161.722 282.298C161.615 282.079 161.556 281.841 161.547 281.598L161.05 276.804C157.658 276.687 154.437 275.305 152.038 272.938C149.64 270.571 148.242 267.394 148.127 264.05C148.013 260.706 149.19 257.443 151.421 254.922C153.653 252.4 156.771 250.808 160.148 250.466Z" fill="white"/>
<path d="M163.337 283.84C162.729 283.839 162.142 283.617 161.69 283.214C161.238 282.812 160.954 282.259 160.893 281.662L160.462 277.422C156.951 277.174 153.663 275.636 151.247 273.112C148.832 270.588 147.465 267.263 147.417 263.793C147.37 260.324 148.645 256.963 150.99 254.376C153.335 251.789 156.58 250.163 160.082 249.821V249.821C163.538 249.543 166.977 250.534 169.736 252.605C172.495 254.675 174.381 257.678 175.029 261.036C175.678 264.393 175.045 267.869 173.251 270.794C171.457 273.719 168.629 275.887 165.311 276.881L165.756 281.121C165.821 281.76 165.627 282.398 165.215 282.896C164.803 283.394 164.208 283.71 163.559 283.775L163.337 283.84ZM160.213 251.11C157.007 251.442 154.047 252.96 151.931 255.357C149.814 257.755 148.698 260.854 148.808 264.031C148.917 267.207 150.244 270.225 152.52 272.476C154.797 274.726 157.854 276.043 161.076 276.16C161.234 276.165 161.385 276.227 161.5 276.334C161.615 276.44 161.688 276.584 161.703 276.74L162.2 281.533C162.214 281.686 162.26 281.834 162.334 281.969C162.409 282.104 162.51 282.223 162.632 282.318C162.755 282.413 162.895 282.483 163.046 282.523C163.196 282.563 163.353 282.573 163.507 282.551C163.661 282.535 163.81 282.489 163.946 282.415C164.081 282.341 164.2 282.241 164.295 282.121C164.39 282 164.46 281.862 164.5 281.715C164.54 281.567 164.549 281.413 164.527 281.262L164.03 276.456C164.014 276.3 164.057 276.144 164.151 276.018C164.246 275.891 164.384 275.804 164.54 275.773C167.684 275.029 170.424 273.136 172.204 270.475C173.985 267.815 174.673 264.587 174.13 261.445C173.587 258.303 171.852 255.482 169.278 253.553C166.703 251.625 163.482 250.733 160.265 251.058L160.213 251.11Z" fill="#231F20"/>
<path d="M161.507 272.951C166.741 272.951 170.984 268.769 170.984 263.609C170.984 258.449 166.741 254.267 161.507 254.267C156.273 254.267 152.03 258.449 152.03 263.609C152.03 268.769 156.273 272.951 161.507 272.951Z" fill="#231F20"/>
<path d="M161.481 273.595C158.865 273.624 156.34 272.651 154.435 270.883C152.53 269.115 151.394 266.688 151.266 264.112C151.137 261.536 152.026 259.011 153.745 257.068C155.465 255.124 157.881 253.912 160.488 253.687V253.687C163.159 253.42 165.828 254.211 167.908 255.884C169.988 257.558 171.309 259.977 171.579 262.61C171.85 265.243 171.048 267.875 169.35 269.925C167.653 271.976 165.198 273.277 162.527 273.544C162.18 273.58 161.831 273.597 161.481 273.595V273.595ZM160.645 254.963C158.617 255.166 156.723 256.057 155.287 257.482C153.85 258.908 152.959 260.78 152.766 262.781C152.574 264.781 153.09 266.786 154.228 268.453C155.367 270.12 157.056 271.346 159.009 271.923C160.961 272.499 163.056 272.391 164.937 271.615C166.818 270.84 168.367 269.446 169.322 267.67C170.276 265.895 170.577 263.848 170.172 261.878C169.767 259.909 168.682 258.139 167.102 256.87C165.29 255.417 162.968 254.731 160.645 254.963V254.963Z" fill="#231F20"/>
<path d="M63.0517 151.117C66.3128 152.076 69.0813 154.223 70.7951 157.122C72.5089 160.02 73.0394 163.453 72.2792 166.723C71.5189 169.993 69.5247 172.856 66.7014 174.729C63.8782 176.603 60.4375 177.347 57.078 176.811L55.6793 181.424C55.5226 181.851 55.206 182.203 54.7943 182.408C54.3827 182.612 53.9072 182.653 53.4657 182.523C53.0241 182.393 52.6498 182.101 52.4198 181.707C52.1897 181.313 52.1212 180.848 52.2284 180.406L53.6401 175.793C50.5339 174.414 48.077 171.921 46.7691 168.82C45.4612 165.72 45.4005 162.244 46.5993 159.101C47.7982 155.958 50.1665 153.383 53.2228 151.899C56.279 150.416 59.7936 150.136 63.0517 151.117Z" fill="white"/>
<path d="M53.9538 183.331C53.7144 183.335 53.476 183.3 53.2479 183.228C52.9381 183.138 52.6494 182.988 52.3985 182.788C52.1477 182.587 51.9397 182.339 51.7865 182.059C51.6333 181.779 51.5381 181.471 51.5062 181.154C51.4744 180.837 51.5066 180.517 51.6009 180.213L52.9081 176.128C49.7302 174.583 47.2615 171.913 45.9962 168.65C44.7309 165.388 44.7625 161.775 46.0846 158.534C47.4067 155.294 49.9218 152.666 53.1262 151.175C56.3306 149.685 59.9878 149.443 63.3654 150.498V150.498C66.7858 151.45 69.713 153.645 71.5575 156.64C73.402 159.635 74.0267 163.208 73.3058 166.639C72.5849 170.069 70.5719 173.103 67.6723 175.13C64.7727 177.156 61.2019 178.024 57.6792 177.558L56.4374 181.656C56.2471 182.268 55.8198 182.782 55.2479 183.086C54.8476 183.284 54.3998 183.368 53.9538 183.331ZM59.1825 151.194C56.2801 151.215 53.4717 152.211 51.2209 154.017C48.9701 155.824 47.4114 158.333 46.8021 161.13C46.1928 163.927 46.5694 166.846 47.8696 169.404C49.1698 171.962 51.316 174.007 53.9538 175.2C54.1 175.263 54.2178 175.376 54.2852 175.518C54.3526 175.661 54.3649 175.823 54.3198 175.973L52.9081 180.586C52.8624 180.728 52.8458 180.878 52.8592 181.026C52.8727 181.174 52.916 181.318 52.9865 181.45C53.0562 181.581 53.1525 181.697 53.2694 181.79C53.3863 181.883 53.5214 181.951 53.6662 181.991C53.9575 182.08 54.2724 182.051 54.542 181.91C54.8116 181.77 55.0138 181.53 55.1041 181.244L56.5158 176.618C56.5588 176.469 56.6563 176.342 56.7893 176.261C56.9222 176.18 57.0811 176.151 57.2348 176.179C58.966 176.438 60.7326 176.342 62.4245 175.897C64.1163 175.453 65.6971 174.669 67.0682 173.596C68.4394 172.522 69.5714 171.182 70.3938 169.658C71.2162 168.134 71.7112 166.46 71.848 164.739C71.9849 163.018 71.7606 161.288 71.1891 159.657C70.6177 158.025 69.7113 156.527 68.5266 155.256C67.3419 153.986 65.9043 152.969 64.3033 152.27C62.7024 151.571 60.9726 151.205 59.2217 151.194H59.1825Z" fill="#231F20"/>
<path d="M59.1823 173.112C64.4162 173.112 68.6592 168.93 68.6592 163.77C68.6592 158.611 64.4162 154.428 59.1823 154.428C53.9483 154.428 49.7053 158.611 49.7053 163.77C49.7053 168.93 53.9483 173.112 59.1823 173.112Z" fill="#231F20"/>
<path d="M59.1952 173.757C58.2034 173.756 57.2171 173.612 56.2671 173.332C53.8177 172.604 51.7385 170.989 50.4469 168.812C49.1554 166.635 48.7473 164.057 49.3045 161.595C49.8618 159.134 51.3431 156.971 53.451 155.542C55.5589 154.113 58.1373 153.523 60.6683 153.891C63.1994 154.258 65.4956 155.556 67.0959 157.524C68.6961 159.492 69.4819 161.983 69.2954 164.499C69.1089 167.014 67.9639 169.366 66.0904 171.084C64.2169 172.801 61.7536 173.756 59.1952 173.757V173.757ZM59.1952 155.073C57.3022 155.081 55.4617 155.687 53.9442 156.803C52.4267 157.919 51.312 159.484 50.764 161.271C50.2651 162.915 50.2718 164.669 50.7831 166.309C51.2945 167.95 52.2876 169.405 53.637 170.49C54.9865 171.574 56.6318 172.241 58.3651 172.404C60.0984 172.568 61.8421 172.222 63.3759 171.409C64.9096 170.596 66.1647 169.354 66.9827 167.839C67.8007 166.323 68.1448 164.603 67.9716 162.895C67.7984 161.187 67.1157 159.568 66.0096 158.242C64.9036 156.916 63.4238 155.944 61.7572 155.446C60.9174 155.199 60.0456 155.073 59.1691 155.073H59.1952Z" fill="#231F20"/>
<path d="M149.442 52.8502C149.51 56.2431 148.25 59.5315 145.924 62.0333C143.598 64.5351 140.384 66.0583 136.949 66.287C133.514 66.5157 130.122 65.4324 127.476 63.2617C124.83 61.091 123.133 57.9995 122.737 54.6284H117.848C117.599 54.6494 117.348 54.6191 117.112 54.5396C116.876 54.46 116.658 54.333 116.474 54.1664C116.29 53.9998 116.144 53.7974 116.043 53.5719C115.943 53.3465 115.891 53.1029 115.891 52.8566C115.891 52.6104 115.943 52.3668 116.043 52.1413C116.144 51.9159 116.29 51.7134 116.474 51.5469C116.658 51.3803 116.876 51.2532 117.112 51.1737C117.348 51.0941 117.599 51.0639 117.848 51.0848H122.737C123.208 47.7803 124.931 44.7742 127.559 42.6706C130.187 40.5671 133.525 39.5221 136.902 39.7457C140.28 39.9693 143.447 41.4449 145.765 43.8759C148.084 46.307 149.384 49.5132 149.403 52.8502H149.442Z" fill="white"/>
<path d="M136.044 66.7023C132.745 66.6985 129.552 65.5516 127.024 63.4623C124.496 61.373 122.794 58.4742 122.214 55.2727H117.888C117.551 55.2969 117.212 55.2525 116.894 55.1421C116.575 55.0316 116.283 54.8576 116.035 54.6309C115.788 54.4042 115.591 54.1296 115.456 53.8243C115.321 53.519 115.251 53.1896 115.251 52.8566C115.251 52.5236 115.321 52.1942 115.456 51.8889C115.591 51.5836 115.788 51.309 116.035 51.0823C116.283 50.8556 116.575 50.6816 116.894 50.5711C117.212 50.4607 117.551 50.4163 117.888 50.4405H122.214C122.68 47.8438 123.887 45.4319 125.695 43.4883C127.503 41.5447 129.836 40.1502 132.42 39.4687C135.004 38.7871 137.732 38.8469 140.283 39.6408C142.834 40.4348 145.102 41.93 146.82 43.9508C148.539 45.9716 149.637 48.434 149.985 51.0486C150.333 53.6631 149.916 56.3213 148.784 58.7106C147.653 61.1 145.853 63.1213 143.596 64.5369C141.339 65.9526 138.719 66.7038 136.044 66.7023V66.7023ZM117.888 51.7291C117.727 51.7122 117.565 51.7287 117.411 51.7776C117.258 51.8266 117.116 51.9068 116.996 52.0132C116.876 52.1195 116.78 52.2496 116.714 52.3949C116.649 52.5402 116.615 52.6975 116.615 52.8566C116.615 53.0157 116.649 53.173 116.714 53.3183C116.78 53.4636 116.876 53.5937 116.996 53.7C117.116 53.8064 117.258 53.8866 117.411 53.9356C117.565 53.9845 117.727 54.001 117.888 53.9841H122.737C122.895 53.9861 123.048 54.0447 123.165 54.149C123.283 54.2532 123.359 54.3961 123.378 54.5511C123.813 57.707 125.449 60.5821 127.953 62.5945C130.458 64.607 133.644 65.6067 136.867 65.3914C140.091 65.1762 143.111 63.762 145.318 61.4349C147.524 59.1079 148.751 56.0417 148.751 52.8566C148.751 49.6715 147.524 46.6053 145.318 44.2783C143.111 41.9512 140.091 40.537 136.867 40.3218C133.644 40.1065 130.458 41.1062 127.953 43.1187C125.449 45.1312 123.813 48.0062 123.378 51.1621C123.359 51.3171 123.283 51.46 123.165 51.5642C123.048 51.6685 122.895 51.7271 122.737 51.7291H117.888Z" fill="#231F20"/>
<path d="M136.044 62.1923C141.278 62.1923 145.521 58.0097 145.521 52.8502C145.521 47.6906 141.278 43.508 136.044 43.508C130.81 43.508 126.567 47.6906 126.567 52.8502C126.567 58.0097 130.81 62.1923 136.044 62.1923Z" fill="#231F20"/>
<path d="M136.044 62.8366C134.04 62.8366 132.081 62.2509 130.415 61.1536C128.749 60.0562 127.451 58.4966 126.684 56.6718C125.917 54.847 125.717 52.8391 126.108 50.9019C126.499 48.9647 127.463 47.1853 128.88 45.7887C130.297 44.392 132.102 43.4409 134.067 43.0556C136.032 42.6703 138.069 42.868 139.92 43.6239C141.771 44.3797 143.354 45.6597 144.467 47.302C145.58 48.9442 146.174 50.875 146.174 52.8502C146.171 55.4977 145.102 58.0358 143.203 59.9079C141.304 61.7799 138.729 62.8332 136.044 62.8366V62.8366ZM136.044 44.1652C134.298 44.1652 132.592 44.6756 131.14 45.6319C129.689 46.5882 128.558 47.9474 127.891 49.5375C127.223 51.1276 127.049 52.8771 127.391 54.5646C127.732 56.2522 128.574 57.802 129.809 59.0179C131.044 60.2338 132.618 61.0612 134.33 61.3953C136.043 61.7295 137.817 61.5554 139.429 60.8951C141.041 60.2348 142.418 59.118 143.386 57.6859C144.354 56.2539 144.87 54.571 144.867 52.8502C144.863 50.5456 143.932 48.3365 142.278 46.7082C140.624 45.0798 138.381 44.1652 136.044 44.1652V44.1652Z" fill="#231F20"/>
<path d="M295.282 132.767C295.263 136.104 293.964 139.311 291.645 141.742C289.326 144.173 286.159 145.648 282.782 145.872C279.404 146.096 276.066 145.051 273.438 142.947C270.81 140.843 269.087 137.837 268.616 134.533H263.727C263.478 134.554 263.228 134.523 262.991 134.444C262.755 134.364 262.538 134.237 262.354 134.071C262.17 133.904 262.023 133.702 261.922 133.476C261.822 133.251 261.77 133.007 261.77 132.761C261.77 132.515 261.822 132.271 261.922 132.046C262.023 131.82 262.17 131.618 262.354 131.451C262.538 131.285 262.755 131.158 262.991 131.078C263.228 130.998 263.478 130.968 263.727 130.989H268.616C269.088 127.684 270.811 124.677 273.441 122.573C276.07 120.47 279.41 119.426 282.788 119.651C286.167 119.876 289.333 121.354 291.651 123.788C293.969 126.221 295.267 129.429 295.282 132.767Z" fill="white"/>
<path d="M281.91 146.607C278.612 146.605 275.42 145.458 272.893 143.368C270.367 141.279 268.667 138.379 268.093 135.177H263.766C263.43 135.201 263.091 135.157 262.772 135.046C262.454 134.936 262.162 134.762 261.914 134.535C261.667 134.308 261.469 134.034 261.334 133.729C261.2 133.423 261.13 133.094 261.13 132.761C261.13 132.428 261.2 132.098 261.334 131.793C261.469 131.488 261.667 131.213 261.914 130.987C262.162 130.76 262.454 130.586 262.772 130.475C263.091 130.365 263.43 130.321 263.766 130.345H268.093C268.559 127.747 269.767 125.335 271.575 123.391C273.384 121.448 275.717 120.053 278.302 119.372C280.887 118.691 283.615 118.752 286.167 119.547C288.718 120.342 290.986 121.838 292.704 123.86C294.422 125.882 295.518 128.346 295.865 130.961C296.211 133.576 295.793 136.235 294.659 138.624C293.526 141.013 291.724 143.033 289.465 144.447C287.207 145.861 284.585 146.611 281.91 146.607V146.607ZM263.766 131.633C263.606 131.616 263.444 131.633 263.29 131.682C263.137 131.731 262.995 131.811 262.875 131.917C262.755 132.024 262.659 132.154 262.593 132.299C262.528 132.444 262.494 132.602 262.494 132.761C262.494 132.92 262.528 133.077 262.593 133.223C262.659 133.368 262.755 133.498 262.875 133.604C262.995 133.711 263.137 133.791 263.29 133.84C263.444 133.889 263.606 133.905 263.766 133.888H268.655C268.814 133.89 268.966 133.949 269.084 134.053C269.201 134.158 269.277 134.3 269.296 134.455C269.732 137.611 271.367 140.486 273.871 142.499C276.376 144.511 279.562 145.511 282.786 145.296C286.009 145.08 289.03 143.666 291.236 141.339C293.442 139.012 294.669 135.946 294.669 132.761C294.669 129.576 293.442 126.51 291.236 124.183C289.03 121.855 286.009 120.441 282.786 120.226C279.562 120.011 276.376 121.01 273.871 123.023C271.367 125.035 269.732 127.91 269.296 131.066C269.277 131.221 269.201 131.364 269.084 131.469C268.966 131.573 268.814 131.631 268.655 131.633H263.766Z" fill="#231F20"/>
<path d="M281.923 142.11C287.157 142.11 291.4 137.927 291.4 132.767C291.4 127.608 287.157 123.425 281.923 123.425C276.689 123.425 272.446 127.608 272.446 132.767C272.446 137.927 276.689 142.11 281.923 142.11Z" fill="#231F20"/>
<path d="M281.923 142.741C279.919 142.744 277.958 142.16 276.29 141.063C274.622 139.967 273.322 138.407 272.553 136.582C271.785 134.757 271.583 132.748 271.974 130.809C272.364 128.871 273.329 127.09 274.747 125.693C276.165 124.296 277.971 123.344 279.937 122.959C281.903 122.574 283.941 122.773 285.793 123.531C287.645 124.288 289.227 125.57 290.339 127.214C291.451 128.859 292.043 130.791 292.041 132.767C292.037 135.412 290.97 137.946 289.074 139.816C287.177 141.686 284.606 142.738 281.923 142.741V142.741ZM281.923 124.07C280.178 124.067 278.471 124.575 277.018 125.529C275.565 126.483 274.432 127.841 273.762 129.43C273.093 131.019 272.916 132.768 273.255 134.456C273.594 136.144 274.433 137.695 275.667 138.913C276.9 140.131 278.472 140.961 280.184 141.297C281.896 141.634 283.671 141.462 285.284 140.804C286.897 140.147 288.276 139.032 289.246 137.601C290.216 136.17 290.734 134.488 290.734 132.767C290.73 130.464 289.801 128.255 288.15 126.625C286.499 124.995 284.26 124.076 281.923 124.07V124.07Z" fill="#231F20"/>
<path d="M267.218 102.937C267.218 102.937 257.061 109.676 254.8 110.204C252.538 110.733 240.839 110.372 240.839 110.372L251.95 94.8191C251.95 94.8191 259.793 93.2084 263.832 93.6207C267.871 94.033 267.218 102.937 267.218 102.937Z" fill="white"/>
<path d="M248.551 111.145C244.904 111.145 241.087 111.016 240.813 111.016C240.696 111.008 240.583 110.971 240.484 110.907C240.386 110.844 240.306 110.758 240.251 110.656C240.193 110.555 240.163 110.442 240.163 110.327C240.163 110.212 240.193 110.099 240.251 109.998L251.362 94.4452C251.459 94.3125 251.604 94.2206 251.767 94.1875C252.08 94.1875 259.74 92.551 263.845 92.9891C268.472 93.4659 267.845 102.602 267.766 102.988C267.76 103.086 267.73 103.181 267.68 103.266C267.63 103.351 267.561 103.423 267.479 103.478C266.433 104.174 257.178 110.282 254.865 110.836C252.771 111.099 250.661 111.202 248.551 111.145V111.145ZM242.015 109.754C245.845 109.857 253.009 109.96 254.603 109.586C256.198 109.212 263.544 104.548 266.525 102.589C266.655 100.089 266.381 94.5483 263.701 94.2648C260.198 93.904 253.636 95.1282 252.277 95.3988L242.015 109.754Z" fill="#231F20"/>
<path d="M223.99 64.5117C224.335 66.2815 224.427 68.0901 224.264 69.8851C223.963 71.6504 225.284 78.016 225.284 78.016L212.931 88.2215C212.931 88.2215 209.872 72.7586 210.643 70.1815C212.194 66.3688 213.939 62.6357 215.872 58.9966L223.99 64.5117Z" fill="white"/>
<path d="M212.931 88.8399C212.862 88.8523 212.791 88.8523 212.722 88.8399C212.615 88.8032 212.519 88.7401 212.444 88.6567C212.368 88.5733 212.316 88.4722 212.291 88.3632C211.977 86.7653 209.219 72.7199 210.016 70.0139C211.561 66.1608 213.306 62.3888 215.245 58.7131C215.288 58.6321 215.347 58.5606 215.419 58.503C215.491 58.4454 215.574 58.4029 215.663 58.3781C215.755 58.3562 215.85 58.354 215.943 58.3718C216.035 58.3896 216.123 58.4269 216.199 58.4812L224.356 64.0221C224.451 64.0938 224.527 64.1865 224.578 64.2927C224.979 66.1813 225.089 68.1187 224.905 70.0397C224.67 71.3283 225.559 76.1862 225.911 77.9257C225.938 78.0409 225.931 78.1612 225.892 78.2728C225.853 78.3844 225.783 78.4829 225.689 78.5571L213.297 88.724C213.191 88.8002 213.063 88.8409 212.931 88.8399V88.8399ZM216.082 59.8729C214.274 63.2537 212.655 66.7294 211.232 70.2845C210.722 72.0112 212.147 80.8121 213.324 86.9457L224.578 77.7196C224.264 76.2248 223.336 71.354 223.624 69.7304C223.747 68.1163 223.668 66.4934 223.389 64.8983L216.082 59.8729Z" fill="#231F20"/>
<path d="M307.243 50.1184C308.341 56.6643 297.962 93.8267 295.91 95.9013C293.858 97.9759 266.407 107.382 266.407 107.382L261.858 91.8552C261.858 91.8552 281.374 83.0414 282.538 82.0878C283.701 81.1343 286.459 66.96 286.459 66.96C286.459 66.96 269.126 64.3829 262.682 58.9709C256.238 53.5589 250.395 35.9054 247.166 35.1967C243.937 34.488 234.199 40.235 232.787 42.6704C231.375 45.1058 227.937 67.0244 227.937 67.0244L211.624 62.0248C211.624 62.0248 216.225 39.3459 218.918 32.8515C221.611 26.3571 252.734 11.5901 256.277 11.2422C259.819 10.8943 306.145 43.5853 307.243 50.1184Z" fill="#18A0FB"/>
<path d="M246.133 49.1005C246.579 53.5237 248.406 57.7017 251.362 61.0584C251.362 61.0584 250.552 63.2748 252.172 63.8675C253.063 64.2249 254.021 64.3918 254.983 64.3572C254.983 64.3572 264.865 69.3697 269.898 66.9343C274.93 64.4989 268.015 44.6033 259.336 44.7966C250.656 44.9899 246.133 49.1005 246.133 49.1005Z" fill="white"/>
<path d="M266.524 68.2486C261.688 68.2486 255.923 65.5297 254.865 65.0014C253.872 65.0079 252.887 64.8286 251.963 64.4731C251.371 64.1925 250.908 63.7028 250.666 63.1011C250.424 62.4995 250.42 61.8301 250.655 61.2259C247.742 57.8035 245.955 53.5875 245.531 49.139C245.525 49.0432 245.541 48.9472 245.577 48.858C245.613 48.7688 245.669 48.6887 245.741 48.6236C245.924 48.4432 250.512 44.3455 259.348 44.1523C265.361 43.959 270.184 52.4893 271.688 58.5456C272.838 63.1587 272.289 66.509 270.211 67.5657C269.049 68.0624 267.79 68.2958 266.524 68.2486ZM254.943 63.7386C255.042 63.7192 255.144 63.7192 255.244 63.7386C255.348 63.7386 264.904 68.5836 269.622 66.3157C271.06 65.6199 271.374 62.682 270.407 58.8162C268.799 52.3734 264.172 45.4022 259.466 45.4022H259.361C254.88 45.3458 250.498 46.7001 246.852 49.2679C247.331 53.4272 249.071 57.3474 251.845 60.5172C251.927 60.6038 251.983 60.7106 252.009 60.8263C252.034 60.9419 252.027 61.0622 251.989 61.1743C251.989 61.1743 251.427 62.7979 252.407 63.1716C253.207 63.4919 254.067 63.6412 254.93 63.6097L254.943 63.7386Z" fill="#231F20"/>
<path d="M246.133 49.1004C247.785 51.1278 249.99 52.6469 252.49 53.478C254.989 54.3092 257.677 54.4177 260.237 53.7908C260.237 53.7908 261.544 63.5195 269.871 66.9342C269.871 66.9342 285.139 61.1486 288.289 49.9509C291.439 38.7532 283.923 29.4884 275.074 25.6226C266.224 21.7569 244.172 26.8597 246.133 49.1004Z" fill="white"/>
<path d="M269.871 67.6043C269.789 67.6226 269.704 67.6226 269.623 67.6043C262.29 64.5762 260.198 56.9865 259.714 54.6413C257.109 55.1189 254.421 54.8906 251.937 53.9806C249.453 53.0706 247.267 51.5131 245.61 49.4741C245.544 49.3781 245.504 49.2673 245.492 49.152C244.486 37.6966 249.702 31.4599 254.264 28.2513C261.296 23.2646 270.446 22.878 275.348 25.0814C284.198 28.9472 292.211 38.4568 288.916 50.1828C285.714 61.5609 270.747 67.3466 270.106 67.5914C270.029 67.608 269.95 67.6124 269.871 67.6043V67.6043ZM260.237 53.1723C260.396 53.1743 260.548 53.2329 260.666 53.3372C260.783 53.4414 260.859 53.5843 260.878 53.7393C260.878 53.8295 262.263 62.9397 269.884 66.2642C271.819 65.4653 284.838 59.8214 287.662 49.8091C290.747 38.8176 283.165 29.8878 274.812 26.2412C270.146 24.1923 261.453 24.798 255.009 29.3337C250.76 32.3232 245.858 38.1476 246.76 48.8814C248.337 50.7761 250.428 52.1885 252.789 52.9531C255.151 53.7177 257.685 53.8027 260.093 53.1981L260.237 53.1723Z" fill="#231F20"/>
<path d="M208.59 96.7735L235.544 115.056C237.18 116.165 239.418 115.757 240.543 114.145L254.043 94.8034C255.169 93.1911 254.755 90.9848 253.12 89.8754L226.165 71.5932C224.53 70.4839 222.291 70.8916 221.166 72.5039L207.666 91.8456C206.541 93.4579 206.954 95.6642 208.59 96.7735Z" fill="white"/>
<path d="M237.545 116.338C236.687 116.335 235.849 116.08 235.14 115.604L208.186 97.3188C207.259 96.6882 206.623 95.7203 206.42 94.6281C206.217 93.5359 206.461 92.4087 207.101 91.4945L220.591 72.1658C221.231 71.2525 222.211 70.626 223.319 70.4231C224.426 70.2203 225.569 70.4577 226.499 71.0834L253.453 89.3554C253.915 89.6656 254.309 90.0626 254.615 90.5238C254.92 90.9849 255.129 91.501 255.231 92.0424C255.334 92.5837 255.326 93.1396 255.209 93.6781C255.092 94.2165 254.869 94.7269 254.551 95.1798L241.061 114.508C240.671 115.073 240.146 115.535 239.533 115.854C238.921 116.173 238.238 116.339 237.545 116.338V116.338ZM224.094 71.6246C223.615 71.6279 223.144 71.7471 222.722 71.9718C222.3 72.1965 221.941 72.5197 221.676 72.9132L208.173 92.2418C207.734 92.8768 207.567 93.6569 207.709 94.4124C207.851 95.1678 208.29 95.8373 208.931 96.2751L235.885 114.547C236.202 114.765 236.561 114.918 236.939 114.998C237.317 115.078 237.708 115.084 238.088 115.014C238.469 114.945 238.832 114.802 239.156 114.593C239.48 114.385 239.759 114.115 239.976 113.8L253.479 94.4711C253.918 93.8362 254.085 93.056 253.943 92.3005C253.801 91.5451 253.362 90.8756 252.721 90.4378L225.767 72.1401C225.276 71.8046 224.692 71.6248 224.094 71.6246V71.6246Z" fill="#231F20"/>
<path d="M211.493 94.9105L236.272 111.717C237.134 112.302 238.315 112.087 238.908 111.237L250.711 94.3264C251.305 93.4763 251.086 92.3129 250.224 91.728L225.445 74.9212C224.583 74.3363 223.403 74.5512 222.809 75.4013L211.006 92.3121C210.413 93.1622 210.631 94.3256 211.493 94.9105Z" fill="white"/>
<path d="M237.31 112.704C236.797 112.7 236.297 112.548 235.872 112.266L211.036 95.5148C210.758 95.328 210.521 95.0879 210.339 94.809C210.157 94.5301 210.034 94.218 209.977 93.8912C209.911 93.569 209.913 93.2369 209.982 92.9155C210.052 92.5941 210.188 92.2902 210.382 92.0228L222.147 75.1038C222.541 74.5692 223.128 74.2042 223.787 74.0843C224.447 73.9643 225.127 74.0987 225.689 74.4595V74.4595L250.525 91.211C251.067 91.5994 251.438 92.1784 251.559 92.8283C251.681 93.4782 251.545 94.1494 251.179 94.703L239.414 111.622C239.175 111.953 238.86 112.224 238.494 112.412C238.128 112.6 237.722 112.701 237.31 112.704V112.704ZM224.33 75.2584C224.13 75.2639 223.934 75.3143 223.758 75.4059C223.581 75.4975 223.428 75.6278 223.31 75.7867L211.545 92.6929C211.366 92.9629 211.296 93.2893 211.349 93.6077C211.417 93.9253 211.604 94.206 211.872 94.3938L236.708 111.145C236.841 111.238 236.991 111.303 237.149 111.338C237.307 111.372 237.471 111.375 237.631 111.347C237.79 111.318 237.942 111.258 238.078 111.17C238.214 111.082 238.33 110.969 238.421 110.836L250.185 93.917C250.28 93.7882 250.347 93.6419 250.383 93.4869C250.419 93.332 250.423 93.1715 250.394 93.015C250.327 92.6974 250.14 92.4167 249.872 92.229L225.035 75.4131C224.82 75.2971 224.575 75.2435 224.33 75.2584Z" fill="#231F20"/>
<path d="M250.408 103.285C250.408 103.285 241.257 104.715 240.277 103.156C239.297 101.597 241.244 99.213 242.983 98.7362C244.721 98.2594 254.028 97.6281 254.028 97.6281" fill="white"/>
<path d="M243.832 104.535C241.898 104.535 240.225 104.277 239.728 103.504C239.508 103.142 239.379 102.733 239.352 102.311C239.325 101.89 239.4 101.468 239.571 101.081C239.862 100.388 240.301 99.7645 240.858 99.2531C241.415 98.7417 242.077 98.3544 242.8 98.1176C244.591 97.615 253.597 97.0094 253.989 96.9836C254.16 96.973 254.329 97.0291 254.459 97.1401C254.588 97.251 254.668 97.4077 254.682 97.5764C254.689 97.6614 254.679 97.747 254.651 97.8279C254.624 97.9088 254.58 97.9835 254.523 98.0473C254.465 98.1111 254.395 98.1628 254.317 98.1993C254.239 98.2357 254.154 98.2562 254.068 98.2593C251.453 98.4397 244.525 98.9681 243.153 99.3547C242.625 99.5337 242.142 99.8217 241.736 100.2C241.331 100.577 241.011 101.036 240.8 101.545C240.694 101.744 240.639 101.965 240.639 102.19C240.639 102.414 240.694 102.635 240.8 102.834C241.257 103.465 245.689 103.388 250.277 102.666C250.362 102.654 250.448 102.657 250.532 102.678C250.615 102.698 250.694 102.734 250.763 102.785C250.832 102.835 250.891 102.898 250.935 102.971C250.98 103.043 251.009 103.124 251.022 103.208C251.035 103.291 251.031 103.377 251.01 103.459C250.99 103.541 250.953 103.619 250.902 103.687C250.851 103.755 250.787 103.813 250.713 103.857C250.639 103.9 250.558 103.929 250.473 103.942C248.277 104.296 246.057 104.494 243.832 104.535Z" fill="#231F20"/>
<path d="M215.062 74.6141C215.062 74.8332 214.578 84.4201 216.827 85.1675C219.075 85.9149 218.97 83.4924 219.245 81.3018C219.519 79.1112 218.787 75.3873 220.042 72.707" fill="white"/>
<path d="M217.571 85.9536C217.251 85.9435 216.934 85.8871 216.63 85.7861C214.473 85.0645 214.225 79.3432 214.408 74.6915C214.411 74.5191 214.48 74.3542 214.601 74.2299C214.723 74.1056 214.887 74.0312 215.062 74.0214V74.0214C215.145 74.0179 215.227 74.031 215.305 74.0599C215.382 74.0888 215.453 74.1328 215.513 74.1894C215.573 74.246 215.621 74.314 215.653 74.3892C215.686 74.4644 215.702 74.5453 215.702 74.627V74.743C215.467 80.8251 216.199 84.2784 217.009 84.5619C217.274 84.6646 217.568 84.6646 217.833 84.5619C218.251 84.3042 218.369 83.1445 218.473 82.1265C218.473 81.8301 218.473 81.5209 218.565 81.2245C218.62 80.3921 218.62 79.5571 218.565 78.7247C218.363 76.5964 218.635 74.4502 219.362 72.4365C219.399 72.3591 219.45 72.2896 219.514 72.2321C219.578 72.1746 219.653 72.1302 219.735 72.1014C219.816 72.0726 219.903 72.0601 219.989 72.0645C220.075 72.069 220.16 72.0903 220.238 72.1272C220.316 72.1619 220.386 72.2115 220.444 72.2734C220.503 72.3352 220.548 72.4079 220.577 72.4872C220.606 72.5664 220.619 72.6507 220.615 72.7349C220.61 72.8192 220.589 72.9017 220.552 72.9777C219.913 74.8149 219.681 76.7659 219.872 78.6989C219.933 79.5913 219.933 80.4868 219.872 81.3792C219.872 81.6755 219.794 81.9719 219.767 82.2554C219.624 83.6857 219.48 85.0516 218.539 85.6443C218.256 85.8416 217.918 85.9494 217.571 85.9536V85.9536Z" fill="#231F20"/>
<path d="M141.448 224.606L107.372 191.283L66.1661 232.23L100.243 265.553L141.448 224.606Z" fill="white"/>
<path d="M100.214 266.199C100.042 266.197 99.8774 266.127 99.7567 266.006L65.6789 232.683C65.5606 232.562 65.4949 232.4 65.4959 232.232C65.4922 232.147 65.5065 232.061 65.538 231.981C65.5695 231.901 65.6175 231.829 65.6789 231.768L106.881 190.83C106.941 190.77 107.014 190.722 107.093 190.689C107.173 190.657 107.259 190.64 107.345 190.64C107.431 190.64 107.516 190.657 107.596 190.689C107.676 190.722 107.748 190.77 107.809 190.83L141.887 224.153C141.948 224.213 141.996 224.284 142.03 224.363C142.063 224.441 142.08 224.525 142.08 224.61C142.08 224.695 142.063 224.78 142.03 224.858C141.996 224.937 141.948 225.008 141.887 225.068L100.685 266.044C100.554 266.154 100.385 266.209 100.214 266.199V266.199ZM67.0645 232.219L100.214 264.64L140.501 224.617L107.351 192.196L67.0645 232.219Z" fill="#231F20"/>
<path d="M128.737 226.743C128.654 226.743 128.572 226.727 128.496 226.696C128.42 226.665 128.351 226.62 128.292 226.563L105.312 204.077C105.255 204.02 105.209 203.953 105.178 203.879C105.147 203.805 105.131 203.725 105.131 203.645C105.131 203.565 105.147 203.486 105.178 203.412C105.209 203.338 105.255 203.27 105.312 203.214C105.37 203.157 105.438 203.112 105.513 203.081C105.588 203.051 105.669 203.035 105.75 203.035C105.831 203.035 105.912 203.051 105.987 203.081C106.062 203.112 106.131 203.157 106.188 203.214L129.168 225.686C129.283 225.804 129.347 225.961 129.347 226.124C129.347 226.288 129.283 226.445 129.168 226.563C129.051 226.672 128.898 226.736 128.737 226.743V226.743Z" fill="#D1D3D4"/>
<path d="M122.148 233.276C122.068 233.278 121.987 233.263 121.913 233.232C121.838 233.201 121.772 233.154 121.717 233.096L98.7241 210.636C98.6656 210.578 98.6192 210.51 98.5875 210.435C98.5559 210.36 98.5396 210.279 98.5396 210.198C98.5396 210.116 98.5559 210.036 98.5875 209.961C98.6192 209.885 98.6656 209.817 98.7241 209.76C98.8435 209.646 99.0028 209.583 99.1685 209.583C99.3343 209.583 99.4936 209.646 99.613 209.76L122.593 232.232C122.651 232.29 122.698 232.358 122.729 232.433C122.761 232.508 122.777 232.589 122.777 232.67C122.777 232.752 122.761 232.832 122.729 232.907C122.698 232.983 122.651 233.051 122.593 233.108C122.472 233.218 122.313 233.278 122.148 233.276Z" fill="#D1D3D4"/>
<path d="M115.573 239.809C115.409 239.813 115.249 239.753 115.129 239.642L92.149 217.156C92.0909 217.1 92.0448 217.032 92.0133 216.958C91.9818 216.884 91.9656 216.805 91.9656 216.724C91.9656 216.644 91.9818 216.564 92.0133 216.49C92.0448 216.416 92.0909 216.349 92.149 216.293C92.2062 216.235 92.2744 216.19 92.3496 216.159C92.4247 216.128 92.5054 216.112 92.5869 216.112C92.6684 216.112 92.7491 216.128 92.8243 216.159C92.8995 216.19 92.9677 216.235 93.0248 216.293L116.005 238.778C116.063 238.835 116.109 238.902 116.141 238.976C116.172 239.05 116.188 239.13 116.188 239.21C116.188 239.29 116.172 239.37 116.141 239.444C116.109 239.518 116.063 239.585 116.005 239.642C115.889 239.751 115.734 239.811 115.573 239.809V239.809Z" fill="#D1D3D4"/>
<path d="M108.985 246.355C108.823 246.353 108.668 246.288 108.554 246.175L85.5611 223.702C85.449 223.583 85.3867 223.426 85.3867 223.264C85.3867 223.101 85.449 222.945 85.5611 222.826C85.6194 222.768 85.6886 222.722 85.7649 222.691C85.8412 222.66 85.9229 222.644 86.0055 222.644C86.0881 222.644 86.1699 222.66 86.2461 222.691C86.3224 222.722 86.3917 222.768 86.45 222.826L109.43 245.298C109.518 245.385 109.578 245.495 109.602 245.615C109.627 245.736 109.614 245.86 109.567 245.973C109.519 246.087 109.438 246.183 109.335 246.251C109.231 246.319 109.11 246.355 108.985 246.355Z" fill="#D1D3D4"/>
<path d="M92.8812 243.572C92.8017 243.573 92.7225 243.559 92.6485 243.531C92.5744 243.502 92.5069 243.459 92.4499 243.404L78.9861 230.235C78.9276 230.177 78.8812 230.109 78.8495 230.034C78.8178 229.959 78.8015 229.878 78.8015 229.797C78.8015 229.715 78.8178 229.635 78.8495 229.56C78.8812 229.484 78.9276 229.416 78.9861 229.359C79.1032 229.246 79.2604 229.183 79.424 229.183C79.5876 229.183 79.7447 229.246 79.8618 229.359L93.3257 242.528C93.3838 242.584 93.4299 242.652 93.4614 242.726C93.4929 242.8 93.5091 242.879 93.5091 242.96C93.5091 243.04 93.4929 243.12 93.4614 243.194C93.4299 243.268 93.3838 243.335 93.3257 243.391C93.2692 243.451 93.2002 243.498 93.1235 243.53C93.0467 243.561 92.9641 243.575 92.8812 243.572V243.572Z" fill="#D1D3D4"/>
<path d="M53.0779 240.376C54.8425 238.508 57.7706 238.366 60.3718 238.366C62.0975 238.27 63.8269 238.471 65.4829 238.959C67.6744 239.936 69.5937 241.422 71.0775 243.288C73.7964 246.2 76.6722 249.435 76.9205 253.391C77.2473 258.545 72.5154 263.158 67.2998 263.983C62.0842 264.807 56.8425 262.591 52.6857 259.344C50.3695 257.774 48.7001 255.438 47.9799 252.759C47.8093 251.397 47.9368 250.015 48.354 248.706C48.7712 247.397 49.4682 246.191 50.3982 245.17C52.28 243.161 54.4409 241.426 56.8164 240.015" fill="white"/>
<path d="M65.0385 264.756C59.47 264.756 54.7642 261.766 52.2806 259.808C49.4048 257.54 47.7839 255.259 47.3395 252.836C47.1512 251.377 47.2875 249.895 47.7389 248.493C48.1904 247.092 48.9462 245.803 49.9538 244.719C51.8561 242.642 54.0583 240.853 56.4897 239.41C56.6358 239.316 56.8135 239.282 56.9845 239.316C57.1556 239.349 57.3064 239.448 57.4047 239.59C57.4993 239.732 57.5331 239.905 57.4988 240.072C57.4646 240.238 57.3649 240.385 57.2217 240.479C54.8922 241.858 52.7786 243.564 50.9473 245.543C50.0702 246.487 49.4113 247.607 49.0164 248.826C48.6214 250.045 48.4997 251.334 48.6597 252.605C49.0519 254.718 50.5159 256.741 53.1303 258.803C55.7446 260.864 61.1693 264.266 67.2346 263.3C71.875 262.565 76.62 258.416 76.3063 253.391C76.0841 249.783 73.4959 246.742 70.6462 243.688C69.2241 241.902 67.3916 240.475 65.2999 239.526C63.7154 239.062 62.061 238.875 60.4112 238.972C57.7968 238.972 55.1825 239.113 53.6008 240.776C53.5401 240.836 53.4678 240.884 53.3881 240.917C53.3085 240.949 53.2231 240.966 53.1368 240.966C53.0505 240.966 52.9651 240.949 52.8854 240.917C52.8058 240.884 52.7335 240.836 52.6727 240.776C52.5522 240.653 52.4847 240.489 52.4847 240.318C52.4847 240.147 52.5522 239.983 52.6727 239.861C54.6073 237.825 57.6923 237.644 60.5157 237.644C62.3163 237.547 64.1205 237.756 65.849 238.263C68.1393 239.282 70.1477 240.829 71.7051 242.773C74.7246 246.007 77.4697 249.216 77.718 253.275C78.084 258.983 72.7508 263.712 67.5483 264.537C66.7196 264.681 65.8799 264.754 65.0385 264.756V264.756Z" fill="#231F20"/>
<path d="M75.2871 195.83C76.0325 195.512 76.8136 195.283 77.6139 195.147C78.542 195.044 82.4112 194.735 85.7444 194.142C89.0777 193.549 91.2607 193.008 90.7378 192.016C90.2149 191.024 84.2804 190.805 84.2804 190.805C86.2824 189.157 88.4156 187.67 90.6594 186.359C92.3979 185.637 93.2737 185.07 93.1691 184.233C93.0646 183.395 92.9731 182.506 88.7771 184.89C88.7771 184.89 92.8162 181.72 91.1561 181.102C89.496 180.483 86.385 182.867 86.385 182.867C86.385 182.867 90.0319 179.813 89.3391 179.001C88.6463 178.189 84.4634 180.058 84.4634 180.058C84.4634 180.058 88.5941 177.842 87.5091 176.991C86.4242 176.141 83.1563 177.107 78.9603 179.89C74.7643 182.674 68.137 187.983 68.137 187.983L75.2871 195.83Z" fill="white"/>
<path d="M75.2867 196.461C75.195 196.46 75.1046 196.44 75.0213 196.403C74.9379 196.365 74.8636 196.31 74.8031 196.242L67.6529 188.369C67.5951 188.305 67.5514 188.229 67.5244 188.147C67.4974 188.065 67.4878 187.978 67.496 187.892C67.5023 187.806 67.5263 187.721 67.5668 187.643C67.6072 187.566 67.6632 187.497 67.7313 187.441C67.7313 187.441 74.424 182.094 78.5939 179.323C82.999 176.385 86.4369 175.316 87.914 176.45C88.0601 176.561 88.1753 176.706 88.2485 176.873C88.3216 177.04 88.3505 177.223 88.3322 177.403C88.2952 177.681 88.1823 177.944 88.0055 178.164C88.3218 178.071 88.657 178.059 88.9794 178.129C89.3018 178.199 89.6009 178.348 89.8486 178.563C90.2146 179.014 90.1361 179.646 89.6002 180.47C90.1795 180.295 90.7987 180.295 91.3779 180.47C91.5864 180.533 91.7728 180.652 91.9161 180.813C92.0594 180.975 92.1537 181.173 92.1884 181.385C92.2166 181.881 92.0635 182.37 91.757 182.764C92.1779 182.605 92.6433 182.605 93.0642 182.764C93.2874 182.898 93.4712 183.088 93.5973 183.314C93.7234 183.54 93.7874 183.795 93.7831 184.052C93.9531 185.457 92.476 186.204 90.8812 186.849C89.1618 187.807 87.5304 188.91 86.0055 190.147C88.4237 190.341 90.8159 190.74 91.2342 191.616C91.3214 191.786 91.3669 191.974 91.3669 192.164C91.3669 192.354 91.3214 192.542 91.2342 192.712C90.8289 193.549 89.4956 194 85.7571 194.683C82.8422 195.186 79.522 195.495 78.0972 195.624H77.5743C76.8416 195.759 76.1268 195.975 75.4436 196.268C75.406 196.343 75.3525 196.409 75.2867 196.461V196.461ZM69.1431 188.034L75.522 195.07C76.188 194.796 76.8863 194.605 77.6004 194.503H78.1364C79.535 194.374 82.816 194.065 85.6918 193.562C88.5675 193.06 90.0054 192.647 90.2276 192.274C88.2979 191.754 86.3066 191.49 84.3062 191.488C84.1738 191.485 84.0456 191.441 83.9399 191.363C83.8342 191.284 83.7565 191.174 83.7179 191.049C83.6735 190.926 83.6684 190.792 83.7035 190.665C83.7385 190.538 83.812 190.425 83.914 190.341C85.9594 188.65 88.1457 187.133 90.4499 185.805C91.927 185.186 92.5936 184.735 92.5544 184.349C92.5666 184.233 92.5666 184.117 92.5544 184.001C92.5544 184.001 91.9662 183.911 89.2081 185.483C89.0632 185.561 88.8944 185.584 88.7332 185.549C88.572 185.513 88.4295 185.421 88.3322 185.29C88.2416 185.154 88.206 184.99 88.2327 184.83C88.2593 184.67 88.3462 184.526 88.476 184.426C89.7832 183.382 91.0119 182.068 90.9989 181.656C90.0185 181.385 87.7963 182.712 86.8813 183.408C86.8153 183.46 86.7396 183.498 86.6584 183.521C86.5773 183.544 86.4924 183.551 86.4086 183.541C86.3248 183.532 86.2437 183.506 86.1701 183.466C86.0964 183.425 86.0316 183.37 85.9794 183.305C85.8727 183.174 85.8213 183.007 85.8359 182.839C85.8505 182.671 85.9299 182.515 86.0578 182.403C87.1529 181.571 88.0948 180.56 88.8421 179.414C87.4469 179.627 86.0961 180.063 84.8421 180.702C84.6861 180.779 84.5055 180.792 84.34 180.737C84.1746 180.683 84.0378 180.566 83.9598 180.412C83.8818 180.258 83.869 180.08 83.9241 179.917C83.9793 179.754 84.0979 179.619 84.2539 179.542C85.3145 179.024 86.2746 178.326 87.0904 177.481C86.3192 177.12 83.731 177.61 79.4304 180.483C75.888 182.687 70.7509 186.72 69.1431 188.034Z" fill="#231F20"/>
<path d="M72.8815 198.098L76.0579 196.114L68.398 186.771L63.3262 190.019L72.8815 198.098Z" fill="#231F20"/>
<path d="M72.8817 198.742C72.7236 198.744 72.5704 198.689 72.4503 198.588L62.908 190.508C62.8288 190.446 62.7668 190.365 62.728 190.272C62.6891 190.18 62.6746 190.079 62.6858 189.98C62.6918 189.88 62.7208 189.783 62.7706 189.696C62.8205 189.609 62.8898 189.534 62.9734 189.477L68.0452 186.23C68.1813 186.145 68.3448 186.112 68.5041 186.138C68.6634 186.164 68.8073 186.248 68.9079 186.372L76.5679 195.701C76.674 195.851 76.7205 196.035 76.6986 196.217C76.6828 196.306 76.6478 196.392 76.596 196.468C76.5441 196.543 76.4766 196.607 76.3979 196.655L73.2215 198.639C73.1201 198.704 73.0024 198.739 72.8817 198.742ZM64.4243 190.096L72.9339 197.299L75.0777 196.01L68.2674 187.686L64.4243 190.096Z" fill="#231F20"/>
<path d="M93.8484 258.803C93.8484 258.803 90.2798 252.849 89.9269 250.582C89.5739 248.314 90.2667 244.654 90.855 244.59C91.4432 244.525 92.9203 247.579 92.6196 249.383C92.6196 249.383 95.7699 240.247 97.4823 240.002C99.1946 239.758 98.7894 241.716 98.3973 242.837C98.3973 242.837 99.8613 240.093 100.646 240.763C101.43 241.433 100.985 244.074 100.985 244.074C100.985 244.074 102.083 241.123 102.985 241.703C103.887 242.283 103.338 244.835 103.338 244.835C103.338 244.835 104.476 241.832 105.142 243.069C105.809 244.306 105.665 257.05 104.097 260.89C102.528 264.73 93.8484 258.803 93.8484 258.803Z" fill="white"/>
<path d="M101.822 262.836C98.6196 262.836 93.9791 259.73 93.4301 259.331C93.3531 259.283 93.29 259.217 93.2471 259.138C93.0903 258.88 89.6132 253.056 89.1949 250.685C88.8578 248.536 89.1479 246.337 90.0315 244.345C90.108 244.239 90.2053 244.149 90.3175 244.08C90.4297 244.012 90.5547 243.966 90.6851 243.945C90.8552 243.934 91.0254 243.965 91.1805 244.035C91.3356 244.105 91.4707 244.211 91.5739 244.345C92.1427 245.032 92.5651 245.825 92.8158 246.677C94.0314 243.546 95.8353 239.577 97.2993 239.371C97.5977 239.299 97.9105 239.312 98.2018 239.408C98.4931 239.504 98.7512 239.678 98.9464 239.912C99.0803 240.08 99.1781 240.273 99.2339 240.479C99.4659 240.256 99.7552 240.1 100.071 240.028C100.232 239.997 100.398 240.003 100.557 240.045C100.716 240.088 100.862 240.166 100.986 240.273C101.337 240.618 101.555 241.074 101.6 241.561C101.791 241.352 102.028 241.189 102.293 241.085C102.451 241.031 102.62 241.015 102.785 241.037C102.951 241.06 103.109 241.12 103.247 241.214C103.445 241.36 103.612 241.543 103.737 241.753C103.863 241.963 103.945 242.196 103.979 242.438C104.16 242.288 104.384 242.198 104.619 242.18C104.833 242.168 105.046 242.222 105.226 242.335C105.407 242.449 105.547 242.615 105.626 242.811C106.476 244.396 106.149 257.437 104.606 261.186C104.461 261.561 104.23 261.896 103.931 262.167C103.631 262.438 103.272 262.636 102.881 262.746C102.534 262.823 102.178 262.853 101.822 262.836V262.836ZM94.3321 258.313C96.0314 259.46 100.463 262.037 102.554 261.418C102.754 261.363 102.938 261.262 103.09 261.123C103.242 260.984 103.359 260.812 103.43 260.619C104.907 257.024 105.012 245.852 104.593 243.636C104.311 244.073 104.078 244.54 103.901 245.028C103.852 245.199 103.737 245.343 103.58 245.43C103.423 245.517 103.237 245.539 103.064 245.492C102.891 245.444 102.744 245.33 102.655 245.175C102.567 245.021 102.545 244.838 102.593 244.667C102.797 243.885 102.797 243.065 102.593 242.283C102.11 242.87 101.738 243.538 101.495 244.255C101.436 244.404 101.324 244.527 101.18 244.601C101.035 244.674 100.869 244.693 100.711 244.654C100.555 244.614 100.42 244.518 100.332 244.384C100.245 244.25 100.212 244.089 100.24 243.932C100.429 243.083 100.429 242.204 100.24 241.355C99.7023 241.878 99.26 242.488 98.9333 243.159C98.8972 243.236 98.8462 243.305 98.783 243.363C98.7198 243.421 98.6457 243.465 98.565 243.495C98.4843 243.524 98.3985 243.537 98.3125 243.534C98.2266 243.531 98.1421 243.51 98.064 243.475C97.9859 243.439 97.9157 243.389 97.8573 243.327C97.7989 243.264 97.7536 243.191 97.7239 243.112C97.6941 243.032 97.6806 242.948 97.684 242.863C97.6874 242.778 97.7077 242.695 97.7438 242.618C98.0642 242.034 98.1438 241.351 97.966 240.711C97.8876 240.621 97.6392 240.647 97.5346 240.711C96.7765 240.943 94.7896 245.041 93.2079 249.654C93.1663 249.825 93.0575 249.972 92.9055 250.064C92.7536 250.156 92.5708 250.184 92.3974 250.143C92.2241 250.102 92.0744 249.995 91.9812 249.845C91.8881 249.695 91.8591 249.515 91.9007 249.344C91.9503 248.032 91.5997 246.735 90.8942 245.62C90.427 247.214 90.2892 248.883 90.489 250.53C90.8289 252.192 93.3125 256.638 94.3321 258.313Z" fill="#231F20"/>
<path d="M92.9333 261.972L93.8484 258.803L104.044 260.89L102.933 266.328L92.9333 261.972Z" fill="#231F20"/>
<path d="M102.933 266.972C102.847 266.985 102.759 266.985 102.672 266.972L92.6721 262.552C92.527 262.492 92.4094 262.381 92.3419 262.241C92.2744 262.101 92.2616 261.941 92.3061 261.792L93.2211 258.635C93.2615 258.476 93.3632 258.338 93.5048 258.252C93.6463 258.165 93.8165 258.136 93.9793 258.171L104.175 260.259C104.343 260.296 104.49 260.396 104.585 260.538C104.681 260.679 104.716 260.852 104.685 261.019L103.574 266.457C103.554 266.55 103.513 266.638 103.454 266.713C103.395 266.789 103.32 266.851 103.234 266.895C103.142 266.946 103.039 266.973 102.933 266.972ZM93.7832 261.612L102.515 265.413L103.339 261.393L94.3061 259.602L93.7832 261.612Z" fill="#231F20"/>
<path d="M49.0518 245.427C49.0518 245.427 39.7317 240.028 34.5162 239.165C34.5162 239.165 44.3329 219.836 45.5094 218.548C46.6858 217.259 74.267 198.317 74.267 198.317L64.6463 187.725C64.6463 187.725 36.3331 206.164 30.4378 212.466C24.5425 218.767 12.5427 235.376 15.7584 245.917C18.974 256.457 22.2942 269.292 36.2416 281.275C46.7863 290.453 60.1681 295.847 74.2147 296.584C83.5217 297.086 93.7307 294.625 96.6587 291.764C99.5868 288.904 104.044 264.253 104.044 264.253L91.2471 260.89L86.9073 281.082L76.45 277.216C76.45 277.216 75.0382 268.647 64.5678 260.168C58.9489 255.733 53.7551 250.799 49.0518 245.427V245.427Z" fill="#18A0FB"/>
<path d="M52.5419 280.927C55.3627 281.047 58.156 280.338 60.5679 278.891C66.6462 275.258 71.901 271.379 75.6787 265.233C77.1297 262.887 78.2931 260.001 77.2996 257.501C75.9925 254.267 71.2997 252.798 70.4762 249.512C70.2017 248.404 70.5808 247.193 70.2017 246.11C69.9749 245.578 69.6171 245.109 69.1607 244.747C68.7043 244.385 68.1636 244.14 67.5874 244.036C67.0615 243.943 66.542 243.818 66.0319 243.662C65.0951 243.128 64.2807 242.408 63.6398 241.549C62.5531 240.535 61.2478 239.776 59.8217 239.33C58.3956 238.884 56.8856 238.761 55.4046 238.971C52.4428 239.422 49.6453 240.606 47.2741 242.412C40.6337 247.128 33.941 256.586 35.1828 265.091C36.4638 273.312 43.9669 280.605 52.5419 280.927Z" fill="white"/>
<path d="M53.1433 281.585H52.5159C43.9017 281.262 35.8365 273.853 34.5555 265.168C33.2483 256.638 39.9933 246.793 46.9212 241.871C49.3819 240.003 52.2825 238.779 55.3524 238.314C56.9319 238.087 58.543 238.216 60.0646 238.691C61.5862 239.167 62.9785 239.976 64.1366 241.059L64.6987 241.678C65.1321 242.218 65.681 242.658 66.3065 242.966C66.6006 243.063 66.9022 243.136 67.2084 243.185L67.7705 243.301C68.4483 243.437 69.0812 243.737 69.6128 244.173C70.1443 244.609 70.5578 245.169 70.8162 245.801C71.0141 246.461 71.0851 247.151 71.0253 247.837C70.9909 248.311 71.0172 248.787 71.1038 249.254C71.4829 250.775 72.8684 251.896 74.3325 253.12C75.8492 254.161 77.0763 255.561 77.901 257.192C78.8291 259.486 78.2801 262.217 76.2409 265.542C72.2149 272.088 66.4895 276.069 60.9079 279.42C58.5729 280.836 55.8849 281.585 53.1433 281.585ZM56.7903 239.513C56.372 239.513 55.9407 239.513 55.4832 239.577C52.6264 240.016 49.9284 241.159 47.6402 242.902C41.0259 247.605 34.5686 256.934 35.8757 264.975C37.1829 273.016 44.5814 279.987 52.5943 280.283C55.2883 280.411 57.9585 279.733 60.2543 278.337C65.6921 275.09 71.2737 271.199 75.156 264.898C76.9729 261.947 77.4827 259.589 76.7115 257.682C75.9603 256.26 74.8648 255.042 73.522 254.138C71.9665 252.849 70.3456 251.561 69.862 249.615C69.7457 249.034 69.7062 248.441 69.7443 247.85C69.7898 247.322 69.7457 246.791 69.6136 246.278C69.4201 245.851 69.1256 245.476 68.7549 245.185C68.3842 244.893 67.948 244.694 67.4829 244.603L66.9993 244.512C66.6029 244.444 66.2135 244.34 65.8359 244.203C65.0142 243.81 64.2978 243.232 63.7444 242.515C63.5745 242.322 63.4046 242.129 63.2216 241.948C62.3662 241.143 61.3574 240.513 60.2535 240.095C59.1495 239.677 57.9724 239.479 56.7903 239.513V239.513Z" fill="#231F20"/>
<path d="M79.0644 104.393C81.9819 103.43 85.1128 103.283 88.11 103.968C88.11 103.968 89.2995 101.391 91.1818 101.068C93.0642 100.746 92.6589 101.532 92.6589 101.532C92.6589 101.532 94.2145 99.6638 95.0903 100.373C95.0903 100.373 96.9333 101.171 97.1556 102.318C97.1556 102.318 99.613 101.468 100.005 102.872C100.397 104.277 98.3582 107.151 95.2079 109.754C92.0576 112.356 88.2669 114.405 87.1296 114.457C85.9924 114.508 77.3521 112.795 77.3521 112.795L79.0644 104.393Z" fill="white"/>
<path d="M87.0773 115.101C85.7048 115.101 78.6591 113.709 77.2343 113.426C77.0637 113.392 76.9135 113.293 76.8158 113.151C76.7181 113.009 76.6806 112.835 76.7115 112.666L78.4239 104.264C78.4439 104.157 78.4918 104.057 78.5628 103.973C78.6338 103.89 78.7255 103.826 78.8291 103.787C81.709 102.837 84.7903 102.642 87.7701 103.22C88.1023 102.563 88.565 101.978 89.1308 101.5C89.6966 101.021 90.3541 100.66 91.0641 100.437C91.6223 100.27 92.2183 100.27 92.7765 100.437C93.6 99.6898 94.6196 99.1486 95.3908 99.78C96.243 100.155 96.9752 100.752 97.5084 101.507C98.2514 101.301 99.043 101.346 99.7568 101.636C99.9632 101.738 100.145 101.883 100.289 102.061C100.433 102.239 100.537 102.445 100.593 102.666C101.129 104.573 98.4627 107.821 95.6 110.205C92.7373 112.588 88.5674 114.985 87.1165 115.062L87.0773 115.101ZM78.1232 112.292C81.4565 112.949 86.3714 113.825 87.0903 113.813C87.8093 113.8 91.4563 112.009 94.7895 109.264C98.1228 106.519 99.6391 103.994 99.3646 103.04C99.356 102.989 99.3348 102.942 99.3028 102.901C99.2709 102.861 99.2292 102.829 99.1816 102.808C98.5786 102.658 97.943 102.699 97.3646 102.924C97.2804 102.961 97.189 102.981 97.0967 102.981C97.0043 102.981 96.913 102.961 96.8287 102.924C96.7491 102.876 96.6803 102.812 96.6264 102.737C96.5725 102.661 96.5346 102.576 96.515 102.486C96.3973 101.88 95.3255 101.197 94.8287 101.004C94.774 100.984 94.7214 100.958 94.6719 100.927C94.515 100.798 93.7438 101.3 93.1687 101.983C93.0917 102.085 92.9855 102.162 92.8639 102.203C92.7422 102.244 92.6107 102.249 92.4866 102.215C92.3624 102.182 92.2514 102.112 92.1678 102.016C92.0843 101.919 92.0322 101.8 92.0183 101.674C91.7811 101.677 91.5446 101.703 91.3125 101.751C90.0053 101.996 88.9988 103.659 88.6982 104.329C88.631 104.463 88.5192 104.571 88.3813 104.634C88.2434 104.698 88.0877 104.713 87.94 104.677C85.1852 104.063 82.3161 104.165 79.6134 104.973L78.1232 112.292Z" fill="#231F20"/>
<path d="M92.2932 113.13C92.1735 113.132 92.0556 113.101 91.9533 113.039C91.8075 112.951 91.7017 112.811 91.6579 112.648C91.6141 112.485 91.6357 112.311 91.7181 112.163L100.659 97.0353C100.749 96.8881 100.894 96.7815 101.062 96.7381C101.231 96.6948 101.41 96.7182 101.561 96.8034C101.71 96.8919 101.819 97.0345 101.862 97.2007C101.906 97.3668 101.883 97.5434 101.796 97.6925L92.8553 112.808C92.7983 112.905 92.7164 112.986 92.6178 113.042C92.5192 113.099 92.4073 113.129 92.2932 113.13Z" fill="#231F20"/>
<path d="M94.3974 102.885C95.4163 102.641 96.46 102.512 97.5084 102.499C97.7389 102.467 97.9734 102.481 98.1981 102.541C98.4227 102.601 98.6328 102.705 98.8156 102.847C98.9696 103.021 99.068 103.236 99.0982 103.466C99.1284 103.695 99.0892 103.928 98.9855 104.135C98.7713 104.55 98.4399 104.895 98.0313 105.127C96.7679 105.817 95.4127 106.329 94.0053 106.648C93.6846 106.726 93.3796 106.856 93.1033 107.035C92.7775 107.314 92.4955 107.64 92.2667 108.001C91.2687 109.144 90.04 110.07 88.6589 110.72" fill="white"/>
<path d="M88.6459 111.416C88.5281 111.417 88.412 111.387 88.3106 111.328C88.2091 111.269 88.1261 111.183 88.0708 111.081C88.0294 111.006 88.0033 110.925 87.994 110.84C87.9848 110.756 87.9925 110.67 88.0168 110.589C88.0411 110.508 88.0815 110.432 88.1356 110.366C88.1897 110.3 88.2565 110.245 88.3322 110.204C89.6335 109.586 90.7907 108.709 91.7309 107.627L91.8877 107.421C92.1117 107.083 92.3898 106.783 92.7112 106.532C93.0435 106.312 93.4099 106.146 93.7962 106.042L94.6589 105.785C95.7103 105.543 96.7193 105.148 97.6523 104.612C97.9556 104.438 98.2078 104.189 98.3843 103.89C98.4371 103.8 98.4649 103.698 98.4649 103.594C98.4649 103.49 98.4371 103.388 98.3843 103.298C98.2275 103.143 97.8353 103.143 97.5477 103.143C96.5519 103.158 95.5609 103.283 94.5935 103.517C94.4254 103.556 94.2486 103.527 94.1017 103.438C93.9547 103.348 93.8496 103.205 93.8092 103.04C93.7878 102.959 93.783 102.874 93.7951 102.791C93.8072 102.708 93.836 102.628 93.8798 102.556C93.9237 102.484 93.9816 102.421 94.0503 102.372C94.119 102.322 94.197 102.286 94.2798 102.267C95.3452 102.007 96.4373 101.869 97.5347 101.855C97.8526 101.823 98.1738 101.855 98.4791 101.948C98.7844 102.041 99.0678 102.193 99.3124 102.396C99.5584 102.664 99.7183 102.998 99.7718 103.356C99.8253 103.714 99.7701 104.079 99.6131 104.406C99.3494 104.939 98.9366 105.386 98.4235 105.694C97.3775 106.292 96.2444 106.726 95.0641 106.983L94.2275 107.241C93.9781 107.297 93.7397 107.392 93.5217 107.524C93.3138 107.699 93.1333 107.903 92.9857 108.13L92.8158 108.362C91.76 109.578 90.4605 110.565 88.9989 111.261C88.8985 111.345 88.7761 111.398 88.6459 111.416V111.416Z" fill="#231F20"/>
<path d="M109.901 78.1577C108.428 80.1077 107.443 82.3724 107.025 84.7681C105.966 89.3683 105.326 93.3113 106.319 93.4273C107.312 93.5433 109.378 89.1621 109.378 89.1621C109.378 89.1621 110.031 99.2645 111.731 99.3032C113.43 99.3418 113.299 97.6152 113.299 97.6152C113.299 97.6152 114.371 99.7542 115.208 98.9037C115.448 98.607 115.61 98.2569 115.681 97.884C115.751 97.511 115.728 97.1267 115.613 96.7647C115.613 96.7647 116.724 98.7233 117.351 97.9631C117.535 97.6864 117.656 97.3739 117.705 97.047C117.755 96.72 117.732 96.3864 117.639 96.0689C117.639 96.0689 119.09 97.86 119.508 96.4941C119.927 95.1282 118.815 84.7939 117.508 80.7735C116.856 78.571 115.925 76.4583 114.737 74.4853L109.901 78.1577Z" fill="white"/>
<path d="M111.77 99.9475C110.462 99.9475 109.482 97.074 108.959 91.4945C107.927 93.2727 107.025 94.1619 106.345 94.0716C106.199 94.056 106.059 94.01 105.932 93.9367C105.806 93.8634 105.697 93.7644 105.613 93.6464C105.142 92.9892 104.92 91.443 106.476 84.6264C106.919 82.1243 107.958 79.7617 109.508 77.7325L109.587 77.6552L114.397 73.9699C114.544 73.8638 114.726 73.8176 114.907 73.841C115.085 73.8787 115.243 73.9796 115.351 74.1245C116.572 76.1456 117.529 78.3103 118.201 80.5674C119.39 84.3429 120.737 95.0767 120.227 96.739C120.181 96.9695 120.067 97.1815 119.9 97.3487C119.732 97.516 119.519 97.631 119.286 97.6797C118.98 97.7338 118.665 97.679 118.397 97.525C118.316 97.8538 118.165 98.1615 117.953 98.427C117.843 98.5672 117.699 98.6783 117.535 98.7503C117.37 98.8223 117.191 98.8529 117.011 98.8394C116.717 98.8157 116.435 98.7083 116.201 98.5301C116.088 98.859 115.895 99.1556 115.639 99.3935C115.506 99.5343 115.34 99.64 115.155 99.7007C114.97 99.7615 114.772 99.7755 114.58 99.7414C114.163 99.644 113.791 99.4128 113.521 99.0842C113.464 99.1677 113.398 99.2454 113.325 99.3161C113.126 99.5237 112.884 99.6874 112.616 99.7962C112.348 99.905 112.059 99.9566 111.77 99.9475V99.9475ZM109.391 88.5179H109.508C109.651 88.544 109.78 88.6167 109.875 88.7244C109.969 88.832 110.025 88.9681 110.031 89.1106C110.345 93.8655 111.168 98.2337 111.835 98.6719C112.044 98.6634 112.244 98.5811 112.397 98.4399C112.573 98.2111 112.661 97.9279 112.645 97.641C112.64 97.4922 112.687 97.3461 112.777 97.2267C112.867 97.1073 112.996 97.0217 113.142 96.9838C113.286 96.9451 113.44 96.9574 113.576 97.0186C113.712 97.0798 113.822 97.186 113.887 97.3189C114.086 97.7801 114.407 98.1805 114.815 98.4786C115.273 97.9889 114.985 97.0096 114.985 96.9967C114.944 96.8469 114.959 96.6875 115.028 96.5479C115.097 96.4082 115.214 96.2977 115.359 96.2366C115.503 96.1754 115.666 96.1679 115.816 96.2152C115.965 96.2625 116.093 96.3616 116.175 96.4942C116.379 96.8542 116.635 97.1839 116.933 97.4735C117.091 97.0977 117.119 96.6809 117.011 96.288C116.976 96.1464 116.99 95.9969 117.051 95.8642C117.113 95.7315 117.218 95.6234 117.351 95.5575C117.483 95.4916 117.634 95.4719 117.779 95.5016C117.924 95.5313 118.054 95.6087 118.149 95.721C118.357 95.9674 118.599 96.1842 118.868 96.3653C118.843 91.1491 118.167 85.9557 116.854 80.9024C116.267 78.9883 115.487 77.1365 114.528 75.3744L110.358 78.5701C108.993 80.4373 108.069 82.5812 107.652 84.8454C106.345 90.3477 106.345 92.0744 106.515 92.5769C107.426 91.4094 108.189 90.1373 108.789 88.7885C108.857 88.6958 108.948 88.622 109.054 88.5746C109.159 88.5271 109.275 88.5076 109.391 88.5179V88.5179Z" fill="#231F20"/>
<path d="M65.1433 25.7773C65.1433 25.7773 52.5684 9.3738 47.941 8.48468C43.3137 7.59557 4.36016 57.1025 4.4778 63.352C4.59545 69.6016 32.5426 82.526 32.5426 82.526L65.1433 25.7773Z" fill="#231F20"/>
<path d="M32.5425 83.1704C32.4519 83.1881 32.3586 83.1881 32.268 83.1704C29.34 81.7787 3.94177 69.8336 3.78491 63.365C3.78491 57.5149 34.5425 17.9298 44.5815 9.61854C46.6991 7.86608 47.5488 7.763 48.0586 7.8532C52.8036 8.7552 64.3589 23.6898 65.653 25.3907C65.7267 25.4946 65.7662 25.6183 65.7662 25.7451C65.7662 25.8718 65.7267 25.9955 65.653 26.0994L32.9739 82.7967C32.9356 82.8872 32.8768 82.968 32.8021 83.0327C32.7273 83.0975 32.6385 83.1446 32.5425 83.1704ZM47.8363 9.116C47.7448 9.116 47.0128 9.19331 44.6469 11.3066C33.0915 21.5636 5.09208 58.5844 5.09208 63.3521C5.09208 68.1198 24.2159 77.913 32.2419 81.6885L64.3589 25.8288C60.6988 21.0997 51.2873 9.78606 47.8102 9.07734L47.8363 9.116Z" fill="#231F20"/>
<path d="M38.3984 37.9671C38.3984 37.9671 50.8426 24.1923 59.7313 20.4039C68.62 16.6155 76.6068 16.4222 82.123 20.958C87.6393 25.4938 101.835 38.3279 104.528 44.1523C107.221 49.9766 117.822 75.6708 117.822 75.6708L105.181 81.4693C105.181 81.4693 92.7503 52.9275 91.8091 50.5436C90.868 48.1598 74.4369 37.8383 73.8618 37.2842C73.2866 36.7301 69.9403 50.7627 64.2541 56.4582C58.5679 62.1536 39.2219 76.1991 39.2219 76.1991C39.2219 76.1991 52.4373 92.1258 54.738 94.3422C57.0386 96.5585 83.2864 101.61 83.2864 101.61L79.8355 114.702C79.8355 114.702 51.8883 110.436 47.5616 108.632C43.2349 106.828 19.2746 91.997 18.1635 78.016C17.0524 64.035 38.3984 37.9671 38.3984 37.9671Z" fill="#18A0FB"/>
<path d="M68.1104 43.1859C69.7055 45.1967 71.024 47.4064 72.0319 49.7576C73.5436 52.6458 74.1704 55.9052 73.8358 59.1384C73.2868 62.3212 70.8293 65.3622 67.5745 65.6972C68.8816 69.4856 66.3719 73.7766 62.7903 75.6192C59.2086 77.4619 54.8558 77.23 51.0258 76.0831C46.2868 74.5823 42.0337 71.8748 38.6964 68.2343C35.3591 64.5937 33.0559 60.1492 32.0196 55.35C30.3856 47.6186 34.83 37.8512 43.1305 35.5704C51.7578 33.2123 62.4896 36.3565 68.1104 43.1859Z" fill="white"/>
<path d="M56.7644 77.6035C54.761 77.5879 52.7705 77.284 50.8561 76.7015C46.0077 75.1569 41.6562 72.3832 38.2379 68.6584C34.8196 64.9336 32.4543 60.3886 31.3793 55.4788C29.7584 47.7473 34.1113 37.3743 42.9477 34.9518C51.7842 32.5293 62.9343 35.8667 68.6204 42.7863C70.2799 44.8543 71.6474 47.1343 72.6857 49.5642C73.7707 51.9739 75.1562 55.6076 74.5288 59.3058C74.019 62.3082 71.7838 65.5425 68.4374 66.277C69.3394 70.3746 66.5682 74.4981 63.2088 76.2505C61.2029 77.2077 58.9918 77.6719 56.7644 77.6035V77.6035ZM49.1175 35.3899C47.1535 35.3835 45.1974 35.6349 43.3007 36.1373C35.157 38.3794 31.1571 47.9664 32.6603 55.1695C33.6863 59.85 35.9406 64.1831 39.198 67.7355C42.4553 71.288 46.6015 73.9353 51.2221 75.413C55.5096 76.7015 59.5356 76.534 62.5421 74.9877C65.5486 73.4414 68.1891 69.4726 66.9995 65.8389C66.9665 65.7493 66.9563 65.653 66.97 65.5586C66.9837 65.4642 67.0208 65.3746 67.078 65.2977C67.1286 65.2165 67.1973 65.1476 67.2788 65.0963C67.3603 65.0449 67.4525 65.0125 67.5485 65.0013C70.6335 64.6792 72.7772 61.6639 73.2347 58.9708C73.6922 56.2777 73.1171 53.5588 71.4831 49.9508C70.4717 47.6412 69.153 45.4745 67.5616 43.5079C63.4048 38.4954 56.137 35.3899 49.1175 35.3899Z" fill="#231F20"/>
<path d="M41.2349 34.3076C39.2651 34.2291 37.3102 34.6742 35.5749 35.5962C34.279 36.0774 33.1404 36.897 32.2808 37.9672C31.7479 38.8207 31.4339 39.7892 31.3658 40.7891C31.0367 42.9268 31.4514 45.1114 32.5422 46.9872C33.0927 47.907 33.8945 48.6558 34.8561 49.1479C35.8176 49.6401 36.9001 49.8558 37.9801 49.7705C38.9037 49.607 39.7895 49.2795 40.5944 48.8041C42.6198 47.7704 44.3162 46.2052 45.4962 44.2812C47.4308 40.6345 45.9537 34.8359 41.2349 34.3076Z" fill="white"/>
<path d="M37.3398 50.3889C36.2482 50.3522 35.1833 50.0463 34.2426 49.4993C33.3018 48.9523 32.515 48.1817 31.9543 47.2577C30.7859 45.268 30.3258 42.9503 30.6471 40.6731C30.7364 39.5718 31.0903 38.5073 31.6798 37.5677C32.6048 36.4 33.84 35.508 35.2483 34.9905C37.0879 34.0143 39.1611 33.5468 41.2482 33.6375V33.6375C42.2606 33.7481 43.228 34.1099 44.0601 34.689C44.8922 35.2682 45.5617 36.0458 46.0063 36.9492C46.609 38.119 46.9232 39.4126 46.9232 40.7247C46.9232 42.0368 46.609 43.3303 46.0063 44.5002C44.7832 46.5343 43.0025 48.1869 40.8691 49.2679C39.9988 49.7889 39.0364 50.143 38.0326 50.3116C37.8042 50.3562 37.5725 50.382 37.3398 50.3889V50.3889ZM40.5162 34.9261C38.8868 35.0317 37.2976 35.4706 35.8496 36.2147C34.6652 36.6326 33.6174 37.3583 32.817 38.3151C32.3365 39.0956 32.0582 39.9806 32.0065 40.8922C31.6991 42.8692 32.067 44.8908 33.0523 46.6392C33.545 47.4463 34.2527 48.1048 35.0985 48.5433C35.9443 48.9817 36.8957 49.1833 37.8496 49.1261C38.6907 48.9745 39.4969 48.6733 40.2286 48.237C42.15 47.2717 43.7579 45.7939 44.869 43.9719C45.3723 42.9888 45.6345 41.9031 45.6345 40.802C45.6345 39.7009 45.3723 38.6151 44.869 37.6321C44.5175 36.9236 43.9886 36.3151 43.3321 35.8642C42.6757 35.4132 41.9135 35.1347 41.1175 35.055V35.055C40.9201 34.9961 40.7193 34.9487 40.5162 34.9132V34.9261Z" fill="#231F20"/>
</svg>
