<svg width="72" height="67" viewBox="0 0 72 67" fill="none" xmlns="http://www.w3.org/2000/svg">
<path d="M67.9222 31.9245H65.3922V15.4134H7.55119C3.53127 15.4134 0.262329 12.0977 0.262329 8.02033C0.262329 6.04478 1.02133 4.18735 2.39879 2.79021C3.77624 1.39306 5.60549 0.625244 7.55119 0.625244H57.7459C58.0813 0.625244 58.4045 0.7617 58.6415 1.00202C58.8784 1.24439 59.0109 1.57025 59.0109 1.91241L58.9728 12.8472H66.6572C67.356 12.8472 67.9222 13.4215 67.9222 14.1303V31.9245V31.9245ZM7.55119 3.19143C6.28016 3.19143 5.08543 3.69448 4.18787 4.60487C3.29032 5.51525 2.79235 6.72909 2.79235 8.02033C2.79235 10.6822 4.9268 12.8472 7.55119 12.8472H56.4428L56.4769 3.19143H7.55119Z" fill="#121331"/>
<path d="M66.6572 66.9876H7.5793C3.54533 66.9876 0.262329 63.6576 0.262329 59.566V8.02033H2.79235V59.566C2.79235 62.2442 4.93885 64.4214 7.5793 64.4214H65.3922V46.1648H67.9222V65.7045C67.9222 66.4132 67.356 66.9876 66.6572 66.9876Z" fill="#121331"/>
<path d="M70.4724 47.4479H49.5897C45.0216 47.4479 41.3049 43.6781 41.3049 39.0447C41.3049 34.4113 45.0216 30.6414 49.5897 30.6414H70.4724C71.1711 30.6414 71.7374 31.2158 71.7374 31.9245V46.1648C71.7374 46.8736 71.1711 47.4479 70.4724 47.4479ZM49.5897 33.2076C46.4171 33.2076 43.8349 35.8268 43.8349 39.0447C43.8349 42.2626 46.4171 44.8817 49.5897 44.8817H69.2074V33.2076H49.5897Z" fill="#0078E7"/>
</svg>
